<mxfile host="app.diagrams.net" agent="Mozilla/5.0 (Windows NT 10.0; Win64; x64) AppleWebKit/537.36 (KHTML, like Gecko) Chrome/131.0.0.0 Safari/537.36" version="25.0.3">
  <diagram name="Page-1" id="mSdsC7eeC9AyAvfWbKci">
    <mxGraphModel dx="1050" dy="522" grid="1" gridSize="10" guides="1" tooltips="1" connect="1" arrows="1" fold="1" page="1" pageScale="1" pageWidth="827" pageHeight="1169" math="0" shadow="0">
      <root>
        <mxCell id="0" />
        <mxCell id="1" parent="0" />
        <mxCell id="tKvyN9K_BntDlA_-QOsu-6" value="" style="rounded=0;whiteSpace=wrap;html=1;fillColor=#dae8fc;strokeColor=#6c8ebf;" vertex="1" parent="1">
          <mxGeometry x="170" y="50" width="980" height="400" as="geometry" />
        </mxCell>
        <mxCell id="tKvyN9K_BntDlA_-QOsu-1" value="User" style="sketch=0;outlineConnect=0;fontColor=#232F3E;gradientColor=none;strokeColor=#232F3E;fillColor=#ffffff;dashed=0;verticalLabelPosition=bottom;verticalAlign=top;align=center;html=1;fontSize=12;fontStyle=0;aspect=fixed;shape=mxgraph.aws4.resourceIcon;resIcon=mxgraph.aws4.user;" vertex="1" parent="1">
          <mxGeometry x="80" y="222.38" width="60" height="60" as="geometry" />
        </mxCell>
        <mxCell id="tKvyN9K_BntDlA_-QOsu-22" value="Gougle Cloud" style="text;html=1;align=center;verticalAlign=middle;whiteSpace=wrap;rounded=0;fontSize=14;" vertex="1" parent="1">
          <mxGeometry x="180" y="65" width="60" height="30" as="geometry" />
        </mxCell>
        <mxCell id="tKvyN9K_BntDlA_-QOsu-24" value="" style="rounded=0;whiteSpace=wrap;html=1;fillColor=#d5e8d4;strokeColor=#82b366;" vertex="1" parent="1">
          <mxGeometry x="250" y="57.13" width="730" height="385.74" as="geometry" />
        </mxCell>
        <mxCell id="tKvyN9K_BntDlA_-QOsu-18" value="" style="rounded=0;whiteSpace=wrap;html=1;" vertex="1" parent="1">
          <mxGeometry x="520" y="90" width="250" height="135" as="geometry" />
        </mxCell>
        <mxCell id="tKvyN9K_BntDlA_-QOsu-8" value="" style="shape=image;verticalLabelPosition=bottom;labelBackgroundColor=default;verticalAlign=top;aspect=fixed;imageAspect=0;image=https://awsmp-logos.s3.amazonaws.com/seller-zcoodnihmthks/a01ef0656f425b5ea83c9c1d77817165.png;" vertex="1" parent="1">
          <mxGeometry x="530" y="95" width="90.5" height="28.51" as="geometry" />
        </mxCell>
        <mxCell id="tKvyN9K_BntDlA_-QOsu-13" value="" style="html=1;verticalLabelPosition=bottom;align=center;labelBackgroundColor=#ffffff;verticalAlign=top;strokeWidth=2;strokeColor=#0080F0;shadow=0;dashed=0;shape=mxgraph.ios7.icons.settings;fontSize=12;" vertex="1" parent="1">
          <mxGeometry x="700" y="135" width="50" height="50" as="geometry" />
        </mxCell>
        <mxCell id="tKvyN9K_BntDlA_-QOsu-14" value="RAG LLM" style="text;html=1;align=center;verticalAlign=middle;whiteSpace=wrap;rounded=0;" vertex="1" parent="1">
          <mxGeometry x="690" y="100.56" width="60" height="30" as="geometry" />
        </mxCell>
        <mxCell id="tKvyN9K_BntDlA_-QOsu-19" value="" style="rounded=0;whiteSpace=wrap;html=1;" vertex="1" parent="1">
          <mxGeometry x="520" y="240" width="250" height="140" as="geometry" />
        </mxCell>
        <mxCell id="tKvyN9K_BntDlA_-QOsu-10" value="" style="shape=image;verticalLabelPosition=bottom;labelBackgroundColor=default;verticalAlign=top;aspect=fixed;imageAspect=0;image=https://awsmp-logos.s3.amazonaws.com/seller-zcoodnihmthks/a01ef0656f425b5ea83c9c1d77817165.png;" vertex="1" parent="1">
          <mxGeometry x="527.63" y="250" width="95.25" height="30.01" as="geometry" />
        </mxCell>
        <mxCell id="tKvyN9K_BntDlA_-QOsu-15" value="" style="html=1;verticalLabelPosition=bottom;align=center;labelBackgroundColor=#ffffff;verticalAlign=top;strokeWidth=2;strokeColor=#0080F0;shadow=0;dashed=0;shape=mxgraph.ios7.icons.settings;fontSize=12;" vertex="1" parent="1">
          <mxGeometry x="695" y="280.01" width="50" height="50" as="geometry" />
        </mxCell>
        <mxCell id="tKvyN9K_BntDlA_-QOsu-16" value="LORA LLM" style="text;html=1;align=center;verticalAlign=middle;whiteSpace=wrap;rounded=0;" vertex="1" parent="1">
          <mxGeometry x="667.5" y="250.01" width="105" height="30" as="geometry" />
        </mxCell>
        <mxCell id="tKvyN9K_BntDlA_-QOsu-21" value="Google Cloud Storage andÂ &#xa;DVC" style="shape=image;verticalLabelPosition=bottom;labelBackgroundColor=default;verticalAlign=top;aspect=fixed;imageAspect=0;image=https://download.logo.wine/logo/Google_Storage/Google_Storage-Logo.wine.png;" vertex="1" parent="1">
          <mxGeometry x="1010" y="217.39" width="104.99" height="69.99" as="geometry" />
        </mxCell>
        <mxCell id="tKvyN9K_BntDlA_-QOsu-25" value="" style="endArrow=classic;html=1;rounded=0;exitX=1;exitY=0.5;exitDx=0;exitDy=0;entryX=0;entryY=0.5;entryDx=0;entryDy=0;" edge="1" parent="1" source="tKvyN9K_BntDlA_-QOsu-4" target="tKvyN9K_BntDlA_-QOsu-18">
          <mxGeometry width="50" height="50" relative="1" as="geometry">
            <mxPoint x="420" y="260" as="sourcePoint" />
            <mxPoint x="470" y="210" as="targetPoint" />
          </mxGeometry>
        </mxCell>
        <mxCell id="tKvyN9K_BntDlA_-QOsu-26" value="" style="endArrow=classic;html=1;rounded=0;exitX=1;exitY=0.5;exitDx=0;exitDy=0;entryX=0;entryY=0.5;entryDx=0;entryDy=0;" edge="1" parent="1" source="tKvyN9K_BntDlA_-QOsu-4" target="tKvyN9K_BntDlA_-QOsu-19">
          <mxGeometry width="50" height="50" relative="1" as="geometry">
            <mxPoint x="391" y="265" as="sourcePoint" />
            <mxPoint x="540" y="145" as="targetPoint" />
          </mxGeometry>
        </mxCell>
        <mxCell id="tKvyN9K_BntDlA_-QOsu-27" value="Google Cloud Kubernetes Engine&lt;div&gt;&lt;br&gt;&lt;/div&gt;" style="text;html=1;align=center;verticalAlign=middle;whiteSpace=wrap;rounded=0;fontSize=14;" vertex="1" parent="1">
          <mxGeometry x="250" y="65" width="230" height="30" as="geometry" />
        </mxCell>
        <mxCell id="tKvyN9K_BntDlA_-QOsu-4" value="" style="shape=image;verticalLabelPosition=bottom;labelBackgroundColor=default;verticalAlign=top;aspect=fixed;imageAspect=0;image=data:image/png,iVBORw0KGgoAAAANSUhEUgAABPcAAAM7CAYAAAAml3WDAAAAAXNSR0IArs4c6QAAAARnQU1BAACxjwv8YQUAAAAJcEhZcwAADsMAAA7DAcdvqGQAAJabSURBVHhe7N13nFxnYTbs+8xsU5csW7bkXnHDBReMTa8BTO9gQmiBJBDSSfNLEvIm4U35SCMhhVBMJ1TTOwZjwBXcuy13ucmSVqvdnTnfH7M7OzO7K0tWPdJ1/X6zO/OcMzNnzpnZfc49TynO+IvhMgAAAABA5dR6CwAAAACAahDuAQAAAEBFCfcAAAAAoKKEewAAAABQUcI9AAAAAKgo4R4AAAAAVJRwDwAAAAAqSrgHAAAAABUl3AMAAACAihLuAQAAAEBFCfcAAAAAoKKEewAAALBVlS6zXoCtTbgHAAAAm6U3sOq9MLvefWV/wZYS7gEAAMDDEkZtO71hn/0Mm6M44y+GfWIAAABgmjLNW25NededKR94IFm/PimdQm9TRZHMmZNiyZIU+yxP7cADJhf0rAhMEu4BAABAW+sUuXnLrWledWUyPNy7AtvT3LmpHXV0R8gXQR/00C0XAAAAOrqCNi+7LM2LLhTs7QyGh9O86MI0L7uso1AbJegk3AMAAGA31j2+W/Oyy9K84YauNdjxmjfcIOCDWQj3AAAA2E11B0TNW24R7O3EmjfckOYtt3SUmHgDItwDAABg99QTCpVJ86qrusvY6TSvumraoRPysbsT7gEAALCb6QiCJnKh5q23GGOvCoaHW8dqxjxvWgHsFoR7AAAA7EZ6gr3Jq3fdNXWDnVrXsZqW500rgF2ecA8AAIDdxMzBXpKUDzzQXcBOa9qxmpbnTSuAXZpwDwAAgN3A7MFeUibr1/cWsrNav37iIG7smMLuQ7gHAADA7mNaCDQREpXTFrCzKsuU7QM5W8DneLL7EO4BAACwi5st6GmVz7aUnduMx03Ax25IuAcAAMAubOMtu0qt9qqpnGhx2brRsxB2L8I9AAAAdlGzhT5a7FVe2foxdQw3HuLCrky4BwAAwK6vJ+PpCoXkP9U0cdwePuCDXZtwDwAAgF3QbEFP5w3BXnVNHrjW740fxo0vhaoT7gEAALCb6AyCOoO95tQqVERns72ewHaGq7ArE+4BAACw6+oJeLpvltNKqJKJ49eZ88FuSLgHAADALubhYp6OVnsPtyo7qcljONOBnOmgzlQGuwbhHgAAALuBmcKdmYIhKqH3kM3Wem9aAex6hHtsdX945kB+ePac9uW9Zw32rgIAALDt9QQ77Zu9gU/vbSqiN5x9uNZ7sGsqzviL4W3+jn/WcfX87rMHMnegu3zNSJl/+OpYvnl5o3vBhJMOquVPXziQvRYUXeXDo8nff3U0X/956369j9+7/OE88ch6XnhSXx61vMiCoSK1ovVnYGQ0uf2BZr7280Y+ccF4792SGZ67V7Nsvc5r7izz+YvG84Orp2/T3IHkRSf35RnH1rNiSS1zBpLJVzzWSIY3lLn6zmY+8P3xXHH79h/odXL7nnp0PfvuUWTeYDHj9r3362NZeV+ZPzxzIGeeWG/f/8Kbmvmtcza0b+9I57x1KAft1f1+6rRhPHlgXZmf3djI//xgPPc8tM0/HtvVw71fyyTrNpS5aVWZr17WyBcvnvl93+nXntafV5zWl76OrwpWrSnzl58fzUU3b9r7ddnCImed0ZeTD65n2cIig/3dn4GRsTJ3PFDm+1c38uEfPvw27WhvenJ/XnN6X/onPgabsj8eyX3ee9ZgTj54+nc051/XyB98YrS3uO2PnjeQ55xQb+/jSZvzWe39LJ17SSN/c+7sz7mlep+v14bx5O7VZX54bSOf+emu99kFADZHRz2gJ81r/ywnb5Wtk7aUaXzx3Pbd2PnVn//cVnulWpHW2UMxcRIxdb7aPqtoF8xen4Qqm35WuB3NGyxy/AGzb8KJB9WzeO62+/AtW1jk7141kHe/ZCCnHlLLojmtYC8TH/k5A8lhe9fyG8/ozwfeNJgTD5x9W2dTK5JFc4qcekgtf/aigfzBc/u7lp94YC3vf8Ng3vq0/hy2dy1zO4K9JOmvJ4vmFnn0/vXst3Tb7YvZPOvR9fzPrw7lrU/rz6OW1zK/I9hLx/YdsqyWZT0h7Pa2bGGR15zel/e/YTCf/62hPOu4qYBxUw32JfssKvK8E/vyT68dzGmHbf5jbMzW2MZtqUgyf7DIo/er5fee05//98rZg8BJx+5X6wr2kmTx3CInHvTwr23uQPJbv9SfD791MC8+uS8HLC0y1BHsZeI9tmCoyKOW1/KYTXhMkkOW1XLMvjP/vZo7kBy9b/fneFcw2JccsLTIqx+3bT67AMAuZMbvAGcs3Kb++f1PzwWXnJUvff3FOfnUfXoXs8kmj91UaDv70Zx9ya7o8GXN/P4zR/L7zxjJfktmbzSwq/iHl67Pp968Lmc/Z6R30SaZvP8/vHR976Kd3sxnf9tJrUiO3rcVaM3k2P1q7VYsW9tBexX5f68cyGMPq6f+MHuhSHLE8lr+5AUDW3TCONCXPPPRfXnZqX3JxEn2bzyjPwfvVdspT7Rfc3pffvvZ/dl3yc4fBDz9mHo+/JbB/NrT+nPMvrXMHdzyLd5vjyKvPK11rLaGbbGN21KtSE45pJ5Xn94dSHc644h6DpghdO6vt4LrjZk7kPzlywbzklP6Mn8n3xdVs8e8Io85aOb9/+Sj6lm2cOZlu4qt/dkFACqqJ8fZXrHOwYcsyh+/67Sc+82X5EcXviYXXHJWfnzxWfnuj16ZD5zz7B0a5D37uYfkOz98RS645Kyuy/kXvSaf+/IL85ZfP773Lju/TTmwm7LOdjAZHj3cZWuFS087ciynHNjIyQc18pxjx3oXb5GznzPS3t6PvmFdXnTC7I+/fFEz73351GvfWq+PKTvkDG+0o1fd8sVFzjhiemB20kG1HLhn64S/WSaNrRwy/9pT+3Po3lOhWrNMLru1mT//3Gge/+71+b2Pt7rDdT7vPouKvOnJfbOGkZnoEvzuL3Q/RrPjD8lQf+vkOml1dT14r6lDUCa57q6pbXjme9bnzz47mq//opH715ZpbuV9sDFPP6ae15zeHbo0msmlHfvo8e9enz/9zNT27Uj1elKbbHa5Gc69pJHHv3t9XvyPI/nQeeNZu6H7dRywdOOtSzfHI93Gbanz/XrWv4/kO1c2MtbRc7y/npw0Q7fPSY89tJZFE61rxxrJ+o5emfsvLTYahv/Oswdy8sHdwfYD68p84oLxvPm/N7Q/A3/6mdF89Pzx3HB3M2ONHfs+25k1mlN/Jwf6kkfvP/NxO/6AeuZODIPZeayrZvKz+8z3rM9/fm8sq3tGmDh02cz/WwCA3V1HK68kKVu/t1Yt88UvOyLv+89n5PkvPCx77jkn9XqrtlsUyZy5fTnooIXZa6+5vXfbqg44cGH+/P+eka9++6X5o7NP613ctmFDI8PrxrJhQyO1WpHlK+bndW88Nn/yrsf1rrpZ3virj84nP/f8fOSTz+1dtFVt2pF7uOW7tnvX1jI6nqzbUOSme7dd3bi/npyw/+wnF6cd3Mhe87djoLEbmvnsbxtbM1K2A6/ZuuZ2dskdHi0zPLr1PpQvOrkvjzloarypMskPrm7k9z++oT3+3wXXN/KOj7Rud4Zzhy6rbbQlU6cLrm/kjz65IVfd0f0mXrawyFEratl/j1oGOxqX3L+2zPu+PTUG4fBo8q0rGnn350fzyn8dmXVswq1t7kDyklP6snDOVOyydkOZ//juWN72oal9lCTfu6q1fW/8rw0bHRtsZ3fPQ2X+83tj+cn11X0NW+rmVWX+5kujuWlV9z5YsJFWdcfuW2t3ZV8/WubOB6fuu3BOMWvrvZed2pcnH1Vv37dMcv3dzbz9IxvyL98ca39mhkdb77F/+/ZYXvcfG/L7H992Y7pV3XizNV7ipJm65vZ2yV21C4xLNzyafOi88Xz3qu6/1YP9ReYPda4JAOy+Hq7O83DLN82LX3pEfu3tJ2TJHkNpNMpcdsk9+fv3/CzP/6XP5g1nfTUf+eAVuW3lmjS3cauNZXvPzWNO3jtL9hhKMXN1PEny9a/elKc+/pN50mkfzz/8vwuzZs1oarUiJ5+6d44+Zmnv6pvshJP2zoEHLUxf79g9W9tEMDtxY8arM3vYFbaZ3/nMnLz8P+e1L7c90NpHtz1Q6yr/nc/M6b3rI/KZi/tz1v/Myxs+PDffvGrb9GwpJ3pDH7CkmccfNvP46Cfs30h/PRkZm/3cki2zjT9tM1s9XLZb783WNbezS+69D3W39ttSjzusNWnFpLtXl/n4j8czPENucM75Y7njgakP/8O1ZOo1PJrcdE/3H4++eusku9dgf7Lfkk1/7G3lWcf15bC9p7ajWSbf+EUjHz3/kR+Exx5az/vfMJjv/FFrBt3v/NGcvP8NM49j+PzH9OW9Zw3my787lO//SWv9886ek6/9wVD+9lUDXYHFs46r5xvvnJOzX9A9NtzcgeTsF7Rm7f3cbw3lpFm6KPbqfF8kyZ0Plrns1u5/vnMHktc9oS8f+/WhfHvi9fzw7Dn57h/PyaffPpS3PLW/a1u29jZuS8OjyUOb2EL6GcfWs3zJ1B/nu1aX+emNU61d+2rJcTME95noGjrUkZHft6bMv39nPDev2vJ/tL/z7P784E+njstM+/ZNT+7Pd/94ap0v/s5Qu5Xhs46r599eP5iv/0HrfffDs+fk+3/SWucPz5zhg7uTaDST+9dN3Z6pa25nl9wN48k9a7Z8f2+ug/YqcvYLBvLF3+n+fH/znXPyn28cfMTjUD44vPEW3nMHklee1hrv8mu/P9R+j/zgT+fky783lLNfOJBlC1U2AKD6HqZ+07W4MxB6mPs9jIMPWZRXvfaoLFgwkNHRRj72kSvzljd8I5/+xDW55+7hXHnFffnXf7wkv/yqr+TrX7259+473Kc+fnWuvfqBJElfXy1z521ag5ad2ZYdUTbVutEiwxuKzB0oc9Q+0xskPe6Q8ey/pJmRsSIbHnmkwMOY+cx7G1u9Prm346Syt2tub5fcW+5rZs7A1jnpOmpFrasrbJJccVtz1llob15V5po7u5ftvXDm1oaba/X6MuMdDz1/sNXt93VP2HjX323thAO6w897Hio3eebhmSwcSv7kBa1x5gYmviwY6EuO2beWP37+9LDubc/oz8kHt7p7To6HWEzsn8cdVs+7X7plYx/OZNnCIr/z7P6ccODU496/rswXL+n+63PMvrW871cG86Yn9+eApUVXy8v+euu9fNYZfXnfrwxOazVVBQftVWT54u7P2m0PzPzZOP6AWuZNtOork1x3V5krbm92tR7bb8n0rpG94/SVSX5yQzMXXP/I32OdLrmlmbUjU9uwcE6RI1d0H4vD9i66xvNceV+ZC65v5Fef0p93Pncgj96vlnmDUxN71GutsOzY/XbuY3rtnVPh6kxdczu75D6wrtzuY2m+7NS+vO91rQBvj3ndn+85A62/z3/8vIGc/cKHn8il10F7dh/T1cNlbr136n3w6tP785antv4OzZ+YFT0dkx4969H1/O0rBzY6Iy8AwGye8UsHZZ/l81KWyU9/fGf+9R8v6V1low4/Ykk+9fnn5/yLXpMfX9yaZOPFLzuia51Xv/aofOwzZ+b7F7yqPY7f1777svzW753cXuef3//0/Mv7n569lrW6/j7/hYdt0qQdc+f1Z8kerYri8PB47rl7uGvZO373pJz7zZfk/ItaYwj+6MLX5LPnvjCvff0x7fV+9dePz3k/fXVOmXiegw9ZlAsuOSvn/fTV+dVtNJZfq7Y3OZHGVEnVo70nHj6eD/3KcD715nX5jSdvyLvOHMkn3rQu//bq4Ry1TyPH79fI2c8ZyQdfN5xPToxj95HXr8ufPLt74oxXnDSaj71xXT72xnV5xUmt1kydj/3rT9qQdzx1Qz48cfsjr1+X333Ghszp3/T9Nzqe3HxfLUWRHLOimeWLus8fj13RyLyBMqvWFlm7Yea69pz+Mq87bTTvf81wPvGm1uv5+BvX5V9eOZwXHD99LL8nHDaev3vJ+nz8ja11/+eXh/O6x83QWmvCnP4yb3nChvz3a1v765NvXpcP/PJwXn/66Ga91p3ZDjlTbTSTq+9otj9uvV1zO7vkrttQ5oa7Zw4XHon99iiyoKOF61gjWXn/xg/myvvLrrGp5g8V2acnAJnN3IHkiOXd664dKXPVHc384OrGtG5xi+YWedOT+/PJtw3lnWf275CWJPvv0f2cdzzQCm0eqcP2qWWPeTO/jr0XFZvdUmfZwq03WP6ZJ9bzw7Pn5LPvGMqLT26Fqs2yFZL83y+MdYWa+y8t8vvPbc1qPPOraSnSmmX5t5/d3YJvZ/fEI+t51wsHsqKjNd5D68t8a4bu4HMHWuHeZEAyMppcfWcz372ykbse7A7WeltnHrRn0TWZyIax5Nq7Hvn7q1fvNgz2JUfsM7UN+y8tctCeU7fHGq1A8LTD6jnzxHo7gK6iG+5pZvX6qdfe2TW3t0vujfc0t+uYe889oZ43PKm7u/9M6rVWq9C3Pm3Tvi0+aK8if/GSga4QuVkmP76+MW1IhIdz8LJaXvO4TXteAGAn13OK131z4lb3ry1y+BFL0t9fy8j68Xz/eyt7F2/UnLn9+dVfOz7Ll8/L6GirgrbXsrl501uOy+POWJEkOfnUffKqs47KwYcsTmO8mVX3DGd8rJHFiwfzkpcf0Q7PNqwfz/rh8TQnxiuZHFdveHg8450tSzocfMiivOvdp+eggxdldLSR73771tx6y0PJRLD3nr9/Yl75mqOy555z0hhvZv3weIoiWbHv/Pzqrx2fP/jjU5MkoxsaGR4ey9jEa2g0yonnHsvohm1V8dyMo7cZq+5MjtqnkaOXN1IrWuea9Vry/OPG8uh9G+mrlXlwuMj60SIDfcnx+zXy+o2EXL0ec0Ajpx8ynqIo02i2zp1OOXA8v7IZj5Ekl99Zz4bxZK/5zZx28NSxXr6omWNWtN53V99Vm7GB7Jz+Mr/3jA15zqPHsmRuaztGxooURbJsQZlXnDyaN50xtT3POGo8bzhjNAfs0Uyt1uqRNNBX5llHj2Xp/OlPMPn4Tz1yPPMGy9y/rshD64vMG2zd5w0dj11lOyTcS5LLVjYzMrEPe7vmdnbJvfPBMnetnn6AHqlaLakVUyeXjWarBcvGPLCu9QbbXKcdVs9fv2JwWhfXy25tZng0ueL2Zj56/nhXK6NMhENL5hV53ol9+fBbB/Obz9y+J5sDfd0n3w+3fzbFD65p5Kx/H8nfnDva1WqzVqQraGk2W2MPfv0XjfzZZ0fzzPe0Bsz/wPfHuia7OHDPIicdVMvXf97IM9+zPu/+wmhXt+rOiSJe9N6RzRoPsNFMFswpctje3fvhzBP6clBHq8+xRvKdK1uv66x/H8mXLhnv6j5+yF61vOSUvm2yjVtLZ9fgv3rZQA7fZyq4HB5NPvPT8Xzriun/iJ91XF/2WTS1L+5bW+bCm1rrXXf31NTz9VrymJ5wb87AVKupTIzV1/kZ7+0y23vZlK6xF9/SPRnOIcuK9t+XR+9Xy5KOsPm+tWV+fF0jx+5Xy4KhqfI7Hyzzex+fmhznW5c3uoKzndG9a8usvG9qGzu75nZ2yR0dT36xcvu+355zfF/X/l093Brn8pnvae3fX6yc+sKnViSnH17faOvXyWD+nLcO5alH19v/M5pla7zTf/929zd8jWaZOx8s8/mLxvMHn2gd1xf/40i+ePHU57ZWJEeumHqvAAC7mpnqcjOVbb5lEy3l1q4dzZ13dIyVsgnmzevPNVffn19+1VfynKf/b773nVtTlsmixYM55bHL2+vdfPND+eu/uCBPffwn87xnfTZn/9EP88D9I+nvr7Vb5f3eb30vv//b38t997bG2pkcV+8VL/piLr34nvZjpaNV38f/93l50lP2z6p71ud9/3RJ/v1fLm2v8+tvPyEnnbJPyrLM976zMi95/hfylDM+kd95+3dzy80Ppb+/lic/9YA87owV+eB/X55nPfnTufTSVUmSW295KE99/CfzrCd/Oh/878s7nnlr6Wyxt+vac36Z82/oy699bG7e+rG5ufyOetZsKPLVK/rz5nPm5i0fnZu3fmxOrr27VSE+YI9mTjpg+jncTOq15IMXDOS1/zMv//CtoTww3DpXO2r59BZ4G3PzvbXct66V4xy7Yuq5JyfSeGikyIW3zNyK4tWnjuWYFY1Wq9eb6/nNT87NL39wbv76a0O5/cFa+mrJYw8ez4n7NzKnv8zTjxrLvIEy60aLfPDHrW1/00fm5qJb+jLYN/0NMfn4I2NFPnHhQH7tY3Pz5nPm5ofX96VIcvIBjVnHCqyS2c+ctrELb2pk1Qxdc087rJ5DlrVOAJtlcuXtzWzLCTLLMhkZ2/gTjIyVMybMM+kMS/7uVQM56aCp1k1JctM9zXzmZ1NvnM9fNJ53fXYs1945dWLbaf5gkZee2pe/fOnmd1PbWrZ0vMM7Hijzb98ey82rypx7SSM/uaH7tXa26vvm5Y288l9H8u7Pj+ZbVzRywoH1PO/EvuyzuNYOgzPR2nPPbdSqcbJ77Vue2p8/fcHUTj/ugNYflkk/u7GR//O/o7l5VZmbV5V5z7lj7YArE90iTzp481ol7gzGGslFNzdz9mdG84EfzHzwj9+/lqGO9+M1dzbbodJltzYyvGFq2T6Lizzl6Nn3Q7NMRsdnevc/cpfc0sxDHUHc0vlFHjvRlfvIFd3dzm+8Z+Zu+UvnF3nGMfUsW1jkgusb+bPPjeY3PtTxwnZSl9/WbHf37+yae+ohU11y719X5uLtGCb3dsUeHU8+ccF4PnRea6zTC65v5F++OZa7O0LepfOLPO7w2d83vcokt95X5n3fGssffKI7SE+S//nBeF79vpH83VfGcuktjTz5qHqe9eh65g8V2dDx/ps/1JrwCADYnWx5XXRgcNPrLb3WrhnN5z5zbW66cXWG143l/B/enpH146nXi8xf0GroceFP78rb3/KtfPHz17fv973vrMzKlWuSJAsWbP7J4mSrvpGR8ZRlsvc+c/P23z4pf/ePT8ncef2ZO68/jzl579RqRVbeuibv+6dL2t11Lzj/jnzlSzdmdLQxLYTccWY7jrOVV8MNq2r5j/MGct+6qfr0e789mP85fyDrJyaoWD9W5Nq7a2k0W+cA8wY37TVfdls9X7289R772S313Hp/qx48UC+zdN6mPUYmxvO+4o5Wy7wD9mjmxImZcycn0rhhVS2XrJz+GZnTX7ZbJd71UC0f/enU67zstnp+cF1fxhrJ/MEyx65o5KQDG9l7QasxyaUrp7Z9/ViRj/2sP/es6WlY0vH4199Ty+cvnWo4ddlt9YyMFxnqL3Pw0u13brSt7LAzmJX3lV2B1vyhIicfXM+JB9ba3bbWbZg+mcHW1ldPli/e+G5YvriWvo73YbMss7kTHJVJblrVzHu/3gq5Ov3khkbe8F8b8iefHs0Vt0/vKjfZiuWVm9BdbHLyht7WTj+cZWKBTbHXFoZod63ubk20ak2Z8Vm+SJg7kLzlqf359NtbA97/v1cO5O3P7M9zjq9nzwVbth0zOfeSRh7/7vV5/LvX548/PZrr7upuPfSkI+t50cl92X9pkSUTXcUzEYBdd/f0P3a33tfdynPP+Vtvm//wzFZoPNPlvWdNpDZbQV892WPe7IHb/ktbY9hNvrIN493dan9xW7Ortef8oVYry9nMGSiyx1bcT0nyo2sbua1jIpx5g0W7Fdjh+0wF7hvGWy1pMxGKreloRTvQ1/o8ffrtQ/nQWwbzopNn/qZpZ9MbbB6+Ty1nHFHPEcunjtlsgea2ss+iomvc1DUjZa7uGcv0itubXV/49Nc37/NTJFkyr/Xt40yWLSzyzjP788XfHsrX3zknf/nSgbzlqf156tH1rhaFAMBuaOZq72a5/76RJMngYF8WLdq8uvnIyHjum7h/ktx5x7qsXTu9q+BjTt47f/aXZ+ScTz03X/vuy/L9C16V447fq3e1TTbZqu/Jj/tE3vy6r+WyS+5JrVbktNOX5/VvPDZHH7O0HRreestD7a66k6668r489NBoVwi509gKx3RnsfKBWjvEm7R0XplXnTKa//uC9fm3Vw/nI69flzOPG5u1LjybkZ7h7DoDxM114S19eWikyMKhMicfON6eSGN0PLnqrunBXpIculcz8wZaB+uOB4vcubr7Bdywqpa1G1pjdc8bLLPvomYG+sqMTYzz1+nO1bVpOUPn4z9630Y+NTE+4afevC5ve3JrbMHJx666zTz0W9dPb5xq4VMkOXzvIo9aPtU66s4Hy/zo2llSoEforgfLrm6w/fXpY8z12mtB0RXurVmf3PYw4/RN2jDeCnzO+dF43vKBDbnkltlPqH9wdSNv+cCG/OEnu0OmTAQNpxyyfQ7X/T3dcPdZVGT/jlY329K7XjSQ15zel+WLW82Bxxqt7ns33tPMum3caOoHV7daD3V2G54zkDz20FqWLSgy2PP/aqbWnCNjrZZoVTHZNfjPPjuaeybGfyySHLxXLb/1rP4ZJxc49ZDuoHWwL/m1p/W3g8aP//pQ9uv4TPV2u7/zwWbXH93BvuTwjq7r//W9sTzlr1qB6+PfvX5aGL6pfn7rVAu2ei05Zr9aTjqoln0WTW3bqofK/OCa1sZccH0jn79w+qzZ9Vpy6LLW/nj3S3ZcC9pNdcH1jdzYMUP3wjlFHntoLUsngrId0SV3ScfkGZlorTnTFyQbpo+VO6tzL2l1ib/45qm/lQuGirz2jL688KTuIHb/pUXe/dKBnHliX/aY3xp3cMN462/dTauaZu0CALY4Dbrj9rUpy2T+gv6cdOrevYu32K+88dj83XufnF967sE58MCFaTbKrLz1oTz4wFQouCUu/8W9+fz/Xp/1w2Pp66vlyGOWdi3fMLJ1z8t55I5d0cj/ee5IXnTCWA7dq5mh/mTVmlrueWjmMe22l0tW1nPDqtbEGkfu02xPpHHvulp+evPM4V6n0cb0c8/ZlBP1+c1x/7oit9xfm/Fy39rtk7VsSzv0FXzvqkbueWjqDG/ZoiKHTIQJk11ye0+0t9RltzZzd88kFo9aXpsxxMjESeGj9++eQOH2B1oTYsykcxy1x797fZ721+vz6veN5P3fGdvk1/KTGxr5P58dzY33dD/Hgo5JCLalm+9tdgVUey8q8pzjt32rpRed3JfHHFRvt6q66o5mXv+fI3nu34/kl9+/YdrkI9vCRTc3s67n/+NQf5F71pSbFDwM9bfCrEmNHfnXdTN864pGPvLD8a5xDQ9eVsurTpv+Ddwph9QyNL14ozpnxL7xnjIPDk89T72WPOagqfBva+ltwbbPoiInHVxvtwwu05rYp7NV6Qd+MJ53fmJDvndVI2tGpsYOzMR2nn5EPS8+Zdt/FrbU5bdNtQAe7GtNfjLZFXl7d8nNZoxb2hmglxOtpDfm5lVl/uFro7l51dSDzx8q8sKT6l1fSJx5Ql8eNdFysUxy/nWNPO/v1+f5/zCS935trOt9AgDsLrbu//+fXnBn1jw0mlqtyDOedVBe/NLumW631FOedkDmzuvPjTc8ODE232dy1su/nFtvbXXL3Rr6+osUHePTX3nFfRkebiUoBxy4IHPndZ8EHHLoosyf359Go8zaNZtwsrSNbN0jufN77MGN7LOwmeHRIh84fyCv/9Dc/M5n5uSnN9d3eEOTS29rTayxbEEzpx7UOiG54o7atBZ5k25YNdUqcfmi5rSZa/df0szcgda5xLoNRVaPFK2ux/XWsk4n7t/IgqHu+3c+/qq1tfz+/86Z8fLpizfzBHcnNPMe3k6GR1th2+QbcNHcIosnxl/bll1yL7qpu+vriiVFfvmMmQ/m6x7f39UKaWSs1eVva3jHs/rzR8+buSXQyvvKTQ4DO01O3jAZLnZeNnXShvOva3aFL/315Pkn1vPcEx4+bd8SB+/V3TruhrtbY9klyTH7do/xtq2cdlg9C1tj4baNjLW6FT/Qs0+O2Gd62HrUilpXC6U7O2Zt3VJ/c+5UaNx7+a1ztrxZ4+cuGs9lt3R3S37Co2p5+jFTx/2YfWtdE8Rsqslu95kIba+4rbtl6mF71/J7z5n5s/BIXXB9oyu4WzBU5IQDaxmcyOZGRlsT+/S65JZm/vQzo3n2347kH746ljs6uvcO9iX7Ldn817+9/fi6Ru5bO7XdB+811RV5e3fJzUTX/PWjU9uzaE6Ro3smyzjtsHr27ZipeXS89UXKw7l5VWsCns5v7g5ZVsvLTp0KYQ/cs2i3CB9vJNfeNfX3dY/5xWaH1QDAzurh6w7byje/fnN+eN5taTbLLFgwkN/6/ZPyN3//pDzlaQckSY4+Zmne8Tsn5aOfOjPPevZBvXd/WJNj+g0Pj+fuiXHvXvmaI3PIoYt71ux20EGLpoVyMzn20XvmzOcfmqE5fWk2W60Ch9eN5fJf3Jtms8xhRyzJO//41PZjnXb6irzopUdkaKgv99+3Puf/8Pbeh8zixYN58lP37y3eRnbcsd/e+utliiIZbyar17fqz4cva41zt7ndcre2y26r5751rXOuRXPKjU6kkYmx8q6/p9Xi8MA9mnnT40fbAd/x+zXy9KPGM9jXep2tloH1PDTSmkn35AMbecLERBhL55V53nFjWTin+32wfqzIzffVUiY5ZM9G3nTG1OMnyUtOHMu7ztw6rV93tB186Fvh3rqJ1kLFRKCQbdQld9LHzh/L1R0t72pF8vRj6/nX1w3miUe2/miedlg9//jawTzj2KmWZGWSn69s5tM/3cz2n7OY01/kOSfUc86vDeVtz+hvD+J+1Ipa3v2SgRy5vPvw3PbA9jkhv+D6Rn56Q3frvUVzi/z2Lw3kL186kNMmJiaYO5A8+/h6/uplA/nAmwc3Oq7aphiod8+ievS+RU48sJYTD6zlbc/oz94d3Sl7rR1JNnRMjDLUnzzusPpmhUXPOLaetz29v2sm1fFmcsu9rcft7OaZJCcfXM87z2x1XT1oryJ/8ZKBrsBiZCy5tKMb9tbYxm3tUz8Z7+qWvHBOkZec0tfexsccVOuaAGXNSJk//9zMoeOFN0299mLieE4+zpcuGe9qiVkrkmc8up73/cpgXnpKX5ZNjPP4jGOnJoF4JHonl+js/nvX6ma+/vOpz/Lrn9iXj/1692fxklu6x+6riitub3a1/J38XO2ILrmZGAPx1o6gdaAveckpfXnZqa331hOPrOctT+nr+uzdu2bTWxie86PxrtdVK5KnHFVv/z0f6p963L56ctz+rdbaTzyynl95Qr8x9wBgl7b96nJ/9zc/y3e/fWsajTIDA/U8+an756//7om54JKz8oFznp1XvfaoLF8xL7Xa5p833Tsx++0xx+6Zr3zrJfnuj16Zt/zGCXlo9fQv+a+84r6sWdP6JvPRx++Vr3zrJfnfL72wPaPupGc9++B854evyHfPf2X+80O/lONPXJYkufrK+/Ppj1+TJDnng1fkhusfTFEUedZzDs7Xv/PSfPdHr8w//PNTcuBBCzO8bixf+Oz1ufCnd7Uf96471qUskyV7DOXdf/34fPP7L8+b3npce/k20z7UU8d8+x397eeBdUXGm8nCoTK/+ZQN+dCvDOfPzlyf/r6y63x1R7hzda09sUaS3LF65ok0On3h5/259f5Wd94nHDae/3rtcD78K8P5o18ayb6Lm1k/VuTbV/fn8jvque6eWi6+tS+NZrJkbpnfePKGfPhXhvNPrxjOwUubeXB4er3+K5f3544HWzP5PvPosfznWcP50K8M55zXr8srTh7Nop7WflW1+X9VtrIfXduY1rppS7vkds5Y23t571mDGR5NPvTD8a5x82pFq+vaX72se6bbyeS7THLD3c380zce4UbNopgY6P2Vp/XlP984mB+ePSf/+cbBPOXoevo7x/kbKXPexNhg28N/fHcsl3S04spEGPXko+r5u1e19tE33jknf/L8gTzxyHrXSfkjtfL+7rGvDllWyz//8mD++ZcHc+z+Gx8/4Nb7mlnTEbjXiuTpx7QmF9nYRCJnnlhvvzfe9aKBHLRXazyuSbesauarEwHQV38+nls6uv8N9CXPO7Ev57x1KOe8dShP7Thm5USw9MWLp17QI93G7emim5s575pGV7B75IpaXvv41jd0Jx1cz0DHFy/3rpk9hL/mzu4wdNnCWp58VGsHXXRzMx/+4XhXd8hiogXfb/1Sfz77jqH2MZkM+h6Jzq65taI1hmIm/sZcdmv335h6rcjyxd2fxXPeOpRTO8a6XD+aXNMxecim2mtBkX98besxey9/eObM6e4juU+nX6xsDV7baVt2ye38LHVeJt/b37y80TXe6Z4LirzjWf35xjvn5K9eNpDD95ka/mB0PPn2FY1Zhz+YybmXdL+flsybCqZvvW/qy4piIqQ+561D+auXDeSAPYsd3n0BANg1DK8by5/8wXl5z1/+JNdefX9GRqYqY41GmfvvG8n3vrsyF104FYRtqvf/y6W59OJ7Mj7ezNBQX8bHm/nCZ6/P7bev7V01w+vG8vFzrsqqe1ot/AYHW+sPr+vuOjs4WM/cef2ZM6cvZVnm3nvX5xMfvSpve+u3ctONq5MkN924Or/7m9/N179yUx5aPZq+/nrmzG093pVX3Je//euf5b/e//Oux/3YR67ML36+Ko1Gmf6Bemr1Iut6nptH7os/78/3ru3L8GiR/nqrJd+Vd9ZzwY2zt5DbniYn1hhrtGa0fTi3PVDL33x9KD+8vi9rN7TmOxjqb3XFvWFVLf/9o4GubrP//aOBfOXy/qxe32rBN9BX5t61tXzkJwNZt2H6ueN199Tyvu8P5pKV9awfLdLf15pFt5zotvv5yx6+ZWsVFGf8RUdfw23kWcfV87vPnupyd+FNza5uhL/3nP48/zF97dYla0bK/MNXx/LNy1uhQe/9h0eTv//qaL7+85mXb0zncx+zby3veFZ/jtq3e0y9Xo1mKyR479dHpw3u3/vcvdu2MX945kDOPPHh3+xrN5T51AXj+cAPtk6LwU21bGGRP3huf045pP6wzXtXrSnzl58fzUU3N6e9rt7j/aYn9+c1p/e1g7CbV5U5699HWoPev2Rgxm6fk0HsZBfpmfbz7zy7Py88aep9NKlz285569Cs4yv2uu3+Mu/9+lguuH7qOU47rJ7ffGZ/9l/aHQJ2KpNcdkszf/fV6e+XTdnGbWlT3q8H7dU6DgfvNXUc7nmozKd/Mp6Xn9aXvSYm0yiTfOXSRv76SzMH3mccUc8fnjnVErJM8u3LG/mzz02t/4RH1fMbT+/PvnvMvj87jY4nn/zJeN7/nU2vHLz3rMGcfHD3e6r3b0xmeF/2ajSTb/yikf/7xZlfb6eHe6xO517SyN+cO/qI7tP52nqP5TH71vLnLxnomkDk/Osa+YNPTG1/777p/axuzKZ+ljrf2294Yl9eflpf5m9k/NAN462Wne/9Wvcx7n2+yX3Q6f+8cCBP72htPTqenHP+eC67pZE/ecH0oLic6Ka8aE7RniRme30WAYBtoaPu3b7autL+WU7emrzeTNkskzTT/NJXJ+9EBdSe9+xWe6VakdbZRJG0xwwsWt/qTiyZuNH+1XEFdgnTU5Qd4KKbm10tOrZll9xOV9zezK9+YEP+9stj+cVtzazdMDWAfrNMVq8v89Mbmzn7f0fzW+dsmBbUbKlP/GQsn7twPLfeV2ZkrLvJ8IbxVqDyrSsa+d2Pjm73YC8Tgc7vfXw0Z//vaH56YzOrh7sHxS8nAoWbV5X53lWb18pmJivvK/O3Xx7LhTdNtTgaHW8dp/ecOzptWute//DVsXzygvHcv7Z7IoTNMdZojQ/2pUvG85sf2dAV7GWiy/Kb/msk5/xoPHc+WHaN3bhhPLlpVTP/+s2xvO3DM79ftsY2bmszjWG218IiZ57Y3W1yw1hy7UZasf3o2u4urUWSI5bXuiY6OO+aRl75ryNTn8GRsqsVVbNM1m1obdPnLhzPG/6rNTnN5uicXGLSnQ+UXcFeJloaXn1H9zaUE+H6L25r5q++NLpJwd7O4orbm7n+7qnjs6O65Hb6wA/G87sfHc13r2xk9frp+/nCm5r540+NTgv2NtX//mw8d6+eegMN9CXPPLae+9aVec+5Y7n6zmb7b9j60dbYhP/9/fGd9rMIAGxl/ukDu6jt0nIPAAAAtq2OU9v21daVMsnUOD+llnu7AC33YMpO0XIPAAAAANh8wj0AAAAAqCjhHgAAAABUlHAPAAAAACpKuAcAAAAAFSXcAwAAYNdngtTdjAPO7kO4BwAAAAAVJdwDAACAQkuvypjpWM1QBLsL4R4AAAC7qM1IfObM6S1hZ9VxrFpHuPM4T13fjKMPlSbcAwAAYBewOVFOx7oTV4vFi6fK2Km1j9XmHHLYhQn3AAAA2E1NpkNFir336lnGzqr7WEn4QLgHAADA7qto/Sj3W5HMndu7lJ3N3Lkp910u1IMOwj0AAAB2Yx1jtD3q8K4l7HyKRx0+84QaM3S1ht2FcA8AAIDdXpEkK/ZJccjBvYvYSRSHHNw6Rq1bmxjibdJKUGnCPQAAAHYtM+Y5U+PrTf0qulctkhx1uIBvJ1QcclBy1GE9x3bGAw27HeEeAAAAu7SNR0CTLcCKpKi1fh91aIrjH20Mvp3B3LmtY3HUYRNHcuJSTItmN24zVoWqKc74i+GytxAAAACqaeIUt32m27rS/ll2rlMmKVOmTJplkmbKspmUzZTNZsqUqd1xT3LPfSkffDAZGZm4D9tMUSRDQykWL06WLU1zxV4pUktRqyVFLcVkAFsUHdfTEfxNPEb71mRZ+wkmr8AuQ7gHAADALqQ33Gvd2Hi4l6Rstm6XzZTlRNDXbHb8nlzWnLhrs/uxpj1v+xk30+bfY/vavHCse+3OcfImr0y0witaHQuLojYRzk0EepkM9SbCvMnlRTHRcq91vesxi842fcI9dn3CPQAAAHYhvSFb60Z3uDe5wlTY1wrrJtaabL1XToZ6MwR7nY/Xvj1R1vGrs3xa0S5qWrDWdbWzrDZxs1VWpHW7FfTVJgYSm2itNxHwtcO8ota+V1e4N/F407ZhpueHXYRwDwAAgF1IxyluV5A3meNNFk6GcK2Qr7VssvXeZFkz5UR33akQr7V8KqprBXzTo7ue272Ld3XTMrTugqIjiJu63RneFRPBXjER6k212Esmy2bqktt+tO7nbF+dtmFQecI9AAAAdiEPE+5NhHG94V7rameQ17pelkmZ7tBv5kCvt1XgTGYr39VsLECb3jW3O+jrDPeK1NrBXtqB31S3283tkjvtBuwSzJYLAADALm6mQKcz+JkKhqaCpEy1HMvEeG+1WlLUW91Ja0WKWscEDxNjw012GW3NvNt5mVhnt7j0vNb2WHnd+6UoJsbVq3Xss4l9WqRIbXLdouPYtI9WZ0g4off2NA+7AlSSlnsAAADsYiZb5U0va/8sO1aY1npvcp2JsfTKsrs8k634Jm9PPuRMp9czle1OpgdqUy31Wrfavye72iatbrfFZHkr1JtcZyrc67hv604dtzqed9pzwa5l8hMCAAAAu5auLGemYGcyFOq83hEYTbbKK4oUtYmwabLLaG/rvGKixdnkJa1LUp+hZdvudSkmW+lNXKZa4dWm9nNtcr9mYl9PrDNrsDdRPKnzUM5QDrsyLfcAAADYxXSc5va03pu62dN6r+N269dEC7329al1u1vxTfzueqxOM5XtTmZJ1zpa6XX+bmWrMwWtPZNkTGu11/ox9Wy9ad8s2wG7gMkIHAAAAHYRHUFOT6YzPeLpCYkmA6J2+DS9++fUDK6Tl56x9rpa9Wm5l8w27t7UPmzt047jMGOwN1XUZeJ+U8W9K8CurdZbAAAAANU3U8AzEc5N/uxdpSNQauVF3QFTV+DXDqR6g76OSzHxHJP33Z0vvfuma/9N7OOZ9nPv7LftdWf63XO9sxh2YcI9AAAAdm1dIc9MQVBnIDRVViQTwd3kOp3hU0dZT9C30cBvN7z07pcZ98+0/ZqOYG9ynY5l7XW6fs1i40uh6oy5BwAAwC5scty86WXtn+1lHSv1jrPXVTZV3rq6sdPqjS3bHWwkWGuHeeler7e1XvvXTMHeDOv2XN3oNsAuQMs9AAAAdn0zhD3tn+1l3QHTVKDU0YpvhlZ77VZnM166x5bbrS6TM+POdulaP8lkq76pgzCxuGOd9rod13t1Fc+yDuxChHsAAADsHmYIfdo/28t6gqSeMK+VNU10Ky0m7zd5n5kumR5q7S6Xrv0506W1b9pddSfu0V5eTF7vLJ/81brefR/YPQn3AAAA2IVtLPTpDIgmQ6nuZa2rveWty+TP7rCv43HaIdRufGlfndo3XWPvTe3knvtM3u5cNvmrdb37vtOv9tyAXZYx9wAAANgNdI6R11k+VTBV3DkOX/eSrtu9xdMLmNEMoVtHaNdtY6Fezy3BHrspLfcAAADYDcwWAk0VTBV3trybXNJ5p4nbva302q3NXDZ6aV/t2Icppu/fybKi/aNrra5bXQu614JdnXAPAACA3cRsYdBUwVSkNHFtli653Q/QUTate+7mXmZ4mp3u0rvNm3lpP1CnnvLO52p3ge5dt+PmzDdgtyDcAwAAYDcyWyg0WdAqnBYmFUVvYcdanZct1ft4O+NlS/U+Xsdjtm9OlXc/Y8/zd93cGtsG1VOUZWlQAAAAAHYbD3cavKXLeWSKYvZwbmPLJm3KOrArEu4BAACw29mUU+FNWafT5q6/O9vUIG5rrwe7IuEeAAAAu6XNOR3enHXZcpsT1m3OurArEu4BAACw23qkp8SP9H7M7JEEdI/kPrArEu4BAACw29vap8Zb+/GqbFuEcNviMaGqhHsAAADQwWnyzkuoB9MJ9wAAAGAGTpd3DgI92DjhHgAAAGyE0+YdQ6gHm0a4BwAAAJvJqfTWJ8yDR0a4BwAAADtQlU/LBXKw4wn3AAAAAKCiar0FAAAAAEA1CPcAAAAAoKKEewAAAABQUcI9AAAAAKgo4R4AAAAAVJRwDwAAAAAqSrgHAAAAABUl3AMAAACAihLuAQAAAEBFCfcAAAAAoKKEewAAAABQUcI9AAAAAKgo4R4AAAAAVJRwDwAAAAAqSrgHAAAAABUl3AMAAACAihLuAQAAAEBFCfcAAAAAoKKEewAAAABQUUVZlmVv4dY0OjbeWwQAAAAAu6SB/r7eom1Kyz0AAAAAqCjhHgAAAABUlHAPAAAAACpKuAcAAAAAFSXcAwAAAICKEu4BAAAAQEUJ9wAAAACgooR7AAAAAFBRwj0AAAAAqCjhHgAAAABUVFGWZdlbuDWNjo33Fm0/2/alAQBsmaLoLakO9SwAYGe2A+tZA/19vUXbVPXDvVk2f+ZSAICdy6zVzh1YIW1TzwIAKmzW2tQ2rmcJ9x5Oz+Zu040HANhBplU5t3ElNFHPAgB2D9NqVVu5nrW9w71qjLlXlu1LOVHRLJOMNZPxRu/KAADVtnbDVH1n8tJZH9qqZqtnlY2MlVv5S1oAgB1sTWN4+9WztpOdv+XeREVz0v3rkguuTy65tZkb7ilzy73bdPMBALa7/nqydEGRR+9X5Pj9aznxwDL7LJr6RrnIVvqGuaeede/Y6nx39WX56Zqrc/Xwytyw/s6OpQAA1TdQ9GXZwOI8ZsFhOWXBkTltwVHZd2Bpe/nWqGdt75Z7O2+4N7FZkxvXaCZf+Xny9V80c9Udza5VAQB2ZY/ev5anH13L045O5gy0ytpVzkdS+eytZ5WNfOa+8/L5e8/PZWtv7FoVAGBXdtKCw/O8paflzD1Oy9zaYLKl9Szh3vTKZpI8OJx88idlPvVTfXABgN3Xyx9bz2tPLzJ3IuDL5lY+Z6hn3T++Jv9911fzP3d9o6MUAGD38vrlz8qv7/O8zKsPtcs2q57VYXuHezvXmHszVDgbzeRTPxXsAQB86ieNfOT8MutHp8ra9aaH+752pnpW2cgH7v66YA8A2O39z51fz/vu+lKGmxvaZZtcz9rBdqpwr+ypcCbJ13+RfPIngj0AgEwEfN++srtspjpUr5nW+ex9P8oH7vxaTykAwO7pf+78es69/4KuspnqUDubnSPcm2VGktvuL/OVnxtfDwCg07eubOau1b2ls9SpZipLcvPI3fnsvT/sLQYA2K196b4Lcvvofb3Fs9apdgY7PtybmKVtpt1z2crC5BkAAD1+sbKZS27pLe34Znmy4rmRetbP1l5j8gwAgB4XrbkuF6y5qrd4ej1rJ7Ljw71Zlbni9p1vhwEA7AwuXdmcJbbbFGUuWXt9byEAAEl+uubqLahnbX87Ntyb+DZ5ujJlmVx9p1Z7AAAzufy2Vn1ppopnq7g5w5K061m/WHdT7wIAAJJcsub6h6lnTS/fkXZcuDdLsFeWrQrn+HiZ+9f1LgUAIEnuW9Ma96U1/EtvrapMs5xe8ZysZ401x3Pv2ENdywAAaLln9MGN1LN2voBvx4R7s+yAzh1Wrydr1s+8HgDA7m6s0f1d8lQ9qqf+NFHeWc/qK+pZPe5bVACAmYyW47PUs3rMVr6d7Zhwb3q1s1tZzr7jAABIJiuaM9SZJoumL1HPAgDYFLPVsybNvmT72/7h3izdcTt3S3MjOw8AgCnd9abJcfg6S7q/VVbPAgDYNL31rF699awdZfuHe7Nof8O8E+wUAIAqmaw/zVaNmlo+ywoAAMzo4epZO4PtG+7N0mqvXdHs2FMqnwAAG9dVX5robttbhyon619ls6sMAIDZ9dazppVNLmot6C3errZfuDdLsNfZrHFyh7R21sxrAwAwaaLeVJYP222kNXtuUz0LAGCTTNWzumtO0+tROzrg237h3ixme+2zlQMA0DJbfWmyfKZvl7OR+wEA0DJbfWm28h1pB4d7HXtkYu9Mfus8W2UUAICWyfpSu9VeV/1p+vVmUz0LAGBTbHo9a8fbPuHetCaM7eKp6x07ToUTAGDTlB1j7XXWoCaDvNY6E+slKZtTY+8BADC7zpyqK9qbIbYqZ1uwHWyfcO8REPABAGzcI60vPdL7AQDsLqpUX9qB4V7nt8kzX99Z1YoyA/Vm5vY3smBwPIuGxrJ4zliWTFwWzxnLoqGxLBgcz9z+RgbqzdSKnf91AQDVNHtdqnv23CrUs+qpZSgDmZ85WZR52SMLsjQLs2cWZc8sytIszB5ZkEWZl/mZk6EMpL4jq7QAwC5t9rrUzlOvKsptXMsbHRvPTN1yZ9o5ZVmm2WzN4laWZZ7z3nrHPXasuf2NHLp0XY7Ze032XzSc/nqZWpFNOJhFmmUy1iiycvXcXHH3gtxw37wMj+08rw0AqKav/FYjRVEkSWq1Wvv6TCbrWZP1shN/8Ru9q+ww8zMnRxUH5OQcnkOyPINFf2opknL215MkKco0U2ZDOZYbc2cuzHW5qrw1a7O+d00AgM1yyaP/NUVRpCiKrnpWZ32rt+5VtAoz0N/XVb6t7fhwr72sTLM5NWZMs9nMc/9x++6Mmew9f0NOO+D+nLjv6tZB2grKJJfevig/vnWP3L12sHcxAMAm+fI7xlOrtVqttSqeRataWZZJT2Vz8gvUlGWaZZnHXP62ruU7wr7ZM08vTszpxTFbtZ51fnlFvlVekttzb+9iAIBNcvGx/9IO9TrrWZMBXuvXbhTuTX+Ksj3GYGervc7Ljg735g+M5xmHr8oJK1b3LtqqLr1jUb553V5ZO7rjXisAUE1ffsd4u8LZeSnLsuN3K+vrrWvtyHBvYeblxcUZOb04unfRVnV+eWU+W/4wD2W4dxEAwEb1hnuTl3SEeq1fPQHfLhnujY5Na7W3sXCvOTGD244M905YsTrPPfLuDNRb2zLWqOWB9f25d91A7nhoKPevH8j6sVoaD9dVZEK9KDOnv5k95oxmxcKR7DlvNEvmjKV/4vFHG7V8+eq9c+kdi3rvCgAwq8lwLx3dcjcW7k3Ws8pmM4+54u09j7Z9PK44Oq8unpLB9CdJRjOWVXkod5f355bck3vyYNaVI2mmOUMdsluRpJZa5hVDWZbFOTDLsnexR/bKogykVY/ckLF8rPxuflxe2Xt3AIBZTYZ76aln5eHCvSQDA616zvayQ8K9zqecKdybvL4jwr1nHXFPTj/w/iRJo1nk5gfm5op7FuTWB+bk/uGBTQ70ZlMvyuwxdywHLFmfY5Y9lIOWDKdea+2D82/ZI1+/dlnvXQAAZvTld4wnExXM3jH3JsO9SZ31rJTlDgn3XlY8Mc8oHpMkGU8j15a356Jcl+vK27MqD6aRVvj4SNVTy7IszmHFvjkph+eIYt/0pTXO8TfLi/Pp8ge9dwEAmNHFx/5LO9CbLdzrvZ7dMtzrGIuvN9xrNps585+2386oFWVeftwdOWrZmiTJyHgt5920NJfduShrNmybkHHB4HiOX746Tzj4vgz1tSqzV92zIJ/6+Yo0tzBEBAB2fef+5ti0SuekYmL8uUldX6I2mznpyt/sWLpt1VPLrxbPyYnFYUmS4WzI18qf5cflVVmddb2rbxWLMy+nFUfll4pTMjetMY4vKa/Pf5Rf2eIQEQDY9V10zD+361fTwr20m+3tFOFeq33hDteO+HrKt49aUeZ1J61sB3vrx2r5/BXL88Obl26zYC9J1mzoyw9vXprPX7E868dah+KoZWvyupNWplbsmH0BAFTVjq1PzaaWIr9de3FHsDeSD5XfzNfKC7dZsJckD2ZdvlZemA+V38xwOZIkObE4LL9de3FrJl4AgE22c9azJu3QcG+q1V737+3teUfdlYOWtAZafmB9fz79i31z1T0LelfbZq66Z0E+/Yt988D6VrJ70JLhPO+ou3pXAwCYVW99qtkx9Enn7+3ttcXTc0T2S5Lcm9X5j/IruaS8vne1babVWu+ruTetSdKOyH55bfH03tUAAGbVW8/aMbWq2e3QcG8m27vieezeD+WEFQ8lSdaP1fP9G5fmxvvn9a62zd14/7x8/8alGR5rjQtzwoqHcuw+re0CANiYTa0/bep6W8spOSKnFUclSdZlJF9u/iRXlSt7V9vmrsqt+XLzJ1mbVgu+04qjckpxRO9qAADTbO/60yOxzcO96btgeknLVPn22nFz+xt55hGrUitaY/9de++8XHH3wh3SgrAskyvuXpjr752fcqKr8DMPvydz+xu9qwIAJBN1pu5602yVmO561mxrbU3zMycvqT0x9dRSpswvyptyYa7L9nn2bmXKXJjrckV5c8qUqaeWlxRPyPzM6V0VAKBtc+tZ029tH9s83NtU0wK1aQVb34krVmfR0Fgy0WrvotsWZ7Sx43bJaKOWC29blPUTrfcWDY3nxBWtLiQAANP01Jdmqz5N/+K09/bWd3pxdPbI/GRiAo3zysuzIa16146wIWP5QfmLDGdDkmSPLMjpxdG9qwEAtGxiPWtnsOOSrIexPfbZo5dPBWe3PjAnK1fP7Vq+I6xcPTe3PjD1LXLnNgIAdHqk9aXtUTk9tXhU+/p15e25MXd2Ld8Rbsydua68vX27cxsBADpth+rSVrPThnvb2uKhsew9f7R9+8LbF6c5ceQOXjKclx93e07d/4H015tTd9rK+uvNnLr/A3n5cbfn4IkJPZplctHti9vr7D1/NIuGxjvuBQCwc1uahdk3e7Zvn1denkZadapHZb+8pXhunlIcn8G0JhPbFgbTn6cUx+ctxXPzqIkJPRpp5rzy8vY6+2bP7JGFHfcCAKienSDc2zFZ6IFLhlMrWs891qjlhvtak2gM9jXz8uNvzzF7r8kzD1+VZR0B4Na2bP5onnn4qhyz95q8/PjbM9jXqvRef9/cjE10D64VZQ5esq7nngAAG7Nj6leTjsh+qU9UM0czlitzS5JkTgbyltpzc1JxeF5cPD7Li6U999x6VhRL8+Li8TmpODxvqT03czKQJLmyvCWjE92D66m1gz8AgE2zY+tZM9nu4d726AayKfZZ0BpvJUnuXjuYZlkkE5Ns9NVaG9lfb2aovu0mtBiqN9otA/tqZXvyjGZZy91rWxXQJNm7Y1sBAGYzfWy9llmKt5n9iqlWe7eV97Vb7c3LUPrTl0y0rJtTTtV3trahcqDdMrA/fZmXoSRJo2jmttzbXm+/Yq/2dQCAzbW961kz2e7h3s5iciKNJHlwfauSOZuBepnDlzVy+qHjeeqRY3nqUY/wcuRYTj90PIcva6S/b+NHf/XIVDeVzm0FANjZTU6kkST356GOJa0vUzsNFP05evCgPG3eY3LmgsfleQtOf0SXMxc8Lk+b95gcPXhQBoqZuvtOPff95Zr29SUd2woAUEVFOdtXvFvJhtHuYKrz6VrXy5Rl63pZlmk2m+3fz/vnbfdt7lknrszhe7a6u15yx6J8/orlSZIlc8by64+7KQP1ZoqiyK1rl+dRK/oyf6hMvZYUE115H6myLNJoJms3FLn69rEcOP+ulGWZ0UYt7/vxwXlgfasy+sJj7mzPlHvdvfNyziX79zwSALC7++LbNqRWq6UoitRqre9si6JIUbS+RS6Kol3HStJVzzrlqnf0PNrW85vFC3NscVCS5EflFflQ+c0kyZ5ZlHfVzspg+lMURa6Zd0eOXXBIFtbmpq+opzZD+Lc5mikzXjaypjmcXzx0Qx41vG/KssyGjOXPm+fk3rTqVq8rnpEzimOSJJeXN+efys/3PBIAsLu78Oh/6qpntepYrXpW0ro+qfN6kgwOzPRF47az48K9spzopbzjw72Lb1+UL1zZHe7NH6pnyeJFmTPU6sKxrawfGckDD67O2pFGV7j3gqPvzGP23Tbh3pue3J/XnN6X/nrvklbP8ZHR5PYHmvnazxv5xAUbn8zjz140kKcdW29XxZtl8sWLx/N3X3n41oYnHljLi07uywkH1rJgqGhvT5lk/Whyz+oyP7mxkX/+xsM/1jlvHcpBe818QtAskzUjZa65s8wnLxjPT27YOl2tly0s8qKT+/K4w2pplskb/lP3aQC2r4cN9yb+r+7YcO/yfKj8VtIR7i3on7td61lrxoZ7wr2n54zi2GQbhHu/fcCL85Z9n5v+otUz5PzVV+a1V7ynd7VpDpu7b964/Fk5Y/Ex2at/cQZqrfuPNEezcmRVPrfqRznnrm9nXWOk6369z9epTJn1jQ25ZeSefH7V+fmvO77au0qX9x7xazlzz8emmKjZNVPmE3d9N2ff+KHeVTfqrw99Q16+95N6i5NHsE2bal59KK/c+8l59tJTs7hvXs6+8UP58eore1cDgE32sOFekokbOzzc2+HdcrdttPjIDA4MZM+le2zzCmeSzBkayp5L98jgwLYLMjdHkWTOQHLY3rX8+tP7855XzL5d+y8tcuSK7u/Ya0Vy9L61zJ39blm2sMhfvnQg//CawTz16Hr2mDcV7GViG+YOJAftVeSxh8yQQG6mWpEsmlPk1ENq+fMX9+eFJ02v/G6u4w+o5d9fP5jXntGXw/auZaA+c7AIADvC1HepO19Fa3euZ83mdw54ST7z6LPz8r2flH0H92wHe0kyVBvI4XP3ze8f+LL876P/Tx676Miu+25MkSJz60M5at4B+YMDX57/OPK3eldpO3jOPjlu/sHtYC9JailywoJDM6++9Y5V7zb93eG/2rvKI/LpR5+dPz7oVTlxwaGZWx/sXQwAW81OWL3a8eHezmbhnCJ77rE4A/3dKet4o5FLr7k5//Hpb+U/Pv2tXHTFjRkbf/gWYGPjjVx0xY3t+116zc0Zb3Tfb6C/P3vusTgL5+xcAVGtSB5zUD0vOnnmMOyJj6pnr4XTt3nfJbU8+aiZQ7mD9iryly8byJOOqs/YcnBbmz9U5PknbvkT99XaAT0AsIkW98/PnkuWbP961pIlWdy/c46t97sHvDRvWvHsLKjP6V3UpUiRw+fum7897M150pLjehc/rHpRy+MWHZWz9nla76IkyTP2eEz2HljSW5wDhpbll5ae0lu8VdSLWp6y5IQ8Z+mpvYs221Q/EgDY/Qj3OtSK5KlHNTJ3sDvMGl4/knf966fzhj/9t/zLx7+Wf/n41/LGd/1bzv7nT2T1muF2F5fOS7PZzOo1w/k///KJvPFdU/d7w5/+W971r5/OuvXdXSrmDvblqUc1UtsB9ZILb2rm8e9en2e+Z30+8P2xrN0wFUPPGUgetc/Mb5PjD6hlclc9sK7MyETv2bmDyamztLj7zWcO5KiO1n5lkuvvbubvvzKWZ75nfR7/7vV5839vyD9/YywX39zM8OjmR+LDo8m7vzCax797fd7+4Q255JZmmh0Ps2R+kZMOmvk1AQDbRj21nLnw9Mwb6A6xtkc9a97AnJy54HGp72RV3zP3PC2v3uepGay1ws4yZW4duSd/cdM5Oe4nb8mzLv3j/O8953V1xd13cM+8acWzOx6l2/mrr8yh578ux/3kLfnHlZ/Lmsb69rK59aEcM+/ArvUnnbrwyAzVWi0c7xt7KMON1nAj8+pDecLiVhfmR+pTd38/h57/upxx4W/no3d9p/3YSTKvPphHzduva30AYPPsXDWc7WisUcvoeOsy3mxFTfvv0czheze6WmRdfdPt+ZWz/y1f+t6FXd8EN5tlvnLeJXnGm9+dt//VB/L/feTL+eAXvpcPfuF7+f8+8uW8/a8+kGf+6rvz5R9ckmZHsjTeaORL37swrz/733L1Tbe3y4siOXzvRvbfo9lar1m0t2+ssX0O0/Bo8oEfjOcn17e2YdKyRdMTx5MOquXwjtDvhnvKPLCu9TqLJEcsr2X/pd33e9HJfXn0flPB3ngzOfeS8fzKf2zI5y4az/Boq/yqO5r55E/G85sf2ZBf/cCWjWN3yS3NfO3n49nQMWzf2pEyV93R/RrPPLGeD7x5MN/6wzn54dmty3f/eE4+8tbBvPK07rD3nLcO5R9fO5i9Fky9voP2Ktr3+8Mzd+6uPwCwTZVFxhr1qXpWo/V/9OCB5Tlm8KCubp/brZ6VIscMHZyDB5YnKTLe6OuoZ9WTcnpdZ3t44V6nZ3HfvPbta4Zvy5uvfm8+dOc3s64xkuuHb88fXP9f+dCd38yG5lRl5oT5h8zaAm/SusZI/mnl5/ODB37eVb58cGnX7SR53KKjc/S8A9q3rx5emfvHWzMKFylyzLwDc/CcfTru8cjcNXp/3nPLJ3Pn6P3tsg3Nsdw6sqprvRMXHJr/POq3c9Gp78v1p38wN5z+oVz7uP/Jj0/+x/zVoW/IPgN7tNf9yDHvzA2nfyiHzd23Xbb3wJKcM1H+kWPe2S4HgF3V9kmNdiLjzSJrR/ryreuW5aMX75ePXrxfzrtxz6zbUM+KRc3sNX8q9Fl513352//5Yq6+capy2GtkdCznXXx1Pvj57+X/+/CX8/99+Mv54Oe/l/MuvjrrOxOlHlffeHv+9n++mJV33dcu22t+MysWNbNuQ1/Ou3HP9vZ967plWTvS1w4ht7U5HdlUmeSuB7uDsCQ59dB6lsxrbc9YI7n8tmZuuGdqvWULi2mt9x57aK3rsa+6vblJk2VsidMOq+fME/oyNPG8o+PJd69qtoPEuQPJu18ykN9/zkCO2KeWoY5eQv315OC9WmMP/r9XDmx0HEEAIMnavVNc9cJ875IT2vWYn1xyaoprn50DiwOzT99UKLO961n79O2RA4sDUlz77PzkklPb2/e9S05IcdULk7V7dz3GttYbqK1vjuYzd5+X64en749/v/3c3LD+jvbtOfXBHDu/NWHJw5nbMV5emTK3b7i3a3mSPGHxsVnavzBJMlaO55I11+fqdSvby/cZ2GOLW+9lYtKQPzno1dlvcM9kYnsuWXND/vee89rr/Oq+z8l/H/W7eeqSE7K4b147DK4XtSwbWJxX7P2kfPTYP3xEXZMBYFe1W4V7zTJZN9KXdRv6cuVdC/KTW/fIT27dI9etmp8NY31ZPLfIwEQjrUajma//6NJcevXNvQ+z1Vx69c35+o8uTaPRCsUG+pLFc5MNY/Vct2p+e/uuvGtB1m3oy7qRvq7upVvbsoVF/uC5/Tn54KlQbs36MhffPD3cO3a/Wvom3j0PDpe55OZGrritmdGJyXWH+pNTDpl6e80dSPbfY+r2WCO56OapkG1rmjuQnP2Cgfzw7Dn5u1cN5NH7t573/rVl/uO7Y/nA96dOBt7wpP484ch66hv5JNSKVkj4jmdJ9wBgVmNzU1z1whTXnplrbtm/XY+58ZZD0nftC7Li/idnsGh9i7Yj6lmDRX9W3P/k9F37/Nx4yyHt7bvmlv1TXHtmK+Abm9v7MNvM4XNXZEF96vnuG3soF625tmudSesaI7l87dS+KlJk34mAbDb7DOyR/3vo63P6oqPbZavHh/Pj1Vd1rZckj1lwWPqKVv3v/rE1uWD11bl07fXt1oJz64M5Y9EjD/devveTcsPpH8rXT/irvGLvJ2Ww1p/1zdF8cdUF+Y1r/rm93jP3OClvWvHsLOpozTiTg4b2zu8f8LKt0poQAHYFG4k0dj1lWWR0fOax4IokQ/1Tydm9Dz6U8y+9ZpMGc36kxsYbOf/Sa3Lvgw+1y4b6W9syk9HxWspt0G3k5INr+eHZc/LZdwzl+Y/paweco+PJ137eyLeu6N4HTzm6noP3mtqOOx4oc9HNzVx8czP3T3TNTVoz7h6zb+stdtSKWuZ2TFw21khW3j8VGr73rMF2t9bey9bo5lqWrVaIey0s2i3wjlpRy5OOrLdDymaZ/OCaRs7695Gc9e8j+drPGxmbeOm1Ijnp4NbrOevfR/KOj2zIqjVTr/XmVWUe/+7WmIF/c+42SCwBYGc3NjfF3cclzel1rXpzMAvGplrG7ah61oKxfVJvzjCTarOe4u5Hb9dwb2n/wvTXpvbVSGNDfr72pq51Ot0z9mDGyolvUZMs61/UtXzS6YuOzg2nfyg/Ovn/yyv3fnJ7PL8NzbF8btUPc+69F3St/5ylp+bwuVNj3t06ck9+vPrKXLD6qtw7trpdftS8/XPigkPbt7dEmTKNspFFfXNzREd32pcse0K7BWGS3LD+zvza1f+U437ylvz1zZ/IfWNTx/KQOcvzS0tPzmuveE8OPf91XS0e7x59IGdNlL/2ive0ywFgV7VbhXuZ6GY6oyJdrbcefGg41996V+cayaKFqZ1yUorjj0vmbnxGsy5z56Q4/rjUTjkpWTRVYUmS62+9Ow8+NNy+Xa9NJI0zKGdbsJWVSW5/oMz7vjWWf5qh2+xJB9Uyf6i1LePNVpfcJLni9mZuu39qD+8xr8hjdpKJK2pFsnR+kZc/ti9/9fLBzB1IDllWZPHcqX16/d3N/OXnR3PzqjI3ryrzD18dzbV3TQWQi+cWOXLFzvF6AGCn1OieBbdTPVNB1g6rZ3VswzSNLf8ycXtqzF6r7TI5Scff3PLJ/OVNH+tdnMctOioL+1qh5njZyMVrrk+SXLLmhtwyck97vT37F+W0RUe1b2+JIkXm1+fkyUuOz7886m150pLjMq8+1NUSb/X4uvzLyi/kG/dflHWNkfzXHV/Nuff+JI2yFQgP1vpz1Nypbs0AsDvb/ZKKjdSDOqOzNcPrs3rt1OximTMn9ec9N/U3vyF9b3ljak9+UtLXPdHCjPr6Unvyk9L3ljem/uY3pP685yZzpiqsq9cOZ83w1PNsNL7byLZvbY1mctsD059w7kBrltzJWX3XrC/z85VTAdjltzXbrd0G+pKTJrr4jjdbrecm1WvJnvM3+mofsc7Zcl/8jyP57IVTk3UUSY7bv5aXnNKX5Ytr6euo46+8r+zqJjw8mtx679RG12tpjzMIAPQopg/j0Wmnr2fl4V/D1rSuMZJGOfV8Q/XBHDf/4K51Ou3Zv6jddTYT3Xg31XjZyC0jd/cWZ159KKcsfFQmpztbPb4uF625rr384jXXtVsLDtb6c/qiY9rLNsfkbLmHnv+6vOvGD2dlxwQa+wzskdfu8/QcN/+QzO8YH/DB8bX5xbruloxXrbu1a2KRJf0LupYDwO5qtwr3HrZC12FsvJGyI40qVixP7aQTUiyYn2LJ4tY3y0sWd91nJp3rFgvmtx5jxfL28rIsN6tLyua8hk114U3NvPgfR/KDqxtplq3nOGBpkV97al8O6uh+myTPOq4v+yyaetssmVfkPa9ojW/3w7Pn5Fee0Jf+jsDskGVFTjusnstubebBji67g32tbrGTfuucDe1urR88b7wdEG6pex4q8w9fHcvFN0894EBfq8twr8nxAjtNdlEGAB7GZgRjO2s9a3New5a6Yf2dWdcYad/eo29+jpt/SNc6k+bVh3Lc/IPbk0s0U3ZNsNHp/NVX5owLfzvfuP+iNMpmihQ5ZM7y/MGBL++aUTZJXrTXGdm3Y/bcpf0L8x9H/lZuOP1DueH0D+Vt+70g/cVUZeiIuftu8UQW59z17Xzs7u9kpDn1jeohc/bJ8sElXeuNl83cM/pgV9mc+sA2qg0DQLVNTzh2ZVtSF6jXknpH0tNXT2qbsPtqtda6k+p93f1/N9eWvIaNuOehMn/5he5uqIfsXcsbntjdveb4/WvtmWc3xcI5RU48sPV6r7yj2TUhyMkH1/KyU7dPejbZ0nDSYH/ywLoyE2NsJ0kO3XtqPL5MTgKydOqO443kzhlmDk6SomitDwC7rdoM35Jtqp2lnrUlr2Ezffv+S3Lj+jvbt+fWh/KqfZ4yLYBLkrfue2YOnbOifXvN+HAufqjVfXYmd43en9+77j9y5bpb2mWPmrtffnO/F3atd/LCIzKnPsMYhLNY3Dc/j114ZG/xZqsXtXZQ2bpdz3BjQ1fgt2f/wjxtyYnt20ly+Jx9M1SfqnDdteH+ruWTihSpF1vwPgCAitmt/usVW9CvtVx1b8qVK1t9SxuNlDfelPKhNb2rTVM+tCbljTcljUZSlilXrky56t7e1TbZlryGhzM8mnzuwvGsGWk9R5Hk9MPr7QDuqBW1HLPfZMeNTdNXS447oPU2++pljdy9emr75w8V+bWn9eevXjaQ0w5rVcyXLSyyx7zpYdwjtWxhkd95dn9OOHCq4t8sW2Hmlbc380DPBCB/+sKBHLRXkYP2KvKHzxvIwXtNfURWrenugtxp6YLkzBO3T1AJADulLQjGdpZ61pa8hkfiq/f9LMONDe3bj5q7X973qLfnNfs8td1a75+O+I28ccUvtSfGKFPmwoeuzRfv/XHHI023rjGSj971naweX5dMBF5PWXJ8Xrf8GUmS4+YfnBMXHNYVsj2cvqKeUxYe0Vu8Wc7a52l5xbKpiT6SZPX42nztvgtz3fBUa8RFffPytv1fkGfucVLm1YfyG/s9P89eekq7C/FwYySXrb2xvX6nJf3z8/jFj3x2XwComt0r3Nv0ust0D65O45xPpvHFL2f8059N4wvnJusnxnBZuDDF4Ye1xobp62tdXzgxoPP69Wl84dzWfb745TQ++snkwamZxzbXFr2GTfDlSxv58XVTLeyG+pOXnNLqnnvywbUs7Rgn77b7y7zqfSPt7rSTl7P/dzQPrZ8KzQ5cWuQpR9dzxe3NfPT88aydCA8z0e31iUfW83evanXtnZyxd0u+dJ87kJz9gqnHe/HJfV2t6u5dU+b7VzVy1R3N/Pj6VlfkTLTue+Kj6jnnrUM5561DeerR9XYX49Hx5HtXNbLyvtbK96wps6FjrpH5g0V+85n9W212XwConNr0Sbg22U5Sz9qi1zCLydlrey8fOead+dCd38zX77+wPfZekSKHzlmevzjkdfn5Y9+fzx33Z3nunqd2BWHXDN+W/3frpzueYXafvucH+d4DP09z4svhufXB/PLyZ+SwufvmjMXHZK+OGXdvGbk7T7/kne2x8SYvb7/mX/PgRECYJIfMWZHnLD21fXtTvHzvJ7Vf958f8svZf2iv9rINzbF8+/5LkyRfuveCruc6dM7y/NuRv5mfP/b9+Z0DXtIeY69MmUvW3pDPrfpRe92HGlMTp/QXfXnzime39zMA7Oq2IEKppnp95pZXD6ssU955Zxqf+HSaXzg3uf+B9qLaSSek7+w/TP2Nr0v9ja9L39l/mNpjTpi67/0PpPmFc9P4xKdT3nFn98wSm+ERb/tm+vCPxnJHx2QaK5YU+eUz+nPSwfWuMeiuubPZDrs6fffKRu56sLuF3kkTs+Z+/qLxvP8747l/7fT7zaRMMt7Zl3cLPbS+zMd/PJ6Lbm7ty3//9lgu6Aj4ZtJoJt++opH/+O5UhX/lfWUuu7W7mzEA7NZqjZQLZh4H7mHtBPWscsEdSW0zxufbSn7vuv/IR+/6dleX1JmUKfOTh67OO679t1w/fHvv4lm97/Yv5daOWW8PGFqWX9/3eTl90TFdoeHla2/OTet7ZjBO8pX7fprbN0xNgLGwb24et5VmzW2UjXz1vp/lv+74apLk3HsvyIfu/EbXWIS9ypS5et3K/MVNH+1a74cPXtE12QYA7E52u3BvqH/rB2TlVdekvOCnqR11ZGpHHZnygp+mvPqa3tW22LbY9pncvKrMuZeOZ8NEz5RakTzhyFqO7pgAY2Qss3ZRTZLLb58KvmpFcvS+tXbruc9dNJ5X/utIPnjeeK6/u5n1o90TAW8YT+5fV+aC6xv5k0+P5u++smUVtXIi1Dv/utbjffqnU11uhkeTP/jEaN73rbHctKrZfs2ZeI3X3tXM335lNP/3i9Mr3P/49dF84xeNrBkpt2FnaQCokBUX95Zsse1Vz9oW276p/vymc/KGq/4+X7vvwjw4vrbdkq9MmbWN9bl4zXX50xs+mFdf/tebFewlyfXDt+fTd/+gHR7WUuSZS0/qmpl3uLEhF665tuNe3S5ec3279V8tRU5YcGjmdcxsu7nWN0dz5bpb8hc3fTS/e937u0K6f1r5+bztmn/Jj1ZfkTWN9ZmsZTXKRm7fcG/+545v5BWX/99p++EfV34uH77rW1k1trp9HwDYXRRl51Rl28CG0e5gpv10Zevf7uTtsixTlmWazWb79/P+eet3b2w0i9y7ZvrAwQN9Zd78xHV53vGtysVFV96YN/6ff0tzU5tmLViQYu9lSZLy7nuSNQ8/TkyS1GpF/vsvfi0nHd2aHe1Llw3lP38wL6Pj0/vf7rlgQ+q1TdweAGCX98W3bUitVktRFKlNTEBRdI7hUZZJUbTrW531rFOuesfUelvL2r1T+8Z7eksrUc9qPvOdyfy7e4sBgN3UhUf/U1c9qyiKdj2rKCZGre243WlwoHty0m1tt2u5V6+VGeqf3uWiLJOxjuKlixfkwOVT44E8rDVrUl5/Q8rrb9jkCmeSHLh8ryxd3Bo/JEnGG8WMvUmG+huCPQBg5zb/7pT7/qy3NGWSsXLqC98dVc8aK8dnbNNV7vszwR4AUFm7XbiXJHMHZwj3kjywrmh3Jd1v2R559XMfn+V7LUl94pvwraleq2X5Xkvy6uc+Pvst2yOZmMX1/nXdXVQnzbTNAAA7m/Lwr/UWpdG/OncOXp1GWt1Nd0Q9q5Fm7hy8Ko3+6RNuzLTNAABVsdt1y520YayescZUs8m+epmjV4zmrU/akL0Xtiqeo2PjueSqm3LFDSuzYbRjMLatYHCgL8ccun9OPOrgDPS3Zqm4+6Fa/v37g7nyjoEctnRtli/YkCS5+YE5WTU8vSsxALB72+m65U664zEpVh8wcaNMueCOHHnwfXnnXi/Pvv17JjugnnX7+L15zz2fytU3Lc0Jax+fA7J3kuSKheflhhVf7nkEAGB3V6VuubttuDeTvnpy5nGjef7xo6lv/S+RN6rRTL502UC+9POBjDeSFxx9Zx6z7+qMNmr5/847NMNj9d67AAC7uZ023JtBf9GXVy56al696Ompb+fOI40087HV38onVn8nY+V4Xlc8PWcUx2ZDxvJHzQ9kbdb33gUA2M1VKdzbvjWrndx4I/nipQP51lX9GW206sPbWlkmo43kW1f15wuXtoK9Tl+9ZplgDwCovLFyPB978Fv5wkM/ymg5tl1mNC1TZrQcyxce+lE+9uC3MlZ2txD8ZPl9wR4AUHla7s3imBWNnHLwePaa30zfNopAx5vJqrW1/Ozmvlxxe3eA94Kj70yjLHLuVft0lQMATKpSy71Ojxk6Ik+Yd1z2qe+RvmLbfIk5XjZyV+P+nDf881y8/tquZa8rnp7xNPPR8jtd5QAAk6rUck+4txG1Ipk7UKZv29Q5M95IhkenJvHodNoB9+eCW1sDQAMAzKSq4V6S1FPLvNpQ+ovWmHhb21g5nnXNkfYkHp2eVpyYb5eX9BYDALQJ9zpUOdzbkepFmUbZ/eYAAOhU5XBvR6qnNmPoBwAwqUrh3jbqcLr7KpuNjI+uy/jomhkvjbH1rYr2wxDsAQB0KxtJc13SXDvLZX2yKUP5CfYAgF2Jlntb0fjo2qy6+ftZ/9DKlM3u1z1paO7SHHHMk7NgwfQut8NjfXlow7bpmgIA7Hp2p5Z7zXXJ8A/LjN1eJN3zYrT171HLAU9ZkLlLp39bvi4jeSBre4sBAGZUpZZ7wr2t6LYrPpN7b/5uyrJnytsOixfOz6++4nk58uD922VjjVp+cPPSXHn3gq51AQA2ZncK9x76fDJ8XrKxRneLF83JG3/5iXnUYXu3y0bL8Xw1P8tF5XVd6wIAbEyVwj3dcreSsjme1XdfutFgL0lqKbNoaCx7zhvNnvNGc9vqOfn4ZfsK9gAAZlGOlxm5vNxosJcktbKWPbIg+2SP7JM9clN5d/61/JJgDwDYpQn3tpKi1peh+ct7i6cpk4w3i/z8zoX5r58emM9dsTyrR7ZvogsAUCVFvUj/VGO8WZVJxjOen5RX52+an8z/lF/PA1nTuxoAwC5FuLcVrTjy+Vmw1zGp989NrT6QWr2/6zJ30QFZeNDzcu6tT8j/Xr4iK1fP6X0IAAB6Fcn85xQZODIp5iRF//RL/35Jnrk+/33Al/Pf5ddyY+7sfRQAgF2SMfe2svHRdWk2NiQpUhS1FLV6ilpfarX+FLV67+oAAI/Y7jTmXpI0h5OyVc1KUUtST4q+1iWqWQDAVmTMvd1Y38C8DMzZIwNzlqR/aFH6Buan3jck2AMA2EK1uUl9SVJfnNQWJrV5STEo2AMAdm/CPQAAAACoKOEeAAAAAFSUcA8AAAAAKkq4BwAAAAAVJdwDAAAAgIoS7gEAAABARQn3AAAAAKCihHsAAAAAUFHCPQAAAACoKOEeAAAAAFSUcA8AAAAAKkq4BwAAAAAVJdwDAAAAgIoS7gEAAABARQn3AAAAAKCihHsAAAAAUFHCPQAAAACoKOEeAAAAAFSUcA8AAAAAKqooy7LsLdyaNoyOdd1uP11Zpuy4XZZlyrJMs9ls/16yeFHXfQEAaCnLMg88uDq1Wi1FUaRWa31nWxRF50pJUbTrW531rD2WLJ5aDwCALr31rKIo2vWsoihStK60b3caHOjvur2tabkHAAAAABUl3AMAAACAihLuAQAAAEBFCfcAAAAAoKKEewAAAABQUcI9AAAAAKgo4R4AAAAAVJRwDwAAAAAqSrgHAAAAABUl3AMAAACAihLuAQAAAEBFCfcAAAAAoKKEewAAAABQUcI9AAAAAKgo4R4AAAAAVJRwDwAAAAAqSrgHAAAAABUl3AMAAACAihLuAQAAAEBFCfcAAAAAoKKEewAAAABQUcI9AAAAAKgo4R4AAAAAVJRwDwAAAAAqSrgHAAAAABUl3AMAAACAihLuAQAAAEBFCfcAAAAAoKKEewAAAABQUcI9AAAAAKgo4R4AAAAAVJRwDwAAAAAqSrgHAAAAABUl3AMAAACAihLuAQAAAEBFCfcAAAAAoKKEewAAAABQUcI9AAAAAKgo4R4AAAAAVJRwDwAAAAAqSrgHAAAAABUl3AMAAACAihLuAQAAAEBFCfcAAAAAoKKEewAAAABQUcI9AAAAAKgo4R4AAAAAVJRwDwAAAAAqSrgHAAAAABUl3AMAAACAihLuAQAAAEBFCfcAAAAAoKKEewAAAABQUcI9AAAAAKgo4R4AAAAAVJRwDwAAAAAqSrgHAAAAABUl3AMAAACAihLuAQAAAEBFCfcAAAAAoKKEewAAAABQUcI9AAAAAKgo4R4AAAAAVJRwDwAAAAAqSrgHAAAAABUl3AMAAACAihLuAQAAAEBFCfcAAAAAoKKEewAAAABQUcI9AAAAAKgo4R4AAAAAVJRwDwAAAAAqSrgHAAAAABUl3AMAAACAihLuAQAAAEBFCfcAAAAAoKKEewAAAABQUcI9AAAAAKgo4R4AAAAAVJRwDwAAAAAqSrgHAAAAABUl3AMAAACAihLuAQAAAEBFCfcAAAAAoKKEewAAAABQUcI9AAAAAKgo4R4AAAAAVJRwDwAAAAAqSrgHAAAAABUl3AMAAACAihLuAQAAAEBFCfcAAAAAoKKEewAAAABQUcI9AAAAAKgo4R4AAAAAVJRwDwAAAAAqSrgHAAAAABUl3AMAAACAihLuAQAAAEBFCfcAAAAAoKKEewAAAABQUcI9AAAAAKgo4R4AAAAAVJRwDwAAAAAqSrgHAAAAABUl3AMAAACAihLuAQAAAEBFCfcAAAAAoKKEewAAAABQUcI9AAAAAKgo4R4AAAAAVJRwDwAAAAAqSrgHAAAAABUl3AMAAACAihLuAQAAAEBFCfcAAAAAoKKEewAAAABQUcI9AAAAAKgo4R4AAAAAVJRwDwAAAAAqSrgHAAAAABUl3AMAAACAihLuAQAAAEBFCfcAAAAAoKKEewAAAABQUcI9AAAAAKgo4R4AAAAAVJRwDwAAAAAqSrgHAAAAABUl3AMAAACAihLuAQAAAEBFCfcAAAAAoKKEewAAAABQUcI9AAAAAKgo4R4AAAAAVJRwDwAAAAAqSrgHAAAAABUl3AMAAACAihLuAQAAAEBFCfcAAAAAoKKEewAAAABQUcI9AAAAAKgo4R4AAAAAVJRwDwAAAAAqSrgHAAAAABUl3AMAAACAihLuAQAAAEBFCfcAAAAAoKKEewAAAABQUcI9AAAAAKgo4R4AAAAAVJRwDwAAAAAqSrgHAAAAABUl3AMAAACAihLuAQAAAEBFCfcAAAAAoKKEewAAAABQUcI9AAAAAKgo4R4AAAAAVJRwDwAAAAAqSrgHAAAAABUl3AMAAACAihLuAQAAAEBFCfcAAAAAoKKEewAAAABQUcI9AAAAAKgo4R4AAAAAVJRwDwAAAAAqSrgHAAAAABUl3AMAAACAihLuAQAAAEBFCfcAAAAAoKKEewAAAABQUcI9AAAAAKgo4R4AAAAAVJRwDwAAAAAqSrgHAAAAABUl3AMAAACAihLuAQAAAEBFCfcAAAAAoKKEewAAAABQUcI9AAAAAKgo4R4AAAAAVJRwDwAAAAAqSrgHAAAAABUl3AMAAACAihLuAQAAAEBFCfcAAAAAoKKEewAAAABQUcI9AAAAAKgo4R4AAAAAVJRwDwAAAAAqSrgHAAAAABUl3AMAAACAihLuAQAAAEBFCfcAAAAAoKKEewAAAABQUcI9AAAAAKgo4R4AAAAAVJRwDwAAAAAqSrgHAAAAABUl3AMAAACAihLuAQAAAEBFCfcAAAAAoKKEewAAAABQUcI9AAAAAKgo4R4AAAAAVJRwDwAAAAAqSrgHAAAAABUl3AMAAACAihLuAQAAAEBFCfcAAAAAoKKEewAAAABQUcI9AAAAAKgo4R4AAAAAVJRwDwAAAAAqSrgHAAAAABUl3AMAAACAihLuAQAAAEBFCfcAAAAAoKKEewAAAABQUcI9AAAAAKgo4R4AAAAAVJRwDwAAAAAqSrgHAAAAABUl3AMAAACAihLuAQAAAEBFCfcAAAAAoKKEewAAAABQUcI9AAAAAKgo4R4AAAAAVJRwDwAAAAAqSrgHAAAAABUl3AMAAACAihLuAQAAAEBFCfcAAAAAoKKEewAAAABQUcI9AAAAAKgo4R4AAAAAVJRwDwAAAAAqSrgHAAAAABUl3AMAAACAihLuAQAAAEBFCfcAAAAAoKKEewAAAABQUcI9AAAAAKgo4R4AAAAAVJRwDwAAAAAqSrgHAAAAABUl3AMAAACAihLuAQAAAEBFCfcAAAAAoKKEewAAAABQUcI9AAAAAKgo4R4AAAAAVJRwDwAAAAAqSrgHAAAAABUl3AMAAACAihLuAQAAAEBFCfcAAAAAoKKEewAAAABQUcI9AAAAAKgo4R4AAAAAVJRwDwAAAAAqSrgHAAAAABUl3AMAAACAihLuAQAAAEBFCfcAAAAAoKKEewAAAABQUcI9AAAAAKgo4R4AAAAAVJRwDwAAAAAqSrgHAAAAABUl3AMAAACAihLuAQAAAEBFCfcAAAAAoKKEewAAAABQUcI9AAAAAKgo4R4AAAAAVJRwDwAAAAAqSrgHAAAAABUl3AMAAACAihLuAQAAAEBFCfcAAAAAoKKEewAAAABQUcI9AAAAAKgo4R4AAAAAVJRwDwAAAAAqSrgHAAAAABUl3AMAAACAihLuAQAAAEBFCfcAAAAAoKKEewAAAABQUcI9AAAAAKgo4R4AAAAAVJRwDwAAAAAqSrgHAAAAABUl3AMAAACAihLuAQAAAEBFCfcAAAAAoKKEewAAAABQUcI9AAAAAKgo4R4AAAAAVJRwDwAAAAAqSrgHAAAAABUl3AMAAACAihLuAQAAAEBFCfcAAAAAoKKEewAAAABQUcI9AAAAAKgo4R4AAAAAVJRwDwAAAAAqSrgHAAAAABUl3AMAAACAihLuAQAAAEBFCfcAAAAAoKKEewAAAABQUcI9AAAAAKgo4R4AAAAAVJRwDwAAAAAqSrgHAAAAABUl3AMAAACAihLuAQAAAEBFCfcAAAAAoKKEewAAAABQUcI9AAAAAKgo4R4AAAAAVJRwDwAAAAAqSrgHAAAAABUl3AMAAACAihLuAQAAAEBFCfcAAAAAoKKEewAAAABQUcI9AAAAAKgo4R4AAAAAVJRwDwAAAAAqSrgHAAAAABUl3AMAAACAihLuAQAAAEBFCfcAAAAAoKKEewAAAABQUcI9AAAAAKgo4R4AAAAAVJRwDwAAAAAqSrgHAAAAABUl3AMAAACAihLuAQAAAEBFCfcAAAAAoKKEewAAAABQUcI9AAAAAKgo4R4AAAAAVJRwDwAAAAAqSrgHAAAAABUl3AMAAACAihLuAQAAAEBFCfcAAAAAoKKEewAAAABQUcI9AAAAAKgo4R4AAAAAVJRwDwAAAAAqSrgHAAAAABUl3AMAAACAihLuAQAAAEBFCfcAAAAAoKKEewAAAABQUcI9AAAAAKgo4R4AAAAAVJRwDwAAAAAqSrgHAAAAABUl3AMAAACAihLuAQAAAEBFCfcAAAAAoKKEewAAAABQUcI9AAAAAKgo4R4AAAAAVJRwDwAAAAAqSrgHAAAAABUl3AMAAACAihLuAQAAAEBFCfcAAAAAoKKEewAAAABQUcI9AAAAAKgo4R4AAAAAVJRwDwAAAAAqSrgHAAAAABUl3AMAAACAihLuAQAAAEBFCfcAAAAAoKKEewAAAABQUcI9AAAAAKgo4R4AAAAAVJRwDwAAAAAqSrgHAAAAABUl3AMAAACAihLuAQAAAEBFCfcAAAAAoKKEewAAAABQUcI9AAAAAKgo4R4AAAAAVJRwDwAAAAAqSrgHAAAAABUl3AMAAACAihLuAQAAAEBFCfcAAAAAoKKEewAAAABQUcI9AAAAAKgo4R4AAAAAVJRwDwAAAAAqSrgHAAAAABUl3AMAAACAihLuAQAAAEBFCfcAAAAAoKKEewAAAABQUcI9AAAAAKgo4R4AAAAAVJRwDwAAAAAqSrgHAAAAABUl3AMAAACAihLuAQAAAEBFCfcAAAAAoKKEewAAAABQUcI9AAAAAKgo4R4AAAAAVJRwDwAAAAAqSrgHAAAAABUl3AMAAACAihLuAQAAAEBFCfcAAAAAoKKEewAAAABQUcI9AAAAAKgo4R4AAAAAVJRwDwAAAAAqSrgHAAAAABUl3AMAAACAihLuAQAAAEBFCfcAAAAAoKKEewAAAABQUcI9AAAAAKgo4R4AAAAAVJRwDwAAAAAqSrgHAAAAABUl3AMAAACAihLuAQAAAEBFCfcAAAAAoKKEewAAAABQUcI9AAAAAKgo4R4AAAAAVJRwDwAAAAAqSrgHAAAAABUl3AMAAACAihLuAQAAAEBFCfcAAAAAoKKEewAAAABQUcI9AAAAAKgo4R4AAAAAVJRwDwAAAAAqSrgHAAAAABUl3AMAAACAihLuAQAAAEBFCfcAAAAAoKKEewAAAABQUcI9AAAAAKgo4R4AAAAAVJRwDwAAAAAqSrgHAAAAABUl3AMAAACAihLuAQAAAEBFCfcAAAAAoKKEewAAAPz/7d15bBzpnd7xp6q7yeZ9U7wpUZSoW9Rhj0aHMeOZsWbWs/baSbC7sIGFEycBHBgINjDgNeIgwCLJBgmCBItNsAgCZxMj3o13Y6+vHXmsOTXSaGYkjURdFCmJ9302m+y7Kn80u9ldJCWSkii2+P1gGux6663q7uoR8MPTb70vACBDEe4BAAAAAAAAGYpwDwAAAAAAAMhQhHsAAAAAAABAhiLcAwAAAAAAADIU4R4AAAAAAACQoQj3AAAAAAAAgAxFuAcAAAAAAABkKMI9AAAAAAAAIEMR7gEAAAAAAAAZinAPAAAAAAAAyFCEewAAAAAAAECGItwDAAAAAAAAMhThHgAAAAAAAJChCPcAAAAAAACADEW4BwAAAAAAAGQowj0AAAAAAAAgQxHuAQAAAAAAABmKcA8AAAAAAADIUIR7AAAAAAAAQIYi3AMAAAAAAAAyFOEeAAAAAAAAkKEI9wAAAAAAAIAMRbgHAAAAAAAAZCjCPQAAAAAAACBDEe4BAAAAAAAAGYpwDwAAAAAAAMhQTz3cMwxnCwAAAB5For4yKLQAAAAeq41YXj29cG8jXg0AAIBnCfUWAADAk7GB6qynF+4BAAAAAAAAeCSEewAAAAAAAECGWvdwbwONWgQAAHimLDfH3jLNAAAAeEQboc5a93BvseWvgmVZziYAAABIsm3b2ZRi+foqgToLAABgaQ+ukx5eZ623DRDuLS8ajTmbAAAAICkajTqbVuVRjwcAAHhWZVoeteHCvUT+aUiKRMKOvQAAAJCkSCSSVjetROK2EcOIHw8AAIDFIpHwquusp2nDhHvOe5QN01A4En3IUEgAAIDNx7IshSNRGWZ6AeWspxKcc/EZhkmdBQAAsITV1lkbwRMP9xZ/9sUtcQs/JccL0Pj2XCCQ3g0AAGCTS9RHhmHG66ZktfmQOkvxOiuxRZ0FAACQbqE+ms+nVlxnLbW1Pp54uLdazl+WQ6GwAsFgWhsAAMBmFQgGFQqlT13irJ+W4+xHnQUAALDgUeqsp+mphnvJ7HNh0N6SZv2zCvDLMgAA2OQCgYBm/bPOZmmJesqcf5IoSJcrTKmzAAAAVldnLV1VPT1PNdxbkIz50rcMQ6ZpyjBNzfhnNe3zKRbLrBVLAAAAHlUsFtO0z6cZ/6wM04zXR4nQLtkrvZ5azkJxSp0FAADwOOusp8Wwbdt2Nj5O4XBEzhdIfcnEc9u2l3xYlpX2sG1L2dnZ8mZny+PxyO12p5wZAADg2RCNRhWJRBQMhRQKhWQY8WIz9ZE6Ki/xSDAMY1HNlXjItmXPTxhNnQUAADabldZZSz00X2clpD7XfPyXleVJa3vSnkq4J9lKvOpS4Z5ky7ZsWY6Azxn2JbZty0oWqKnnTH2dBUu1AQAAPDnxms9R+KW0JYpC0zRlSGm/GjuLzLTnhjF/ivSi07btlL9SPM9L1FmSbEvWfJuzrnJuU2cBAICN7EnWWfEVc5cP95Z87Wcy3ItEU4rAhOXDvcS+ZEE532ZZ6cWnbVvJtsT++Hms+Lnnf5FOvuKi9/Agq+kLAACQXtQ9SKIYVOIow5BhSIYRny3FnC8i48WlkVwRd6H4XCgyTTN+TKKwfFi4p5SaiDoLAABkhqdXZ8Vrq/jZVhzuGYayPOt798O6hHvOAlCpRWByX2rhuPDLcmqR6RzNlzgmUWg6i1bn8/mWxH8AAABP3ELNt7jwcz5PFJDxW0MWik8j5dfj1CLUeZ7EMbLtRLWZlBh5l1qXUWcBAIBMth51VuL4ZPAX37HodZR8K5sx3Et5ngj10rYtS1bKdnqxGZ8zxpr/a8c7JV9r0Udb4n0AAACsh9RCMNmWKAzn9yX+xm+3TfxqnF58an4lXCNlO3EuZ4GZKlljzQd/1FkAAOBZ8STrrESNlbrtfI3kdrxx84R7euCtuYufp87z4tzWEvPAOD+WcxsAAOBpWFQEOgpF54i8hVtC0rcTfYyU23BT2+NtSqu3bNuWofjIOuosAADwrHkSddZSz+N/pUUjBud3bKJwL70QTBSTD3zu+HU5cV7n7SLJ/QtbycL24VbcEQAAIEV6cbccZyGYWoTGC0fFbwmZ75wsNud/RV7ol15gOtvt+cAv8TxZGzlG31FnAQCAje/p1VlLPU9sOyXOS7iX0p76N+35/KptS/Wbf5L2eqv6iKvpCwAAkLBEgbectMIw3pDWnlZEKr6q21KFpbOoTN1nPyDc0/zIPuc+6iwAALAhPcU6a6l9qe2pEq+37uFe/+AoVRYAAAAAAACQgYxQOEK4BwAAAAAAAGSg+A3FAAAAAAAAADIO4R4AAAAAAACQoQj3AAAAAAAAgAxFuAcAAAAAAABkKMI9AAAAAAAAIEMR7gEAAAAAAAAZinAPAAAAAAAAyFCEewAAAAAAAECGItwDAAAAAAAAMhThHgAAAAAAAJChCPcAAAAAAACADEW4BwAAAAAAAGQowj0AAAAAAAAgQxHuAQAAAAAAABnKCIUjtrNxpaZ9fvlnAwqGQopGo7LXfCYAAAAAAABsFIYhud1uebOzlZ+Xo6LCfGcXbBBrCvemfX6NTUwpx5utosJ85eV45fG4ZRiGsysAAAAAAAAyjG3bikSimg0ENe3zKxAMqby0+LGHfGfaLJ3vtNU+aGvMb8uynD2eDaYplecbaqk2dLzZ0On9j+9m2lWHe8OjEwoGQ6qpKldebo5zNwAAAAAAAJ4xs3MBDQyNyevN1paKUufuVTvTZukH71sa8a0qlnpmVBYa+sYp87GEfKsK94ZHJxSLxdRYV8UoPQAAAAAAgE3Etm119w3J5XI9UsD3p2/G9JNLz+gQvVX6yhFT337F5WxelRXHg9M+v4LBEMEeAAAAAADAJmQYhhrrqhQMhjTt8zt3rwjBXrqfXLL0p2/GnM2rsuJwb2xiSjVV5QR7AAAAAAAAm5RhGKqpKtfYxJRz10OdabMI9pbwk0uWzrSt/bqsKNyb9vmV481mjj0AAAAAAIBNLi83Rzne7FWP3vvB+2sPsJ51j3JtVhTu+WcDj301FAAAAAAAAGSmosJ8+WcDzuZlnWnbvItnrMSIz17z6L0VhXvBUEh5OV5nMwAAAAAAADahvByvgqGQs3lZ5zsJ9h5mrddoReFeNBqVx+N2NgMAAAAAAGAT8njcikajzuZltQ+uLbjaTNZ6jVYU7tl2fMJEAAAAAAAAwDAM2avIosb8q+i8Sa31Gq0o3AMAAAAAAADWylrbdHKbylqvEeEeAAAAAAAAkKEI9wAAAAAAAIAMRbgHAAAAAAAAZCjCPQAAAAAAACBDEe4BAAAAAAAAGYpwDwAAAAAAAMhQhHsAAAAAAABAhiLcAwAAAAAAADIU4R4AAAAAAACQoQj3AAAAAAAAgAxFuAcAAAAAAABkKMI9AAAAAAAAIEMR7gEAAAAAAABr9M0XPHr7ezn6z1/Pdu5aF0YoHLGdjU63O7p0YE+zs3nF3vngku7e73U2p8nOytJrLx9XWWmxcxcAAAAAAAA2mGs3O7Vrx1Zn85I+/ycRZ9OqvX7Ipa8edauhzJTXs9A+MGnr3/wsrKs9Vmr3dfPNFzz62nG3rvZY+uc/DDl3r8pb3035YCu0LiP3mrbW6tD+luSjorxEbrdLe1qakm0H9u5QXl6u81AAAAAAAABscv/kRY/+8NUsbaswNTxt673bMV3rtdQ7bsuyJfe6JFwb07p89IbaKh0+uDv5KCzIl8t0aef2hmTbgb075M3Och4KAAAAAACATWx3jalX9rkUjtr6L2ci+tp/C+p7Pw7rW/8zpN//r0H93p8Fdanr6Yza2wjWJdwDAAAAAAAA1qKh3FBRrqGxGemnl6LO3Zveusy55/TOB5fU1z+cNsfenbvdOv/RVVVVluvVl46n9Y9GY/rVm+fkn53Tqy8dV2//sK60tevksVb5fLO63XFfgWBIpmmqsrxEx44eUFlpUdo5xiem9eEn1zQyNinLspSV5dG2hlo9d3SfPG53Wt8Ev39Ov/zNOVkxS6+9fELFRQVp+z+5clNtNzt09NBe7Z+/Pj19Q/rk05ua9vllWZZM01RRYb4+e3iv6mq2JI+929Wn9y9c0aH9LTq4b2fKWRdfn7m5oH755jl5vVlq3lavK9duKxAM6WjrnkXHJly9fkdX2tp1/LMHNDQ8rvs9/YpGYyosyNOp5w+rrLRIFz66lmzP8Wbr0IFd2r1zW9p55gJBfXDxUw0MjSoajcntdqmmqkInnmtVbo432a9vYFgfXb6R/Nxut0tNjbU69fxhSVIkGtXFT66rq3dAoVBYhmGoID9Xp54/rKrKMkmSf3ZOFz66psGRMUUiUZmGodLSIp187tCi73NkbEIfX76R/D693mzt392s7t5BTfv8i+ZvbO/s0tXrd+SfDUiS8vNydHDfTrU0r2xuAAAAAAAAkG695tw71uzS977kkSHpP/wqovdux5xdFvlnL3t0er9LJfmGJGnSb+tMW0x/9puF9/Hd17N0+oBLP7oQVU2JoRM7XMrJksJR6ZP7Mf3HX0U04luIzSoLDf3Tz3t0fIepfK8h25buj1i61mvp9UPP+Jx7K9FQV62C/DxNTvk0NT2Ttm9geFRT0zPaUlmm0pKFkOdeV59ud9xXfV2VDu1vUdWWMo2MTujtcx/L759L9hsaGdeZt85rYtKn5qZ6HdrfotLiQt25262z734k214638zPz1VtVaUCwZD6B0fS9oXCYfX0Dyk3L0fbGmokSZev3dbZ9z7S3Fww+TqN9dWa8c/q7HsfqfPegxcVeZiZmVm1d3br5Ree0z/6+u8sG+ylunn7nsYnp7V313Y11FXJPxvQ+xcu691zlzQwNKrdO5u0p6VJlmXp4ys31N07mDzW75/Tr948p/7BUdXXbNGh/S2qqapQ38CI3jh7XsFQWJLU3Tuot97/WJFIVHt3bdfBfTtVWlIk38ysJMm2bZ199yN13OvRlopSHdrfoh3bG2RZtmbn4mGbJL197hMNDI+qbv616mq3aGJiWu+c+0Rzc8Fkv6GRcf3mnYsam5hSY321Du1vUfWWcn16vV3jk9PJfgmXr97W+YtXZZqm9u1u1r7dzbJt6fzFq7p+666zOwAAAAAA2EA+7Izpo7uWinIN/dFve/Stlz3KfcDMbv/yy1n63WNuRS3prRsxvXUjJsOQfveYW3/42uLw7OW9Lh3eaup8R0xnb8QUCNt6fodL33ppoW9ulvS9L2XplX0uBcLx8759M6aCHENfbHXL9RQTNtf3v/+v/rWz0WlsYkpbKkqdzWvW1Tso38ysdjTVJ0d/ud0uzc0FNTA4ovy83LTXa7vZqYmpaR0+sFvFRQUaHhlPhm2vf+GUdjQ1qLqqQjuaGhSJRtXTNyTLslRfW6VoNKb3L1xWMBjSyy8c096WpmRfn8+vgaFRlZYWqagwP/l6qTwet3p6BxWJRNW8rV6GEU98+wdGdOdutxrratTcVK/h0Ql9dPm6cnO8ae9pW2OtqirL1dM7qLGJKTVtrZPb7dLklE89fUOq3lKeHLmW4Lw+kUhUHfd6FAqH9fzRA6qtrkzrv5TENcrLzdEXT59Sfc0Wbd9ap2mfX0PDYwqHI3rx1GfU0tyo+totMgxTfQPDys7yqL62SpJ0/uP4SMcTzx3U0dY9qq6q0PatdYrFYurpG1JuTrYqy0t17WaHJiZ9OnZkv/bvaVZNVYVamhvVWF8ttyv+Wa/d6FBxcYFee+mEaqoq1FhXrd07t6q4qECmGf8XMDY+qeOfbdXeXfHvqKmxVmPjUxqbnFZJcaFKS4qS36d/dk4nPtuqI627k9c5LzdHvQNDMg0zee0S30tpSZG+ePqUGmqrVFtdqa311erpH9LklE9NW2vldrkcVxAAAAAAADzI8OiEyssW7pp7kL8492hz4n1yP6aSPEMt1S4dbDT1eqtbhbmGbvVbiqQM5PvSYbf+3mdcGpiy9d3/G9ZPL8X0zq2Y7o/aOrLVVE2Jqet9lsZmbJ3c6dLuGlOBiPQnv4johx9E9c6tmCIxqbXRpYIcI9n3D0559Mo+l7pHLf3RjxfO+/atmI5uM1VeYGhgytYb1x4+qvBB/uDk6vOJp5grLtbYUC1Plkd9A8PJ0XRzc0ENDo+ppKhwUajVWF+j/Pz0FXZ3bm9Ubo5XYxNTsm1bo+OTmpj0qbKiNC1EMwxDdTVbZNm2Jid9aedIVVVZpuKiQk1O+TQ5tdDvfs+AXKap7dvqpPnRa6FQWC3NWxe9p6rKMtVUV8o/O6fBodG0fauRm+Nd8T+ahPq6qrTbjqsqy2SapirKS9KuR1VlmbI87uRoO9/MrIZHxlRcVKBtDbXJfpLUWFctj9ul0fEpSVKu1yvLstQ3MCzLWvjHmp0Vj9GzPB65PW75/XMaHBpL7ne5XHKlhGonnmtNu/3WMAxVVpQqFoslR/hNTvs0OT2jyvLS5LVP2L6tTiXFhWlt3b2DCocjam6qT7sO+fm5Ki8r0dxcMG2UJwAAAAAA2HjmwtK//0VE3/5fIX3YGVO+19DXT7j15/8wW4caF+KtI1tN5WQZunjXUtfowp2aH3bG1DNuqyjXUEN5fOBWwqX7lj7sXAjlrvdZmpy1leWW8udnJDtQb8q2pd/ciKWdd8Rn68Ld9IBxvW2ocK+8tFhlJUUan5zW2EQ8OOobHNbsXEANdVVyuxeCIJfLpVJHkKNEkOR2KxSKKBAIaS4QVMyy1NM3pP/xw5+mPd49f0mxWEyTjtuAUxmGocb6aoVCYfX0DUnzt6sOj46ruKgwGZDNBYLyuN3Lhm8lRQWKRmOaeYQgKTs7K22eu4dxuVyLRiR6PG4ZhiGPJ30YqmkakgxFovGJKSORiCKRmMYnpvQXf/nztOv2szfeVSgc0Yw/HgTu2rFV5aXFutvVpx/++Fd694NLmvb5k+fOz8/V7h3bFIlG9cZb5/U3Pz+r9s7utCBQ8/PyXb/VqTfOntdf/fTX+t9/9UtdunorrY9vZlbRaExlpcXJUZQJhmEsapsLBGVZlj64+Omi7/9eV5+isZimUt4rAAAAAADYuG70W/rOj8L6F/8npGs9lrZWmPrel7K0tzYecRXlGnKZ0u8dc+vc93PSHoe3mvK4pPrShTgsEpOGU+bVk6RbA5ZCESkny1Dp/Jx9pXmGZkO27qUEewnLzPa2bjZUuGcYhrZvq1M0GlN3T3zut+7eQWV53Gqoi98qmtbfTA9yUrlcplzuhY+XmMdtqUfT1vSRaU7bGmqUm5ejnr4hRaMx9Q2OKBAIqbG+elGY9CQtFV49aeWlxYuuV+KRmDQzPz9Xv/3q5/TS5z6rosJ83evq0//7xVu6fO128jwH9u7QP/jyK9q5vVHBUFjnPryin/zy7eSouaGRcf313/5GH1++If/snEqKCrW7ZZu2zs9n6JQa9D6M2+3S7p3bFr3/Q/OLmZSnLLwBAAAAAAA2vivdlr7zo5Aud1naUmTo9IGFnCAclT64E9OZa4sfv26LqX1wbbcIW7YUjj7lJG8JGyrcU3JhjVwNDI1qdGxSo2OTixbSkKRYLKaZ+VtIU03P+BUMhpSb41V2VpY8HrdMw5BpGjp8cPeSj4b5OeaWk1hYwzfj1+j4pO539ysnJzu5kIbmb5mNRKMam79V1WlyekYet1vFxekr7k7PpI8as217Q9wmGr9l1pQt6cDenYuu2eGDu7WjqSHZ3zAMbW2o0Zdfe0FfPH1Kuble3Wy/p9HxyWSf3ByvTh5r1e9/9bT2tDRp2ufXJ/Mj8253dCkUjujk84f097/0sr7w4jEdbd2zaIVi0zBkGNL4/MjOVNFoTLFY+j/QLI9blmWrtKRo0fs/fHC3Du1vWTS6EQAAAAAAbHxzYen2gCXLlrJc8cFQwYgtlyn1Ttj6478NL3r8u5+H9X776u+hDUdt5WUbaihbHKV5PdIDxp89cYvf0VPmzc7SlooyTfv8unnnnqLRmJq31Tu7SfMLTyRWbNV8MHbj9l1Fo1HV1WyRJFWWlyovL0cjoxMaGhlPOXp16mu3KGZZau/o0vjktGqrKtPm1quv3aIsj1vtnV2LwrmhkfH4QiH5uaosjy8Ukpvjlcs0NTnpS94KK0mDQ2Npc/s9LUWF+SouKtDU9Izu9/Q7d6eJRKJpKw5XlpeqsrxUVsxSIBiSZVlpn9E0TTVvq1eWx61gML5E9OzsnNwuU8WFC2FeJBpV7/yt0AkVZSXyerOX/D7v3O3W1HT6tautrpRpGuq815v2HgAAAAAAQGZ4ZZ9L/+lr6XPraX4F21018bbpQDyXuNFnKWZJz203tbXi8SVuHcO2sj3S53a50lbq3Vtr6uROF6vlOnk8bt3v7tfU1IyKiwp05ODu5Iqqml8JdmhkXLZt605nt+YC8UU3Prp8XUPD49pSWabnju6TyzTldruU5fGou29Qd+/3amIyvjBG/9Cort3o0I32u2qorZLHs7DYwlLy83LV1z+swZFxuUxTR1p3qyAl3CvIz1U0aqmnb1Ad93o1PePX+PiUbnV06fK1W3KZpj53/EhyJFqON1uDw6MaGZtQb/+QZucCutvVp2s37sjrzVI0Glu0Wq7b7VJLc2PKu1pe4ho11lenzU2YWKW3uKgg7ZbXQCCoznu98nqz1NLcKMMwVJCfp56+Qd3vHtDwyLh8M34NDo/p+u27+vRau7ZUlCo3x6tzF6/o4qXrmvHPanRsQh33e9XdO6DiwgIdPrhL09Mz+vmZ99Q/MCLfjF/9Q6O6fqtTgWBY+3ZtV3lZiXy+WfUPjWpoZFz+2YD6B0d14eNrsixboXBYNVUV8UU/sjyKRqLqHxhRV8+AfP5ZjY9P6eqNDnX3DsqT5ZEVs5LXrqgwX9M+v3r7h9R5r1cz/jmNjk2oq3dQl67e1OjYpBrrqxWNxvTG2fO68Mk1FRbkqaS4UJ+2tevvzp6X3z+rxvpqzc0F9bO/e1dXb9xRVUWZ8nJzktcPAAAAAIDNZr1Wy91RZep3jrj1eqtbv3XQrc80mfpiq1vffMGjpkpTXSOW/vu7EU3NSZ3DlvbVu7Sn1tTLe1zaV2fq+A6XXj3g0j9+0aPnd5j6dVt85N7JnS41bzHV1mvpclf6+/vqUbfyvIYudMZ0d9hWIGzryLZ4/xd2u7WvztTp/S59/YRb0ZjkzTI0PM1quUlVlWUqKy1WJBpVTVXFkvOrGYahIwd3qbysWDfb7+nq9TvyzwbU0rxVX/j882krozY31evFk59RQX6eunsGdKWtXW03OzXjn1VTY61ycrLTzr0Ut9ulbY21sixLBfl5qigrcXbR4YO7dOr4YWVne9R5t0dX2trV2z+kqspy/dYrJ9NWp3W7XXrh5FHV1VRqatqvq9fvqLdvSIcO7FL5Eud+Gqoqy/TyC8+psrxEg8NjutLWrqvX72hsfEr1tVtUOH87a0VZiSzL0q0793WlrV1dPQNqqK3SKy8ek8ftVo7Xq+LCAg2NjMev/Y0ORaMxnTzWql07t0mSDu7fqR1NDZqdC6jtZodud9xXQ22VmpvSV8SVpNb9LTr+3EFlZ3vUcbdHV6/f0VwgqJPHWheFxYZh6NTzh9S6r0WWZelm+z1daWtXx90euV1ubV9mVCgAAAAAANgY3r8d0998HFX/pK2KQkPHd7h0eKspw5DOXIvpO38ZTq5gOxeW/u3Pwvp1W0ymKZ3a5dLpAy491+xSJGbrQsfaQsZLXZb++Kdh3ey3VFVk6JV9Ln2myaWb/ZbevvVogd6jMkLhyENnArzd0aUDe5qdzU+Mbdt64+x5TU759OpLxxfNt3f1+h1daWvXqecPafvWxeHPk9J2s1OffHpTR1v3aP86Xg+sjG3b+vmZ9zQzM6vXXj6x6P8bAAAAAADw+Fy72ZlcbPNhPv8nEWcTlvDWdz3OpofakCP3hkbGNT4xteRCGk9LNBrT/e5+5eZ60xbSwMYxOeWT3z+nnByv8vK4ZRYAAAAAADz7NmS4d/d+n2KWtexCGk9D/+CIJqd9ixbSwMZg27babnYqGAqrqrJM2Vkps1sCAAAAAAA8ozZMuDcxOa13z1/Sm+98qI57PWqsq1ZDXZWz27o79+EVfXDxU527+Klyc7xq3bfT2QXr7NyHV/STX76tDy5+qstXb+nCx9f01z87q877vSorKVLrvhbnIQAAAAAAAM+kDRPuSVJf/7D6+odVV1OpE8daZRiPb8nitZr2+XW7o0tZHrdeOHGUUXsbQFlpscKRiO7ML1py6859RaNR7dvdrNMvHVdu7uIVmAEAAAAAAJ5FG3JBDQAAAAAAAGxsLKjx+D0zC2oAAAAAAAAAeDjCPQAAAAAAACBDEe4BAAAAAAAAGYpwDwAAAAAAAMhQhHsAAAAAAABAhiLcAwAAAAAAADIU4R4AAAAAAACeKJME6qHWeo1WdJhhSLZtO5sBAAAAAACwCdm2LcNwti6vPH8VnTeptV6jFYV7brdbkUjU2QwAAAAAAIBNKBKJyu12O5uX1VK9tuBqM1nrNVpRuOfNztZsIOhsBgAAAAAAwCY0GwjKm53tbF7W8ea1BVebyVqv0YrCvfy8HE37/M5mAAAAAAAAbELTPr/y83Kczcs6vd9UZeHawqvNoLLQ0On9K4rpFlnRUUWF+QoEQ5qdCzh3AQAAAAAAYBOZnQsoEAypqDDfueuBvnFqRTHUpvQo12bFR5aXFmtgaIyFNQAAAAAAADYp27Y1MDSm8tJi566HOr3f1FeOrDiK2jS+csRc86g9rSbcKyrMl9ebre6+IQI+AAAAAACATca2bXX3DcnrzV71qL2Eb7/iIuBL8ZUjpr79isvZvCpGKBxZVVI3PDqhYDCkmqpy5eWu/N5qAAAAAAAAZKbZuYAGhsbk9WZrS0Wpc/eqnWmz9IP3LY34VhVLPTMqCw1949SjjdhLWHW4p/lJE8cmppQzn9Tm5Xjl8bhlGEyMCAAAAAAAkOls21YkEtVsIKhpn1+BYEjlpcVrHrG3nDNtls532moftDXmt2VZzh7PBtOUyvMNtVQbOt689sUzlrKmcC9h2ueXfzagYCikaDQq7tYFAAAAAADIfIYhud1uebOzlZ+X89hDPTw+jxTuAQAAAAAAAHh6Ht8YQAAAAAAAAADrinAPAAAAAAAAyFCEewAAAAAAAECGItwDAAAAAAAAMhThHgAAAAAAAJCh/j+FV5gVElj/8AAAAABJRU5ErkJggg==;" vertex="1" parent="1">
          <mxGeometry x="310" y="200" width="161" height="104.76" as="geometry" />
        </mxCell>
        <mxCell id="tKvyN9K_BntDlA_-QOsu-5" value="Frontend" style="text;html=1;align=center;verticalAlign=middle;whiteSpace=wrap;rounded=0;fontSize=14;" vertex="1" parent="1">
          <mxGeometry x="360.5" y="170" width="60" height="30" as="geometry" />
        </mxCell>
        <mxCell id="tKvyN9K_BntDlA_-QOsu-3" value="" style="endArrow=classic;html=1;rounded=0;entryX=0;entryY=0.5;entryDx=0;entryDy=0;" edge="1" parent="1" source="tKvyN9K_BntDlA_-QOsu-1" target="tKvyN9K_BntDlA_-QOsu-4">
          <mxGeometry width="50" height="50" relative="1" as="geometry">
            <mxPoint x="170" y="390" as="sourcePoint" />
            <mxPoint x="210" y="255" as="targetPoint" />
          </mxGeometry>
        </mxCell>
        <mxCell id="tKvyN9K_BntDlA_-QOsu-29" value="/trainLora&lt;div&gt;/putDataGCS&lt;/div&gt;" style="rounded=0;whiteSpace=wrap;html=1;fillColor=#ffe6cc;strokeColor=#d79b00;" vertex="1" parent="1">
          <mxGeometry x="800" y="340" width="150" height="90" as="geometry" />
        </mxCell>
        <mxCell id="tKvyN9K_BntDlA_-QOsu-30" value="" style="endArrow=classic;html=1;rounded=0;exitX=1;exitY=0.5;exitDx=0;exitDy=0;entryX=0;entryY=0.5;entryDx=0;entryDy=0;" edge="1" parent="1" source="tKvyN9K_BntDlA_-QOsu-4" target="tKvyN9K_BntDlA_-QOsu-29">
          <mxGeometry width="50" height="50" relative="1" as="geometry">
            <mxPoint x="540" y="320" as="sourcePoint" />
            <mxPoint x="590" y="270" as="targetPoint" />
            <Array as="points">
              <mxPoint x="500" y="320" />
              <mxPoint x="500" y="420" />
              <mxPoint x="660" y="420" />
              <mxPoint x="750" y="420" />
            </Array>
          </mxGeometry>
        </mxCell>
        <mxCell id="tKvyN9K_BntDlA_-QOsu-32" value="" style="shape=image;verticalLabelPosition=bottom;labelBackgroundColor=default;verticalAlign=top;aspect=fixed;imageAspect=0;image=https://fastapi.tiangolo.com/img/logo-margin/logo-teal.png;" vertex="1" parent="1">
          <mxGeometry x="800" y="340" width="70" height="25.22" as="geometry" />
        </mxCell>
        <mxCell id="tKvyN9K_BntDlA_-QOsu-33" value="" style="endArrow=classic;html=1;rounded=0;exitX=0.5;exitY=0;exitDx=0;exitDy=0;entryX=0;entryY=0.5;entryDx=0;entryDy=0;" edge="1" parent="1" source="tKvyN9K_BntDlA_-QOsu-29" target="tKvyN9K_BntDlA_-QOsu-21">
          <mxGeometry width="50" height="50" relative="1" as="geometry">
            <mxPoint x="960" y="251.88" as="sourcePoint" />
            <mxPoint x="1030" y="251.885" as="targetPoint" />
            <Array as="points">
              <mxPoint x="875" y="252" />
            </Array>
          </mxGeometry>
        </mxCell>
        <mxCell id="tKvyN9K_BntDlA_-QOsu-54" value="/putDataGCS" style="edgeLabel;html=1;align=center;verticalAlign=middle;resizable=0;points=[];" vertex="1" connectable="0" parent="tKvyN9K_BntDlA_-QOsu-33">
          <mxGeometry x="-0.5874" y="1" relative="1" as="geometry">
            <mxPoint x="6" y="16" as="offset" />
          </mxGeometry>
        </mxCell>
        <mxCell id="tKvyN9K_BntDlA_-QOsu-38" value="" style="endArrow=classic;html=1;rounded=0;exitX=1;exitY=0.5;exitDx=0;exitDy=0;entryX=0.5;entryY=0;entryDx=0;entryDy=0;" edge="1" parent="1" source="tKvyN9K_BntDlA_-QOsu-18" target="tKvyN9K_BntDlA_-QOsu-21">
          <mxGeometry width="50" height="50" relative="1" as="geometry">
            <mxPoint x="1320" y="130" as="sourcePoint" />
            <mxPoint x="1370" y="80" as="targetPoint" />
            <Array as="points">
              <mxPoint x="1062" y="160" />
            </Array>
          </mxGeometry>
        </mxCell>
        <mxCell id="tKvyN9K_BntDlA_-QOsu-39" value="/getDataAndModel" style="edgeLabel;html=1;align=center;verticalAlign=middle;resizable=0;points=[];" vertex="1" connectable="0" parent="tKvyN9K_BntDlA_-QOsu-38">
          <mxGeometry x="-0.0865" y="2" relative="1" as="geometry">
            <mxPoint y="-7" as="offset" />
          </mxGeometry>
        </mxCell>
        <mxCell id="tKvyN9K_BntDlA_-QOsu-43" value="" style="shape=image;verticalLabelPosition=bottom;labelBackgroundColor=default;verticalAlign=top;aspect=fixed;imageAspect=0;image=https://upload.wikimedia.org/wikipedia/commons/a/af/Data_Version_Control._Official_Logo_by_Iterative.ai.png;" vertex="1" parent="1">
          <mxGeometry x="1070" y="200" width="60" height="60" as="geometry" />
        </mxCell>
        <mxCell id="tKvyN9K_BntDlA_-QOsu-50" value="" style="endArrow=classic;html=1;rounded=0;exitX=0.5;exitY=1;exitDx=0;exitDy=0;entryX=0.5;entryY=0;entryDx=0;entryDy=0;" edge="1" parent="1" source="tKvyN9K_BntDlA_-QOsu-29" target="tKvyN9K_BntDlA_-QOsu-51">
          <mxGeometry width="50" height="50" relative="1" as="geometry">
            <mxPoint x="1070" y="557.61" as="sourcePoint" />
            <mxPoint x="875" y="527.61" as="targetPoint" />
          </mxGeometry>
        </mxCell>
        <mxCell id="tKvyN9K_BntDlA_-QOsu-58" value="/trainOnGPU" style="edgeLabel;html=1;align=center;verticalAlign=middle;resizable=0;points=[];" vertex="1" connectable="0" parent="tKvyN9K_BntDlA_-QOsu-50">
          <mxGeometry x="-0.16" y="1" relative="1" as="geometry">
            <mxPoint as="offset" />
          </mxGeometry>
        </mxCell>
        <mxCell id="tKvyN9K_BntDlA_-QOsu-51" value="" style="rounded=0;whiteSpace=wrap;html=1;" vertex="1" parent="1">
          <mxGeometry x="790" y="470" width="170" height="140" as="geometry" />
        </mxCell>
        <mxCell id="tKvyN9K_BntDlA_-QOsu-45" value="" style="shape=image;verticalLabelPosition=bottom;labelBackgroundColor=default;verticalAlign=top;aspect=fixed;imageAspect=0;image=data:image/png,iVBORw0KGgoAAAANSUhEUgAABIwAAAGzCAYAAABNQoxwAAAACXBIWXMAAC4jAAAuIwF4pT92AAA/MGlUWHRYTUw6Y29tLmFkb2JlLnhtcAAAAAAAPD94cGFja2V0IGJlZ2luPSLvu78iIGlkPSJXNU0wTXBDZWhpSHpyZVN6TlRjemtjOWQiPz4KPHg6eG1wbWV0YSB4bWxuczp4PSJhZG9iZTpuczptZXRhLyIgeDp4bXB0az0iQWRvYmUgWE1QIENvcmUgNS41LWMwMjEgNzkuMTU0OTExLCAyMDEzLzEwLzI5LTExOjQ3OjE2ICAgICAgICAiPgogICA8cmRmOlJERiB4bWxuczpyZGY9Imh0dHA6Ly93d3cudzMub3JnLzE5OTkvMDIvMjItcmRmLXN5bnRheC1ucyMiPgogICAgICA8cmRmOkRlc2NyaXB0aW9uIHJkZjphYm91dD0iIgogICAgICAgICAgICB4bWxuczp4bXA9Imh0dHA6Ly9ucy5hZG9iZS5jb20veGFwLzEuMC8iCiAgICAgICAgICAgIHhtbG5zOmRjPSJodHRwOi8vcHVybC5vcmcvZGMvZWxlbWVudHMvMS4xLyIKICAgICAgICAgICAgeG1sbnM6cGhvdG9zaG9wPSJodHRwOi8vbnMuYWRvYmUuY29tL3Bob3Rvc2hvcC8xLjAvIgogICAgICAgICAgICB4bWxuczp4bXBNTT0iaHR0cDovL25zLmFkb2JlLmNvbS94YXAvMS4wL21tLyIKICAgICAgICAgICAgeG1sbnM6c3RFdnQ9Imh0dHA6Ly9ucy5hZG9iZS5jb20veGFwLzEuMC9zVHlwZS9SZXNvdXJjZUV2ZW50IyIKICAgICAgICAgICAgeG1sbnM6c3RSZWY9Imh0dHA6Ly9ucy5hZG9iZS5jb20veGFwLzEuMC9zVHlwZS9SZXNvdXJjZVJlZiMiCiAgICAgICAgICAgIHhtbG5zOnRpZmY9Imh0dHA6Ly9ucy5hZG9iZS5jb20vdGlmZi8xLjAvIgogICAgICAgICAgICB4bWxuczpleGlmPSJodHRwOi8vbnMuYWRvYmUuY29tL2V4aWYvMS4wLyI+CiAgICAgICAgIDx4bXA6Q3JlYXRvclRvb2w+QWRvYmUgUGhvdG9zaG9wIENDIChXaW5kb3dzKTwveG1wOkNyZWF0b3JUb29sPgogICAgICAgICA8eG1wOkNyZWF0ZURhdGU+MjAxNC0xMi0xMFQwODo0MTozNyswMTowMDwveG1wOkNyZWF0ZURhdGU+CiAgICAgICAgIDx4bXA6TW9kaWZ5RGF0ZT4yMDE0LTEyLTExVDA4OjUzOjUyKzAxOjAwPC94bXA6TW9kaWZ5RGF0ZT4KICAgICAgICAgPHhtcDpNZXRhZGF0YURhdGU+MjAxNC0xMi0xMVQwODo1Mzo1MiswMTowMDwveG1wOk1ldGFkYXRhRGF0ZT4KICAgICAgICAgPGRjOmZvcm1hdD5pbWFnZS9wbmc8L2RjOmZvcm1hdD4KICAgICAgICAgPHBob3Rvc2hvcDpDb2xvck1vZGU+MzwvcGhvdG9zaG9wOkNvbG9yTW9kZT4KICAgICAgICAgPHhtcE1NOkluc3RhbmNlSUQ+eG1wLmlpZDoxODQ4YWU2Yy04OWM5LWEzNDUtYjFhZS04MmM2M2E1MTFhNjY8L3htcE1NOkluc3RhbmNlSUQ+CiAgICAgICAgIDx4bXBNTTpEb2N1bWVudElEPnhtcC5kaWQ6OWFkZjliZTktZDUyYS1mODRjLWJiMGEtZmRiNWY3ZGZiMjhiPC94bXBNTTpEb2N1bWVudElEPgogICAgICAgICA8eG1wTU06T3JpZ2luYWxEb2N1bWVudElEPnhtcC5kaWQ6OWFkZjliZTktZDUyYS1mODRjLWJiMGEtZmRiNWY3ZGZiMjhiPC94bXBNTTpPcmlnaW5hbERvY3VtZW50SUQ+CiAgICAgICAgIDx4bXBNTTpIaXN0b3J5PgogICAgICAgICAgICA8cmRmOlNlcT4KICAgICAgICAgICAgICAgPHJkZjpsaSByZGY6cGFyc2VUeXBlPSJSZXNvdXJjZSI+CiAgICAgICAgICAgICAgICAgIDxzdEV2dDphY3Rpb24+Y3JlYXRlZDwvc3RFdnQ6YWN0aW9uPgogICAgICAgICAgICAgICAgICA8c3RFdnQ6aW5zdGFuY2VJRD54bXAuaWlkOjlhZGY5YmU5LWQ1MmEtZjg0Yy1iYjBhLWZkYjVmN2RmYjI4Yjwvc3RFdnQ6aW5zdGFuY2VJRD4KICAgICAgICAgICAgICAgICAgPHN0RXZ0OndoZW4+MjAxNC0xMi0xMFQwODo0MTozNyswMTowMDwvc3RFdnQ6d2hlbj4KICAgICAgICAgICAgICAgICAgPHN0RXZ0OnNvZnR3YXJlQWdlbnQ+QWRvYmUgUGhvdG9zaG9wIENDIChXaW5kb3dzKTwvc3RFdnQ6c29mdHdhcmVBZ2VudD4KICAgICAgICAgICAgICAgPC9yZGY6bGk+CiAgICAgICAgICAgICAgIDxyZGY6bGkgcmRmOnBhcnNlVHlwZT0iUmVzb3VyY2UiPgogICAgICAgICAgICAgICAgICA8c3RFdnQ6YWN0aW9uPnNhdmVkPC9zdEV2dDphY3Rpb24+CiAgICAgICAgICAgICAgICAgIDxzdEV2dDppbnN0YW5jZUlEPnhtcC5paWQ6OWRkYjQzNjctMjMxZC0yNjQxLTkxMTYtMDU1ZWI3ODkyZWNmPC9zdEV2dDppbnN0YW5jZUlEPgogICAgICAgICAgICAgICAgICA8c3RFdnQ6d2hlbj4yMDE0LTEyLTExVDA4OjUzOjUyKzAxOjAwPC9zdEV2dDp3aGVuPgogICAgICAgICAgICAgICAgICA8c3RFdnQ6c29mdHdhcmVBZ2VudD5BZG9iZSBQaG90b3Nob3AgQ0MgKFdpbmRvd3MpPC9zdEV2dDpzb2Z0d2FyZUFnZW50PgogICAgICAgICAgICAgICAgICA8c3RFdnQ6Y2hhbmdlZD4vPC9zdEV2dDpjaGFuZ2VkPgogICAgICAgICAgICAgICA8L3JkZjpsaT4KICAgICAgICAgICAgICAgPHJkZjpsaSByZGY6cGFyc2VUeXBlPSJSZXNvdXJjZSI+CiAgICAgICAgICAgICAgICAgIDxzdEV2dDphY3Rpb24+Y29udmVydGVkPC9zdEV2dDphY3Rpb24+CiAgICAgICAgICAgICAgICAgIDxzdEV2dDpwYXJhbWV0ZXJzPmZyb20gYXBwbGljYXRpb24vdm5kLmFkb2JlLnBob3Rvc2hvcCB0byBpbWFnZS9wbmc8L3N0RXZ0OnBhcmFtZXRlcnM+CiAgICAgICAgICAgICAgIDwvcmRmOmxpPgogICAgICAgICAgICAgICA8cmRmOmxpIHJkZjpwYXJzZVR5cGU9IlJlc291cmNlIj4KICAgICAgICAgICAgICAgICAgPHN0RXZ0OmFjdGlvbj5kZXJpdmVkPC9zdEV2dDphY3Rpb24+CiAgICAgICAgICAgICAgICAgIDxzdEV2dDpwYXJhbWV0ZXJzPmNvbnZlcnRlZCBmcm9tIGFwcGxpY2F0aW9uL3ZuZC5hZG9iZS5waG90b3Nob3AgdG8gaW1hZ2UvcG5nPC9zdEV2dDpwYXJhbWV0ZXJzPgogICAgICAgICAgICAgICA8L3JkZjpsaT4KICAgICAgICAgICAgICAgPHJkZjpsaSByZGY6cGFyc2VUeXBlPSJSZXNvdXJjZSI+CiAgICAgICAgICAgICAgICAgIDxzdEV2dDphY3Rpb24+c2F2ZWQ8L3N0RXZ0OmFjdGlvbj4KICAgICAgICAgICAgICAgICAgPHN0RXZ0Omluc3RhbmNlSUQ+eG1wLmlpZDoxODQ4YWU2Yy04OWM5LWEzNDUtYjFhZS04MmM2M2E1MTFhNjY8L3N0RXZ0Omluc3RhbmNlSUQ+CiAgICAgICAgICAgICAgICAgIDxzdEV2dDp3aGVuPjIwMTQtMTItMTFUMDg6NTM6NTIrMDE6MDA8L3N0RXZ0OndoZW4+CiAgICAgICAgICAgICAgICAgIDxzdEV2dDpzb2Z0d2FyZUFnZW50PkFkb2JlIFBob3Rvc2hvcCBDQyAoV2luZG93cyk8L3N0RXZ0OnNvZnR3YXJlQWdlbnQ+CiAgICAgICAgICAgICAgICAgIDxzdEV2dDpjaGFuZ2VkPi88L3N0RXZ0OmNoYW5nZWQ+CiAgICAgICAgICAgICAgIDwvcmRmOmxpPgogICAgICAgICAgICA8L3JkZjpTZXE+CiAgICAgICAgIDwveG1wTU06SGlzdG9yeT4KICAgICAgICAgPHhtcE1NOkRlcml2ZWRGcm9tIHJkZjpwYXJzZVR5cGU9IlJlc291cmNlIj4KICAgICAgICAgICAgPHN0UmVmOmluc3RhbmNlSUQ+eG1wLmlpZDo5ZGRiNDM2Ny0yMzFkLTI2NDEtOTExNi0wNTVlYjc4OTJlY2Y8L3N0UmVmOmluc3RhbmNlSUQ+CiAgICAgICAgICAgIDxzdFJlZjpkb2N1bWVudElEPnhtcC5kaWQ6OWFkZjliZTktZDUyYS1mODRjLWJiMGEtZmRiNWY3ZGZiMjhiPC9zdFJlZjpkb2N1bWVudElEPgogICAgICAgICAgICA8c3RSZWY6b3JpZ2luYWxEb2N1bWVudElEPnhtcC5kaWQ6OWFkZjliZTktZDUyYS1mODRjLWJiMGEtZmRiNWY3ZGZiMjhiPC9zdFJlZjpvcmlnaW5hbERvY3VtZW50SUQ+CiAgICAgICAgIDwveG1wTU06RGVyaXZlZEZyb20+CiAgICAgICAgIDx0aWZmOk9yaWVudGF0aW9uPjE8L3RpZmY6T3JpZW50YXRpb24+CiAgICAgICAgIDx0aWZmOlhSZXNvbHV0aW9uPjMwMDAwMDAvMTAwMDA8L3RpZmY6WFJlc29sdXRpb24+CiAgICAgICAgIDx0aWZmOllSZXNvbHV0aW9uPjMwMDAwMDAvMTAwMDA8L3RpZmY6WVJlc29sdXRpb24+CiAgICAgICAgIDx0aWZmOlJlc29sdXRpb25Vbml0PjI8L3RpZmY6UmVzb2x1dGlvblVuaXQ+CiAgICAgICAgIDxleGlmOkNvbG9yU3BhY2U+NjU1MzU8L2V4aWY6Q29sb3JTcGFjZT4KICAgICAgICAgPGV4aWY6UGl4ZWxYRGltZW5zaW9uPjExNjQ8L2V4aWY6UGl4ZWxYRGltZW5zaW9uPgogICAgICAgICA8ZXhpZjpQaXhlbFlEaW1lbnNpb24+NDM1PC9leGlmOlBpeGVsWURpbWVuc2lvbj4KICAgICAgPC9yZGY6RGVzY3JpcHRpb24+CiAgIDwvcmRmOlJERj4KPC94OnhtcG1ldGE+CiAgICAgICAgICAgICAgICAgICAgICAgICAgICAgICAgICAgICAgICAgICAgICAgICAgICAgICAgICAgICAgICAgICAgICAgICAgICAgICAgICAgICAgICAgICAgICAgICAgICAKICAgICAgICAgICAgICAgICAgICAgICAgICAgICAgICAgICAgICAgICAgICAgICAgICAgICAgICAgICAgICAgICAgICAgICAgICAgICAgICAgICAgICAgICAgICAgICAgICAgIAogICAgICAgICAgICAgICAgICAgICAgICAgICAgICAgICAgICAgICAgICAgICAgICAgICAgICAgICAgICAgICAgICAgICAgICAgICAgICAgICAgICAgICAgICAgICAgICAgICAgCiAgICAgICAgICAgICAgICAgICAgICAgICAgICAgICAgICAgICAgICAgICAgICAgICAgICAgICAgICAgICAgICAgICAgICAgICAgICAgICAgICAgICAgICAgICAgICAgICAgICAKICAgICAgICAgICAgICAgICAgICAgICAgICAgICAgICAgICAgICAgICAgICAgICAgICAgICAgICAgICAgICAgICAgICAgICAgICAgICAgICAgICAgICAgICAgICAgICAgICAgIAogICAgICAgICAgICAgICAgICAgICAgICAgICAgICAgICAgICAgICAgICAgICAgICAgICAgICAgICAgICAgICAgICAgICAgICAgICAgICAgICAgICAgICAgICAgICAgICAgICAgCiAgICAgICAgICAgICAgICAgICAgICAgICAgICAgICAgICAgICAgICAgICAgICAgICAgICAgICAgICAgICAgICAgICAgICAgICAgICAgICAgICAgICAgICAgICAgICAgICAgICAKICAgICAgICAgICAgICAgICAgICAgICAgICAgICAgICAgICAgICAgICAgICAgICAgICAgICAgICAgICAgICAgICAgICAgICAgICAgICAgICAgICAgICAgICAgICAgICAgICAgIAogICAgICAgICAgICAgICAgICAgICAgICAgICAgICAgICAgICAgICAgICAgICAgICAgICAgICAgICAgICAgICAgICAgICAgICAgICAgICAgICAgICAgICAgICAgICAgICAgICAgCiAgICAgICAgICAgICAgICAgICAgICAgICAgICAgICAgICAgICAgICAgICAgICAgICAgICAgICAgICAgICAgICAgICAgICAgICAgICAgICAgICAgICAgICAgICAgICAgICAgICAKICAgICAgICAgICAgICAgICAgICAgICAgICAgICAgICAgICAgICAgICAgICAgICAgICAgICAgICAgICAgICAgICAgICAgICAgICAgICAgICAgICAgICAgICAgICAgICAgICAgIAogICAgICAgICAgICAgICAgICAgICAgICAgICAgICAgICAgICAgICAgICAgICAgICAgICAgICAgICAgICAgICAgICAgICAgICAgICAgICAgICAgICAgICAgICAgICAgICAgICAgCiAgICAgICAgICAgICAgICAgICAgICAgICAgICAgICAgICAgICAgICAgICAgICAgICAgICAgICAgICAgICAgICAgICAgICAgICAgICAgICAgICAgICAgICAgICAgICAgICAgICAKICAgICAgICAgICAgICAgICAgICAgICAgICAgICAgICAgICAgICAgICAgICAgICAgICAgICAgICAgICAgICAgICAgICAgICAgICAgICAgICAgICAgICAgICAgICAgICAgICAgIAogICAgICAgICAgICAgICAgICAgICAgICAgICAgICAgICAgICAgICAgICAgICAgICAgICAgICAgICAgICAgICAgICAgICAgICAgICAgICAgICAgICAgICAgICAgICAgICAgICAgCiAgICAgICAgICAgICAgICAgICAgICAgICAgICAgICAgICAgICAgICAgICAgICAgICAgICAgICAgICAgICAgICAgICAgICAgICAgICAgICAgICAgICAgICAgICAgICAgICAgICAKICAgICAgICAgICAgICAgICAgICAgICAgICAgICAgICAgICAgICAgICAgICAgICAgICAgICAgICAgICAgICAgICAgICAgICAgICAgICAgICAgICAgICAgICAgICAgICAgICAgIAogICAgICAgICAgICAgICAgICAgICAgICAgICAgICAgICAgICAgICAgICAgICAgICAgICAgICAgICAgICAgICAgICAgICAgICAgICAgICAgICAgICAgICAgICAgICAgICAgICAgCiAgICAgICAgICAgICAgICAgICAgICAgICAgICAgICAgICAgICAgICAgICAgICAgICAgICAgICAgICAgICAgICAgICAgICAgICAgICAgICAgICAgICAgICAgICAgICAgICAgICAKICAgICAgICAgICAgICAgICAgICAgICAgICAgICAgICAgICAgICAgICAgICAgICAgICAgICAgICAgICAgICAgICAgICAgICAgICAgICAgICAgICAgICAgICAgICAgICAgICAgIAogICAgICAgICAgICAgICAgICAgICAgICAgICAgICAgICAgICAgICAgICAgICAgICAgICAgICAgICAgICAgICAgICAgICAgICAgICAgICAgICAgICAgICAgICAgICAgICAgICAgCiAgICAgICAgICAgICAgICAgICAgICAgICAgICAgICAgICAgICAgICAgICAgICAgICAgICAgICAgICAgICAgICAgICAgICAgICAgICAgICAgICAgICAgICAgICAgICAgICAgICAKICAgICAgICAgICAgICAgICAgICAgICAgICAgICAgICAgICAgICAgICAgICAgICAgICAgICAgICAgICAgICAgICAgICAgICAgICAgICAgICAgICAgICAgICAgICAgICAgICAgIAogICAgICAgICAgICAgICAgICAgICAgICAgICAgICAgICAgICAgICAgICAgICAgICAgICAgICAgICAgICAgICAgICAgICAgICAgICAgICAgICAgICAgICAgICAgICAgICAgICAgCiAgICAgICAgICAgICAgICAgICAgICAgICAgICAgICAgICAgICAgICAgICAgICAgICAgICAgICAgICAgICAgICAgICAgICAgICAgICAgICAgICAgICAgICAgICAgICAgICAgICAKICAgICAgICAgICAgICAgICAgICAgICAgICAgICAgICAgICAgICAgICAgICAgICAgICAgICAgICAgICAgICAgICAgICAgICAgICAgICAgICAgICAgICAgICAgICAgICAgICAgIAogICAgICAgICAgICAgICAgICAgICAgICAgICAgICAgICAgICAgICAgICAgICAgICAgICAgICAgICAgICAgICAgICAgICAgICAgICAgICAgICAgICAgICAgICAgICAgICAgICAgCiAgICAgICAgICAgICAgICAgICAgICAgICAgICAgICAgICAgICAgICAgICAgICAgICAgICAgICAgICAgICAgICAgICAgICAgICAgICAgICAgICAgICAgICAgICAgICAgICAgICAKICAgICAgICAgICAgICAgICAgICAgICAgICAgICAgICAgICAgICAgICAgICAgICAgICAgICAgICAgICAgICAgICAgICAgICAgICAgICAgICAgICAgICAgICAgICAgICAgICAgIAogICAgICAgICAgICAgICAgICAgICAgICAgICAgICAgICAgICAgICAgICAgICAgICAgICAgICAgICAgICAgICAgICAgICAgICAgICAgICAgICAgICAgICAgICAgICAgICAgICAgCiAgICAgICAgICAgICAgICAgICAgICAgICAgICAgICAgICAgICAgICAgICAgICAgICAgICAgICAgICAgICAgICAgICAgICAgICAgICAgICAgICAgICAgICAgICAgICAgICAgICAKICAgICAgICAgICAgICAgICAgICAgICAgICAgICAgICAgICAgICAgICAgICAgICAgICAgICAgICAgICAgICAgICAgICAgICAgICAgICAgICAgICAgICAgICAgICAgICAgICAgIAogICAgICAgICAgICAgICAgICAgICAgICAgICAgICAgICAgICAgICAgICAgICAgICAgICAgICAgICAgICAgICAgICAgICAgICAgICAgICAgICAgICAgICAgICAgICAgICAgICAgCiAgICAgICAgICAgICAgICAgICAgICAgICAgICAgICAgICAgICAgICAgICAgICAgICAgICAgICAgICAgICAgICAgICAgICAgICAgICAgICAgICAgICAgICAgICAgICAgICAgICAKICAgICAgICAgICAgICAgICAgICAgICAgICAgICAgICAgICAgICAgICAgICAgICAgICAgICAgICAgICAgICAgICAgICAgICAgICAgICAgICAgICAgICAgICAgICAgICAgICAgIAogICAgICAgICAgICAgICAgICAgICAgICAgICAgICAgICAgICAgICAgICAgICAgICAgICAgICAgICAgICAgICAgICAgICAgICAgICAgICAgICAgICAgICAgICAgICAgICAgICAgCiAgICAgICAgICAgICAgICAgICAgICAgICAgICAgICAgICAgICAgICAgICAgICAgICAgICAgICAgICAgICAgICAgICAgICAgICAgICAgICAgICAgICAgICAgICAgICAgICAgICAKICAgICAgICAgICAgICAgICAgICAgICAgICAgICAgICAgICAgICAgICAgICAgICAgICAgICAgICAgICAgICAgICAgICAgICAgICAgICAgICAgICAgICAgICAgICAgICAgICAgIAogICAgICAgICAgICAgICAgICAgICAgICAgICAgICAgICAgICAgICAgICAgICAgICAgICAgICAgICAgICAgICAgICAgICAgICAgICAgICAgICAgICAgICAgICAgICAgICAgICAgCiAgICAgICAgICAgICAgICAgICAgICAgICAgICAgICAgICAgICAgICAgICAgICAgICAgICAgICAgICAgICAgICAgICAgICAgICAgICAgICAgICAgICAgICAgICAgICAgICAgICAKICAgICAgICAgICAgICAgICAgICAgICAgICAgICAgICAgICAgICAgICAgICAgICAgICAgICAgICAgICAgICAgICAgICAgICAgICAgICAgICAgICAgICAgICAgICAgICAgICAgIAogICAgICAgICAgICAgICAgICAgICAgICAgICAgICAgICAgICAgICAgICAgICAgICAgICAgICAgICAgICAgICAgICAgICAgICAgICAgICAgICAgICAgICAgICAgICAgICAgICAgCiAgICAgICAgICAgICAgICAgICAgICAgICAgICAgICAgICAgICAgICAgICAgICAgICAgICAgICAgICAgICAgICAgICAgICAgICAgICAgICAgICAgICAgICAgICAgICAgICAgICAKICAgICAgICAgICAgICAgICAgICAgICAgICAgICAgICAgICAgICAgICAgICAgICAgICAgICAgICAgICAgICAgICAgICAgICAgICAgICAgICAgICAgICAgICAgICAgICAgICAgIAogICAgICAgICAgICAgICAgICAgICAgICAgICAgICAgICAgICAgICAgICAgICAgICAgICAgICAgICAgICAgICAgICAgICAgICAgICAgICAgICAgICAgICAgICAgICAgICAgICAgCiAgICAgICAgICAgICAgICAgICAgICAgICAgICAgICAgICAgICAgICAgICAgICAgICAgICAgICAgICAgICAgICAgICAgICAgICAgICAgICAgICAgICAgICAgICAgICAgICAgICAKICAgICAgICAgICAgICAgICAgICAgICAgICAgICAgICAgICAgICAgICAgICAgICAgICAgICAgICAgICAgICAgICAgICAgICAgICAgICAgICAgICAgICAgICAgICAgICAgICAgIAogICAgICAgICAgICAgICAgICAgICAgICAgICAgICAgICAgICAgICAgICAgICAgICAgICAgICAgICAgICAgICAgICAgICAgICAgICAgICAgICAgICAgICAgICAgICAgICAgICAgCiAgICAgICAgICAgICAgICAgICAgICAgICAgICAgICAgICAgICAgICAgICAgICAgICAgICAgICAgICAgICAgICAgICAgICAgICAgICAgICAgICAgICAgICAgICAgICAgICAgICAKICAgICAgICAgICAgICAgICAgICAgICAgICAgICAgICAgICAgICAgICAgICAgICAgICAgICAgICAgICAgICAgICAgICAgICAgICAgICAgICAgICAgICAgICAgICAgICAgICAgIAogICAgICAgICAgICAgICAgICAgICAgICAgICAgICAgICAgICAgICAgICAgICAgICAgICAgICAgICAgICAgICAgICAgICAgICAgICAgICAgICAgICAgICAgICAgICAgICAgICAgCiAgICAgICAgICAgICAgICAgICAgICAgICAgICAgICAgICAgICAgICAgICAgICAgICAgICAgICAgICAgICAgICAgICAgICAgICAgICAgICAgICAgICAgICAgICAgICAgICAgICAKICAgICAgICAgICAgICAgICAgICAgICAgICAgICAgICAgICAgICAgICAgICAgICAgICAgICAgICAgICAgICAgICAgICAgICAgICAgICAgICAgICAgICAgICAgICAgICAgICAgIAogICAgICAgICAgICAgICAgICAgICAgICAgICAgICAgICAgICAgICAgICAgICAgICAgICAgICAgICAgICAgICAgICAgICAgICAgICAgICAgICAgICAgICAgICAgICAgICAgICAgCiAgICAgICAgICAgICAgICAgICAgICAgICAgICAgICAgICAgICAgICAgICAgICAgICAgICAgICAgICAgICAgICAgICAgICAgICAgICAgICAgICAgICAgICAgICAgICAgICAgICAKICAgICAgICAgICAgICAgICAgICAgICAgICAgICAgICAgICAgICAgICAgICAgICAgICAgICAgICAgICAgICAgICAgICAgICAgICAgICAgICAgICAgICAgICAgICAgICAgICAgIAogICAgICAgICAgICAgICAgICAgICAgICAgICAgICAgICAgICAgICAgICAgICAgICAgICAgICAgICAgICAgICAgICAgICAgICAgICAgICAgICAgICAgICAgICAgICAgICAgICAgCiAgICAgICAgICAgICAgICAgICAgICAgICAgICAgICAgICAgICAgICAgICAgICAgICAgICAgICAgICAgICAgICAgICAgICAgICAgICAgICAgICAgICAgICAgICAgICAgICAgICAKICAgICAgICAgICAgICAgICAgICAgICAgICAgICAgICAgICAgICAgICAgICAgICAgICAgICAgICAgICAgICAgICAgICAgICAgICAgICAgICAgICAgICAgICAgICAgICAgICAgIAogICAgICAgICAgICAgICAgICAgICAgICAgICAgICAgICAgICAgICAgICAgICAgICAgICAgICAgICAgICAgICAgICAgICAgICAgICAgICAgICAgICAgICAgICAgICAgICAgICAgCiAgICAgICAgICAgICAgICAgICAgICAgICAgICAgICAgICAgICAgICAgICAgICAgICAgICAgICAgICAgICAgICAgICAgICAgICAgICAgICAgICAgICAgICAgICAgICAgICAgICAKICAgICAgICAgICAgICAgICAgICAgICAgICAgICAgICAgICAgICAgICAgICAgICAgICAgICAgICAgICAgICAgICAgICAgICAgICAgICAgICAgICAgICAgICAgICAgICAgICAgIAogICAgICAgICAgICAgICAgICAgICAgICAgICAgICAgICAgICAgICAgICAgICAgICAgICAgICAgICAgICAgICAgICAgICAgICAgICAgICAgICAgICAgICAgICAgICAgICAgICAgCiAgICAgICAgICAgICAgICAgICAgICAgICAgICAgICAgICAgICAgICAgICAgICAgICAgICAgICAgICAgICAgICAgICAgICAgICAgICAgICAgICAgICAgICAgICAgICAgICAgICAKICAgICAgICAgICAgICAgICAgICAgICAgICAgICAgICAgICAgICAgICAgICAgICAgICAgICAgICAgICAgICAgICAgICAgICAgICAgICAgICAgICAgICAgICAgICAgICAgICAgIAogICAgICAgICAgICAgICAgICAgICAgICAgICAgICAgICAgICAgICAgICAgICAgICAgICAgICAgICAgICAgICAgICAgICAgICAgICAgICAgICAgICAgICAgICAgICAgICAgICAgCiAgICAgICAgICAgICAgICAgICAgICAgICAgICAgICAgICAgICAgICAgICAgICAgICAgICAgICAgICAgICAgICAgICAgICAgICAgICAgICAgICAgICAgICAgICAgICAgICAgICAKICAgICAgICAgICAgICAgICAgICAgICAgICAgICAgICAgICAgICAgICAgICAgICAgICAgICAgICAgICAgICAgICAgICAgICAgICAgICAgICAgICAgICAgICAgICAgICAgICAgIAogICAgICAgICAgICAgICAgICAgICAgICAgICAgICAgICAgICAgICAgICAgICAgICAgICAgICAgICAgICAgICAgICAgICAgICAgICAgICAgICAgICAgICAgICAgICAgICAgICAgCiAgICAgICAgICAgICAgICAgICAgICAgICAgICAgICAgICAgICAgICAgICAgICAgICAgICAgICAgICAgICAgICAgICAgICAgICAgICAgICAgICAgICAgICAgICAgICAgICAgICAKICAgICAgICAgICAgICAgICAgICAgICAgICAgICAgICAgICAgICAgICAgICAgICAgICAgICAgICAgICAgICAgICAgICAgICAgICAgICAgICAgICAgICAgICAgICAgICAgICAgIAogICAgICAgICAgICAgICAgICAgICAgICAgICAgICAgICAgICAgICAgICAgICAgICAgICAgICAgICAgICAgICAgICAgICAgICAgICAgICAgICAgICAgICAgICAgICAgICAgICAgCiAgICAgICAgICAgICAgICAgICAgICAgICAgICAgICAgICAgICAgICAgICAgICAgICAgICAgICAgICAgICAgICAgICAgICAgICAgICAgICAgICAgICAgICAgICAgICAgICAgICAKICAgICAgICAgICAgICAgICAgICAgICAgICAgICAgICAgICAgICAgICAgICAgICAgICAgICAgICAgICAgICAgICAgICAgICAgICAgICAgICAgICAgICAgICAgICAgICAgICAgIAogICAgICAgICAgICAgICAgICAgICAgICAgICAgICAgICAgICAgICAgICAgICAgICAgICAgICAgICAgICAgICAgICAgICAgICAgICAgICAgICAgICAgICAgICAgICAgICAgICAgCiAgICAgICAgICAgICAgICAgICAgICAgICAgICAgICAgICAgICAgICAgICAgICAgICAgICAgICAgICAgICAgICAgICAgICAgICAgICAgICAgICAgICAgICAgICAgICAgICAgICAKICAgICAgICAgICAgICAgICAgICAgICAgICAgICAgICAgICAgICAgICAgICAgICAgICAgICAgICAgICAgICAgICAgICAgICAgICAgICAgICAgICAgICAgICAgICAgICAgICAgIAogICAgICAgICAgICAgICAgICAgICAgICAgICAgICAgICAgICAgICAgICAgICAgICAgICAgICAgICAgICAgICAgICAgICAgICAgICAgICAgICAgICAgICAgICAgICAgICAgICAgCiAgICAgICAgICAgICAgICAgICAgICAgICAgICAgICAgICAgICAgICAgICAgICAgICAgICAgICAgICAgICAgICAgICAgICAgICAgICAgICAgICAgICAgICAgICAgICAgICAgICAKICAgICAgICAgICAgICAgICAgICAgICAgICAgICAgICAgICAgICAgICAgICAgICAgICAgICAgICAgICAgICAgICAgICAgICAgICAgICAgICAgICAgICAgICAgICAgICAgICAgIAogICAgICAgICAgICAgICAgICAgICAgICAgICAgICAgICAgICAgICAgICAgICAgICAgICAgICAgICAgICAgICAgICAgICAgICAgICAgICAgICAgICAgICAgICAgICAgICAgICAgCiAgICAgICAgICAgICAgICAgICAgICAgICAgICAgICAgICAgICAgICAgICAgICAgICAgICAgICAgICAgICAgICAgICAgICAgICAgICAgICAgICAgICAgICAgICAgICAgICAgICAKICAgICAgICAgICAgICAgICAgICAgICAgICAgICAgICAgICAgICAgICAgICAgICAgICAgICAgICAgICAgICAgICAgICAgICAgICAgICAgICAgICAgICAgICAgICAgICAgICAgIAogICAgICAgICAgICAgICAgICAgICAgICAgICAgICAgICAgICAgICAgICAgICAgICAgICAgICAgICAgICAgICAgICAgICAgICAgICAgICAgICAgICAgICAgICAgICAgICAgICAgCiAgICAgICAgICAgICAgICAgICAgICAgICAgICAgICAgICAgICAgICAgICAgICAgICAgICAgICAgICAgICAgICAgICAgICAgICAgICAgICAgICAgICAgICAgICAgICAgICAgICAKICAgICAgICAgICAgICAgICAgICAgICAgICAgICAgICAgICAgICAgICAgICAgICAgICAgICAgICAgICAgICAgICAgICAgICAgICAgICAgICAgICAgICAgICAgICAgICAgICAgIAogICAgICAgICAgICAgICAgICAgICAgICAgICAgICAgICAgICAgICAgICAgICAgICAgICAgICAgICAgICAgICAgICAgICAgICAgICAgICAgICAgICAgICAgICAgICAgICAgICAgCiAgICAgICAgICAgICAgICAgICAgICAgICAgICAgICAgICAgICAgICAgICAgICAgICAgICAgICAgICAgICAgICAgICAgICAgICAgICAgICAgICAgICAgICAgICAgICAgICAgICAKICAgICAgICAgICAgICAgICAgICAgICAgICAgICAgICAgICAgICAgICAgICAgICAgICAgICAgICAgICAgICAgICAgICAgICAgICAgICAgICAgICAgICAgICAgICAgICAgICAgIAogICAgICAgICAgICAgICAgICAgICAgICAgICAgICAgICAgICAgICAgICAgICAgICAgICAgICAgICAgICAgICAgICAgICAgICAgICAgICAgICAgICAgICAgICAgICAgICAgICAgCiAgICAgICAgICAgICAgICAgICAgICAgICAgICAgICAgICAgICAgICAgICAgICAgICAgICAgICAgICAgICAgICAgICAgICAgICAgICAgICAgICAgICAgICAgICAgICAgICAgICAKICAgICAgICAgICAgICAgICAgICAgICAgICAgICAgICAgICAgICAgICAgICAgICAgICAgICAgICAgICAgICAgICAgICAgICAgICAgICAgICAgICAgICAgICAgICAgICAgICAgIAogICAgICAgICAgICAgICAgICAgICAgICAgICAgICAgICAgICAgICAgICAgICAgICAgICAgICAgICAgICAgICAgICAgICAgICAgICAgICAgICAgICAgICAgICAgICAgICAgICAgCiAgICAgICAgICAgICAgICAgICAgICAgICAgICAgICAgICAgICAgICAgICAgICAgICAgICAgICAgICAgICAgICAgICAgICAgICAgICAgICAgICAgICAgICAgICAgICAgICAgICAKICAgICAgICAgICAgICAgICAgICAgICAgICAgICAgICAgICAgICAgICAgICAgICAgICAgICAgICAgICAgICAgICAgICAgICAgICAgICAgICAgICAgICAgICAgICAgICAgICAgIAogICAgICAgICAgICAgICAgICAgICAgICAgICAgICAgICAgICAgICAgICAgICAgICAgICAgICAgICAgICAgICAgICAgICAgICAgICAgICAgICAgICAgICAgICAgICAgICAgICAgCiAgICAgICAgICAgICAgICAgICAgICAgICAgICAgICAgICAgICAgICAgICAgICAgICAgICAgICAgICAgICAgICAgICAgICAgICAgICAgICAgICAgICAgICAgICAgICAgICAgICAKICAgICAgICAgICAgICAgICAgICAgICAgICAgICAgICAgICAgICAgICAgICAgICAgICAgICAgICAgICAgICAgICAgICAgICAgICAgICAgICAgICAgICAgICAgICAgICAgICAgIAogICAgICAgICAgICAgICAgICAgICAgICAgICAgICAgICAgICAgICAgICAgICAgICAgICAgICAgICAgICAgICAgICAgICAgICAgICAgICAgICAgICAgICAgICAgICAgICAgICAgCiAgICAgICAgICAgICAgICAgICAgICAgICAgICAgICAgICAgICAgICAgICAgICAgICAgICAgICAgICAgICAgICAgICAgICAgICAgICAgICAgICAgICAgICAgICAgICAgICAgICAKICAgICAgICAgICAgICAgICAgICAgICAgICAgICAgICAgICAgICAgICAgICAgICAgICAgICAgICAgICAgICAgICAgICAgICAgICAgICAgICAgICAgICAgICAgICAgICAgICAgIAogICAgICAgICAgICAgICAgICAgICAgICAgICAgICAgICAgICAgICAgICAgICAgICAgICAgICAgICAgICAgICAgICAgICAgICAgICAgICAgICAgICAgICAgICAgICAgICAgICAgCiAgICAgICAgICAgICAgICAgICAgICAgICAgICAgICAgICAgICAgICAgICAgICAgICAgICAgICAgICAgICAgICAgICAgICAgICAgICAgICAgICAgICAgICAgICAgICAgICAgICAKICAgICAgICAgICAgICAgICAgICAgICAgICAgICAgICAgICAgICAgICAgICAgICAgICAgICAgICAgICAgICAgICAgICAgICAgICAgICAgICAgICAgICAgICAgICAgICAgICAgIAogICAgICAgICAgICAgICAgICAgICAgICAgICAgICAgICAgICAgICAgICAgICAgICAgICAgICAgICAgICAgICAgICAgICAgICAgICAgICAgICAgICAgICAgICAgICAgICAgICAgCiAgICAgICAgICAgICAgICAgICAgICAgICAgICAgICAgICAgICAgICAgICAgICAgICAgICAgICAgICAgICAgICAgICAgICAgICAgICAgICAgICAgICAgICAgICAgICAgICAgICAKICAgICAgICAgICAgICAgICAgICAgICAgICAgICAgICAgICAgICAgICAgICAgICAgICAgICAgICAgICAgICAgICAgICAgICAgICAgICAgICAgICAgICAgICAgICAgICAgICAgIAogICAgICAgICAgICAgICAgICAgICAgICAgICAgICAgICAgICAgICAgICAgICAgICAgICAgICAgICAgICAgICAgICAgICAgICAgICAgICAgICAgICAgICAgICAgICAgICAgICAgCiAgICAgICAgICAgICAgICAgICAgICAgICAgICAgICAgICAgICAgICAgICAgICAgICAgICAgICAgICAgICAgICAgICAgICAgICAgICAgICAgICAgICAgICAgICAgICAgICAgICAKICAgICAgICAgICAgICAgICAgICAgICAgICAgICAgICAgICAgICAgICAgICAgICAgICAgICAgICAgICAgICAgICAgICAgICAgICAgICAgICAgICAgICAgICAgICAgICAgICAgIAogICAgICAgICAgICAgICAgICAgICAgICAgICAgICAgICAgICAgICAgICAgICAgICAgICAgICAgICAgICAgICAgICAgICAgICAgICAgICAgICAgICAgICAgICAgICAgICAgICAgCiAgICAgICAgICAgICAgICAgICAgICAgICAgICAgICAgICAgICAgICAgICAgICAgICAgICAgICAgICAgICAgICAgICAgICAgICAgICAgICAgICAgICAgICAgICAgICAgICAgICAKICAgICAgICAgICAgICAgICAgICAgICAgICAgICAgICAgICAgICAgICAgICAgICAgICAgICAgICAgICAgICAgICAgICAgICAgICAgICAgICAgICAgICAgICAgICAgICAgICAgIAogICAgICAgICAgICAgICAgICAgICAgICAgICAgICAgICAgICAgICAgICAgICAgICAgICAgICAgICAgICAgICAgICAgICAgICAgICAgICAgICAgICAgICAgICAgICAgICAgICAgCiAgICAgICAgICAgICAgICAgICAgICAgICAgICAgICAgICAgICAgICAgICAgICAgICAgICAgICAgICAgICAgICAgICAgICAgICAgICAgICAgICAgICAgICAgICAgICAgICAgICAKICAgICAgICAgICAgICAgICAgICAgICAgICAgICAgICAgICAgICAgICAgICAgICAgICAgICAgICAgICAgICAgICAgICAgICAgICAgICAgICAgICAgICAgICAgICAgICAgICAgIAogICAgICAgICAgICAgICAgICAgICAgICAgICAgICAgICAgICAgICAgICAgICAgICAgICAgICAgICAgICAgICAgICAgICAgICAgICAgICAgICAgICAgICAgICAgICAgICAgICAgCiAgICAgICAgICAgICAgICAgICAgICAgICAgICAgICAgICAgICAgICAgICAgICAgICAgICAgICAgICAgICAgICAgICAgICAgICAgICAgICAgICAgICAgICAgICAgICAgICAgICAKICAgICAgICAgICAgICAgICAgICAgICAgICAgICAgICAgICAgICAgICAgICAgICAgICAgICAgICAgICAgICAgICAgICAgICAgICAgICAgICAgICAgICAgICAgICAgICAgICAgIAogICAgICAgICAgICAgICAgICAgICAgICAgICAgCjw/eHBhY2tldCBlbmQ9InciPz7ohGobAAAAIGNIUk0AAHolAACAgwAA+f8AAIDpAAB1MAAA6mAAADqYAAAXb5JfxUYAARAXSURBVHja7J15vGNVkfi/1U1DszY7yCYKgiICgg6KoOBCZwAVzRMU0g1qnjrqjMuo40LGJbiPG6ij857bz7DJi+OGk3ZlRlFQERQUUEFkEWSzm31r6vdH8pK7nJvcm9wkNzf15fPo97LeU+ecOlV169QRVcUwDMMwDMMwDMMwDMMwFlliIjAMwzAMwzAMwzAMwzC8WMDIMAzDMAzDMAzDMAzD8GEBI8MwDMMwDMMwDMMwDMOHBYwMwzAMwzAMwzAMwzAMHxYwMgzDMAzDMAzDMAzDMHxYwMgwDMMwDMMwDMMwDMPwYQEjwzAMwzAMwzAMwzAMw4cFjAzDMAzDMAzDMAzDMAwfG5gIDMOYJKTSWAusSPCWI7RaON8kZxiGYRiGYRiGER/LMDIMI0eIicAwDMMwDMMwDCMFLGBkGEYOWAwUqYnCMAzDMAzDMAwjBSxgZBjGhCO4A0WWbWQYhmEYhmEYhtEvFjAyDGPCUd8//sctaGQYhmEYhmEYhtEPFjAyDCMfOGNDtkXNMAzDMAzDMAyjHyxgZBjGBNMlg8hiRYZhGIZhGIZhGH1jASPDMCaQqCLX4vzVMAzDMAzDMAzDSIYFjAzDmEC0x+MWLTIMwzAMwzAMwxgECxgZhjFhxAkGqW1JMwzDMAzDMAzDGAALGBmGMWHEjARZkpFhGIZhGIZhGEbfWMDIMIwJxKJBhmEYhmEYhmEYw8QCRoZhTCCKBY0MwzAMwzAMwzCGhwWMDMOYUFxb0yyIZBiGYRiGYRiGkQYWMDIMY0JxBYes0rVhGIZhGIZhGEYaWMDIMIwJxYJDhmEYhmEYhmEYw8ICRoZhTCax40W2Tc0wDMMwDMMwDCMpFjAyDGMykfb/emCZSIZhGIZhGIZhGEmxgJFhGBOMFb42DMMwDMMwDMMYBhYwMgwjZ1hGkWEYhmEYhmEYxqBYwMgwDMMwDMMwDMMwDMPwYQEjwzAMwzAMwzAMwzAMw4cFjAzDmHCsZpFhGIZhGIZhGEbabGAiMAxjHCzU5jYW5FGK7gjsInBFsTR7Waw3K5440WLNIqHf+kX12vzGwHsUvVXgJpDbgJtB/1oszd5qvWUYhmEYhmEYxrRhASPDMIZCvTa3DOSxwF7AHqC7g+wO7Kbo7oJstfhaaUZ/3gTECxhJzwcSoehGAm9zfVa9Nv+AotcDNwpyraLXCFwD8mdF/zhTmr3FetswDMMwDMMwjLxhASPDMAailSn0BGBf0H0VnijI44FHgy5dTAbq/KuLAaI2rseSMdjJaNK6ss41qPf/GwF7CrIn8Czvd0qz/WsFrlS4SpDf0wx6XVYslW+w0WEYhmEYhmEYxqRiASPDMGKzUJvbQpADgQMVPUjggFZwaIk/JKTt0MtiEKb5/05gZ/AgURT9bk3zB4uCn+O/XvG2cUuFp9H8ab+6XptfC/wW9GKQi4GLgT8US+VHbCQZhmEYhmEYhpF1LGBkGIaThdqcAE8Q5BBFDxZ4uiD7KCqCtIMni4GUxXCRN0un+Zgrx6gTiEk/aKQDvFMd7fIHtsTzrwauP/D+LQV5JsgzPUWX7q6fMX8RqheC/Az0omJp9nYbbYZhGIZhGIZhZA0LGBmGAUC9Nr9E0f2AwwV5FnAosC3tTJrF//sDKt7fF7NuFgMp3lCQK6CE73lNsTX9ZRn5A0Od9nrbF5aE/1td7fJsxdtMVZ8j8JzFVy7U5n4HnC/IT4Hzi6XyzTYaDcMwDMMwDMMYNxYwMowppl6bewzwXIUjBZ4NbL343GKARAkHTbw5NZ3Xqeedi89qoD6Qeg44kyG2zJvVFOfVnesjlCEVDiJFf19HTsFgmf8zfIGnJwJPVPR1AtRr878Hvg/6fZD/LZbKd9tINQzDMAzDMAxj1FjAyDCmiHptbkOQw0CPATkK2MsfFPFvw+oEdtSXceMPgURtL3Nt6eq8V32ZSzqE8FH8DCP/dXpDWp1r62QXdbKqOn93AmnB54FQiW982UqdfKzWZ+wD7APyBuChhdrcT4HzBDmvWCpfaaPYMAzDMAzDMIxRYAEjw8g59drcCuAY4EUgRwKbezdPdbZLBevzqDM45NpaJoFXiOfTJPBe2t+x+Nn+AEo8+i1s7UZ9xa0XgzheCS2205sdFMysAhzb1vyfEdya5+0B/xW1PmuZIEcARwD/Ua/NXwN8S9GvC/ysWJpdbyPcMAzDMAzDMIxhYAEjw8gh9drc1sAM8GKFIwQ29AYv/PWH/OEXfzHn8Ilh4Qybzv8JZemoLxwkzlyb4JH2vUg3WASEiloHs6787e68zvvaYCFvbQfDFuXiDR15fwtnaC3KzFEF6rHAGwV5I3BrvTb3TaAO8sNiqfyQjXzDMAzDMAzDMNLCAkaGkRPqtfkVwAuAE0CeC7pBcFOUN3vGlUEkvu1h/qCGeE44C2bIqHOLmj8Tx108OvxYb6Je5wokJQkuacSnB2UEBNoQ3rKHs4ZROBjllbd3K6Bf1v6rbPfFdkBZoQx6W702XwfOUfR/Z0qzj9iMMAzDMAzDMAxjECxgZBgTzEJtbqkgK4GTaAaLlneelYitYs2//HV5XCd8hY+Ud2cehbdfuQJMOL7DXUi7DxQQjXgi9gd4rjH8uP8TNbTVTgLb17zycuVyBYNDfvn485fA1au+/tkWeDXwakH+ulCbqwnylWKp/HubJYZhGIZhGIZh9IMFjAxjAqnX5vcBXiFICXSH5qPRx903n3UdAu8qTE17O5WEghXNZ/2v834avlpIwe/1hj+C2U3JNpkFMoeky3OxCW+/C56Z5m6L+GoeBU+VC0oleGpcVHAo2I9hmYlji58iyE4Cb1P0bfXa/K+BLyv61ZnS7FqbOYZhGIZhGIZhxMUCRoYxIdRr85uAzoDMKnpoM2SAI0ARLGIdPvA+KhDUyYjpFHT2Z8GII2MoWP9HQ7V4PMGSO0BvAG5Q9DrgOkFvELgeuCy+NNT9kEQ814NiaXZta0vfTsAuwI4guwi6E+iOwK6CPFrRR0koi0hDNZD8Mg7XKgJvXSfvxatTlq5z6bplQnkywQ4EDhT46EJt7lyBeeD/iqVZtRllGIZhGIZhGEY3RNX8BsPIMvXa/ONAXwdysqIrwuEDb3FpQsGhYHFqd5FlDYRBgkWfg5kvru9uf/tDwB+Bq0B+D1yl6O8F+UOxVL5rYKVVaawFViR4yxFaLZyfTl/MbQ7sqbC3II8D3Yvmv3uDbOmXT1CiHZlpqCZS8PXhDDE8PRB8p/e1URlmnmu7EuSzwFeKpfKdNsMMwzAMwzAMw3D6XhYwMozsUa/NLVEoCPIvwJHe6IA7uLP4/2CdnMXng2d0ubaiRZ/c5a9J5Asm3QZysaIXC3IxcBnon4ul2YeHprTGGDDqxkJtbmdBngwcCHoAcKDCo+MHhNyBIO/j2vU0OQ19jxKdhQbcDXwV9NPF0qzVOjIMwzAMwzAMw+97WcDIMLJDvTa/Mc0C1m8C9gpm77iyh8QZJPBnHfkDDvQIQPgLNnuCUPcAP1e4mNbPTGn2mpErrcqataDhgFG7saEaRiMJGLn7c25rkANAD1I4RJBDQbeNCOB4+tRV8Dq6qLbrFLrofu6EkTzj6buKfmKmNPsDm4WGYRiGYRiGYYAFjAwjE9Rrc9uC/DPwOtBt/Fk83lBC28EneKS9Y+tRKGDULQih4ePd7wT9Ccj5wP8p+uuZIWYOxVZaiTOM5Aitrjw/G/08L4ruDTxTkMNAD6NZGyliC2Aoo6vdl97gkK+1voCRhMZD51FXYW4uA/2IwtlZ6GvDMAzDMAzDMMboe1nAyDDGGUCY2xXkX4FXARt7n/MHfdxbxVzlj4PvJ6KuTTi7Re9T+LHAjxXOF+SSYqm8PnNKK6Nb0vploTa3qyCHAytBCyDbRNchUrpnhvkDiK6gUkTfE6it9BeBjyh8aaY0e5/NVMMwDMMwDMOYPixgZBhjoF6b31PRfxPkJGBZx2l3bQWjS+0a13lZwewi9wlnrb//Ish5wHmK/ngSggN5Cxh5WajNLRHkqYr+o8A/Ak9VkHAdJG9vEzhHLVjLyv9cMKBEaJz4PulvIB8G/VzRAkeGYRiGYRiGMVVYwMgwRki9Nr8b8O/AycDSLtk+zu1kUSeYuYon+89RaweeHgF+BnxHkPOKpfLlE6e0ogJG0clWExMwcoyXbYECcAzoMSCbNoeCBpocPhEvmJkW/l0jayAFharozcCHBT5vgSPDMAzDMAzDmA4sYGQYI2ChNrcLcIogr1B0mcupx+Pyh49lD2eNxDly3RMc+CnI10C/VizN/m2ilVaOM4x6jKGNBTkK9Hjg+SDLvaMmXMNKHFsYg6PFH2AKvjZcVJ2bgQ8CnyuWyg/azDYMwzAMwzCM/GIBI8MYIvXa/Fag71D4Z2C5K0jkd+r9WSNBxz/iaHu82808YaVfCXI2cG6xVL4uN0qrHTAKnYaG+7F8BIz842puM5BjFH1JK4i03JstBFGByO4BxuCYjDpxjWaNo/eA/L9iqfyIzXTDMAzDMAzDyB8WMDKMoTj08xsr+s+CvBNfNoy/zow7dyjowKszyOQuisy1in5R4MxiafbqXCqtSmMtyIpwzR4i/s5fwMg/1uY2A5lRdHWzeLYK4AwQuWsW9aqN5TqNrx3m/B3w1pnS7P/YrDcMwzAMwzCMnPleFjAyjDSd93lR9KWCfBB4tMvx9jruvskYUaQ4XLsotO3sQUG+CcwBP8x7xkc4YBQSb5BcB4wC42930NXAK0F2cwnImzEUVcPIW+coutC2bwx+H3jLTGn2t6YFDMMwDMMwDCMnvpcFjAwjNWf9aYp+Anha9KlWbhzbyULFjB3FiK8AvgD6lWJp9rapUVrdahiF4hsC6NQEjDxjcQlQAH0VyDHAUroKLJjt5i+gHqydBTiKZKuCzIO+q1iavdU0gmEYhmEYhmFMuO9lASPDGNg530HRDwmcHGfrWHhbUPC1/kwkf06RrAf+G/RTxdLsT6dSaXUteu3K0mLqAkaB8bmLov8EzAqynfcUvWCtrKigUPh3V/Wj9uesVfTdgny2WCo/bBrCMAzDMAzDMCbU97KAkWH07YhvoOhrgarAFkQcVQ7ho8wXHfBu+6gCWUV3KTovcFqxNHvtVCutKT0lbVAWanMbCXIc8GbQA+iy5WxxhHb+dp/K59661l5TfgfyT8VS+SemLQzDMAzDMAxjAn0vCxgZRnJa28/+C3iS24kOuuJCuIaMhN4TdNsFuRY4TdEvzJRm7zTJuwJGzpPRvFjAKMBCbe45Am9WOMolQVeNo85zEhizwdpHoTDUl4G3TtO2ScMwDMMwDMPIhe9lASPDiE+9Nr8C9IPAawDRgBMd3tITdr87znY4a8Oz/ecSRT8g8N/F0ux6k7xHafXKMFJAbEtavPE890SaJ/kdr+jSYHCoM7bD1bUC49U3rsMn++ntIG8D/VKxNGuLjmEYhmEYhmFMgu9lASPDiOtczx8L/Cfojv6i1O4jyL0nmmnAqV50soOZGSA/A6rFUrlhEo9QWrYlbRhjew/Qt4K8AljmqmWEZ/RGZRZ1K9LemgM/BGaLpfKfTeqGYRiGYRiGkXHfywJGhtHTmd4O+AzwErczjDNTKBwg8jvZAWf6Z4K8q1gqn28S76G0ggGjqDI87cfkCK2uNLnGG+u7Ae8EfQXIsvjvDAdGg0En2s/pvSDvAj3dsucMwzAMwzAMI8O+lwWMDKOrA3088GlFt/UHfHA4w53/B44bRyOf14sU3jNTmrWMorhKyzKMRjHudwMqir4cWBp1Qpp/7BMo+O4f7xDa3naBwstnSrN/NIkbhmEYhmEYRgZ9LwsYGYbTYd4G+CxwnCtbyOH8Olxn79/+dwtcBbwT5L+LpbJNwiRKK27AqCNsCxj1PQ/m9gY5FZhZHMGdUS8RQpfIGl3e17Q+7x7g34DPzlhtI8MwDMMwDMPIlu9lASPD8LNQm/tHgXmQnTpOcrhwdedvIGI7mqO+0U3AuxX90kxp9mGTdh9KyxUwcm1L62ABo8HnxFME+RjwTH99ru5F3MPzoTNnAkGnHwAnF0vlG03ahmEYhmEYhpER38sCRobRdoqXN51ifW1rengc3OgTzfA7vqH6Ra3f71f0o4J8pFgq323SHkBp2Za0sdEq/P4R4HF4RnxnlrjqdnV+Cxd8973vDqBcLJX/2yRtGIZhGIZhGBnwvSxgZBiwUJvbV+AskH29NYc6+UP+yi3+vCJvcKj5dyC4dBbwtmKpfINJOgWltRgwUkBcFXVCWMAo3bmyDHgd8F5gC3EXtg7NnfBZgsGaR+35Mqfom2ZKs/eYtA3DMAzDMAxjjL6XBYyMaadem38t8DFguQaCD65C1/6Mo6Dz68uY+C3o64ul2Z+YlFNUWpEZRpHBIwsYDWfe7AB8UNGTBYQuNYuCgSFXUezA878X5Lhiqfw7k7RhGIZhGIZhjIclJgJjWlmozW1er82dA/oZ0OXBbTQS2lAT9ZcEg0V3Am8ADrJg0SjRrn8a6VIslf9WLJVfIfB0kEs7c0HbHaC+3CNtP+oNvnprIkn7edlH0V/Ua/Mnm6QNwzAMwzAMYzxYhpExldRr8/sBddA9/ZkR/mwIrxPsOhXKf1w4gJ4LvKFYmr3JpDwkpdWzhlEo08gyjIY+n+Y2APln0PeBbBacJeFC8UJUpfJwDTC+AvLaYql8r0naMAzDMAzDMEboe1nAyJhC5/ZkkP8Elke/Sj3/D9ZeCRW0BvgL6GuLpdnvmoSHrLQqjbUgKxKkEFnAaGRza35X4NOKviCwPRN/HaNuJ6k5i8z/FnhxsVS+2qRsGIZhGIZhGKPBtqQZ0+TMbrhQm/ssyJfwBIv8m2Y6gSJ/0V4heNKT5/fPKrqvBYtGiW0/yyLFUvn6Yqn8QuAEkNv8QSDaM2pxhgU3rS0+739MUXQ/4Ff12vzRJmXDMAzDMAzDGA2WYWRMBfXa3KMUFgQ5JOy8+gmf+OQvyrv4uKJ/EniF1SkasdLybUlzBSRCWIbRWObc/HbAp0Bf5u2r4PZPz3xyZCMF+1dU0X8X5P3FUtkWL8MwDMMwDMMYIpZhZEyD4/oPIBcDh3TiQ15H1J/tIK3/AEf2Q9u5/YzA/hYsGjfeXLBg3xrjpFgq31oslU8AOQ64w1/vazEcJJ6C1945J1E1w0SQqqLn1Gvzm5iUDcMwDMMwDGN4WMDIyDX12vzLFP1f4FHt+ILnHDRaJ5yFK60sPus/9UmQG0GPnCnNvr5YmrUivGNFAv92wgpGdiiWyucCTxTkO50taBIKxgaLzGsoE1C8p6i9RNEL6rX53UzChmEYhmEYhjEcLGBk5JKF2pws1Oaqip5Jq16ReE7PUk9mUcdBxZHVoN5cpHOBJxVLs983CWcBDfxrZJViafbmYqn8fEH+CbgPz7a0YFUwegSOOtvXOEDRX9Rr8weZhA3DMAzDMAwjfSxgZOSOem1+I+AsQU6RiK0t4sksor0NzcvieU4CyD0C5ZnS7HHFUvnvJmHD6I9iqfw5gYNAfuOfY+GZ552rnWf881eQHYCf1Gvzx5p0DcMwDMMwDCNdLGBk5Ip6bX4b0B8KcrwGsolcuQrB3AYHv1H0wGJp9gsmXcMYnGJp9grgYJDPLM5PV7i2lUXkK42NoyA9sDFofaE292aTrmEYhmEYhmGkh52SZuSGem1+D9DvKuzVKavbdC2DJzP5sxbE46j6nNfPK/rGmdLs/SbdDCmtypq1oCsSvMVOScvunJ0BvgBs4Zh/7aARoQpj/uLZHj4FvMlOUDMMwzAMwzCMwbEMIyMvjueTgZ+B7NXZroLn//6TmTqup/80tFbW0T2gJxZL5ddYsCiLeIMEEu/lRiYplsoLih4IeomGalJpqPs6m9gk1LGt979B0bPrtfkNTbqGYRiGYRiGMRgWMDImnoXa3BHA+aDb+x1OCbmagRPP2s96Cuz+ETi4WJo90ySbVbyZJep4rvdDRnaYKc1erXCIIF8WX00jIViDrFN7zI96itMDxynaWKjNrTDpGoZhGIZhGMYAnpdtSTMmmdaWljMVXRYsjevNMFLfqUziySjyRRW+peiqmdLsnSbZDCutSmMtsKIdMArtSmr1p+ri47YlbWLm89xrQD6l6Ib+7aThuRyc04QzBn8JHD1Tmr3VJDuxc/07wGYJ30UgkFzWauFPk9XuNXuCzvf15s40uFurhWPG0GenAofG7qfe+juLPRQYY46bFwqI66YGp2i18NMhyf5Q4NTe19X1Y/6k1UI553plJ+DMLnMnivuA52u18LBp52lZg9Z8EvSAAdegfvR3+qT62W39/UY9tXBpinPzAOCTGdbfLh4C7gHubv7ItaDXAteAXKnVlbnwKTcwdWBMKgu1uZME+aKiS8QXBPI6jerIM3LVNuLdQHWmNGsR1IlB8cQRws9ZZtHEUSzNfq5em/+NwH/TPAGNYCeLb5tpJwSMZ9a3nn8q6I8XanOFmdLsDSbdieRQIEammNewC6nwzSau1aqbITyrLwekM1XWjenq9wXvtaelv7vJIKGDFstxCnym7z3qbou3NqIQdU3bDlH22wLP6lyrdhsfUWw5BWGAE0GfFV82vrFwJPBdU81TY2ce0NFnEpjrGqW/A2OpL/2d4L0xdWOqNnH7M9PWF1v2XD/Gq78T9o2qVBpXAj8Dfg58V6uFmyZxJtiWNGMiWajNvVbgy4vBoujpLJ78A/U5mS3uVbRYLJXfZ4VyDWP8FEvlnwNPBf21azFWX3CoU+fIGy7u6AR5oiD/u1Cb29Mkm0dbPq/+bB4aKokjFf13tg5waRJxbYE70BLnazUbfSVje/OkKI7Vydrs69PVpnhtwQkFI4amvzXGU10uwLmLSPrQAxnSC5nR3xrncQF5AvBKYB64USqNC6TS+FepNHaYpNFvASNj4qjX5t8OfKZTwLrjKkpkJoK/2HUrgHSdwCEzpdmvm1TziqUZTSLF0uz1IIcpnOOdt+FtaITmvoYX7ccC59dr8xY0ytv89d0xjDBw7TbAmJ0rGcBpSurYSJfHot6nMTw+dT8nSa9XJqjfcqpRmlte9g21uauv6BtPL5RKw+rj2do0/mkt3eawdHmNS9/JEPR3Gg3Lg/722ScCcgjwH8D1Uml8VSqNf5iEEW8BI2OiaAaL9IP+g7fdEzSYieA/CY2LaRa3/o1JNc8LunmLk0qxVL5X4GXABzomjXiyitQTKNKAJggFEHZW1IJGExt06GcqDyMN3xhdAEJi9r86nBr1/KN9XFec56SPtg57PZLBumQ6lsvVsX1mp2B0OTBj89r02ujs2H6e0wTv04wphQnT3+r9PImjQxZ/WQaUgIuk0vhR1gNHFjAyJoZ6bf7tin6ws7JHnZcUvtsccCy/KcgzZ0qzN5tUbUE3skuxNKvFUvldir4c5CE8BbDFMcc7/4onSNwOLO2s6AX12vyTTLKThsS40TnMaqGm9sbeEOnHaZo2QfdbJ2XMohyVFqk0lgInDNZWAduWNqX6VIY//XUUn2O2caoy8NU76vtzj6AZOPqKVNZsl0WJWcDImAgWg0XicQQ1tOprwHHszGZPKdzTBCkWS+V7TaqGMRnMlGa/DBytcGdnrrsW6FCQKKAJ2B5oWKbRxLh4hG4OdEsjz/uprxpTZFMzNnoIxeKHhp8jgR1SmITPlEpjdxPnFKmZoK6RfodOUv3dZybNsK5vbLKfGlaD/l4qjRdl7cIsYGRknlbNog8GT0fy6hRvAEnbzqT4nEfg34ql8huKpfJ6k+pUrvbGBFMslb8vyOHAzf79AwKhUxIlYAep1x7aSdHzrRD2BKBxilBqcDHI79yfOnUWd8tFmpE06fMaJdsdpBHXPl3JBqsT9XF32awyBT3FNuWwSrKNcyGQCZD7dOjvbUG+LpXG6VJpLMvKRVnAyMg0C7W514N+MFipaDF7oLMBrbPlzOswtgJFD4GeXCyVP2ISnTqP00SQI4ql8iWtgoF/jFr81bEf3x9sVgTZmWYh7F1MqjmwEZ3vURPcxH9/jBpGmvSzelxb4iw1b6ajTtiQcB3/ndMZUWlsARzb6SvpPY66i8MCRlNrU8qQp4r00HU6ZFUjGZV7hvV3okQwiTvOXg98XyprMlFk3wJGRmap1+ZfLcjp/gnUKXi7OO3Ed1vZ7zAqeh/w4mJp9ism0WlxhiTm64xJpFgq/xl4BnDpoi7wF8J2930485CdaWYa7WhSzaldP3XtkYw0PknB1Zj627kVsR/HTbtfiwzaVOne5pF2jUz5pPExAyyPPIpcEg+kx0ml8TRTtNO8uEj8uTaQ/pYeX5d2dswg+nuUa0sW9Lf0/l7pazAsvu5ZoD+RSmPsdY0sYGRkknpt/jjQz3byh4Lzz3u0dviI7dbfdwJHF0uz3zGJTpPn5L1jYEGjPFIslW8FDgcuCOuFTtA4nG0U0hN7CPL9em3OjknOGyL5bY9OssOflv5OI6OnVwZTjDEUyxkYsPZJfwMmvnym6XQ0iWq39v+ZhtmivcbPUPX3KLMbNZvyH5v+Dq5TkvQL4/Ak4EdSaWwzTmlbwMjIHPXa/JGK1hSWuEpah7OJxHGktt6m6PNmSrM/NolO81puW9LySrFUXkeziOkaf7drxD0if7CoE0zSfUH+p16b28SkmjVkUAWQT+dEvLKRfPZl3/pb4r1G47xNJ3aIJHpP/k9H2x14ZqrqpcnxUmlsaHp6Gm3LUepvTelaBhnwo1ISE6q/NeifRl2Y9jts9gW+JZXG8nENewsYGZlioTZ3MOh/C7JMAoVtFx2+Tu6AOk5EA4XbgGfPlGZ/YRKddl/TMozyTLFUvlfgBYJ8231eokSuwIGy2E8Hvl6vzZnxP/mWef4U2UQfkdznNjmn/u73Lr3DaJdRt3/UXxVzW8l0LJEnptdS38dsDXK06ajcG5IDTOlB9bekqF4GCcCPM4Mp6/p78Xoc1z7oya3+rz8E+Ny4ZoIFjIzMsFCb20uQ80A20cCR2eo7Bw1PievO6UetjIHbBHl2sTR7mUnUMIcz/xRLsw8CMyDf7qyx4tMZwRVYfVmK7VV5Jch/LdTmLMo4CUZ76PGcdptql7unk9BmTee9wYyjRMWadYRNlNF+d6p9klvVtzo9cQVlp7YtzWzIIepvTWmeRmQ06ZDbPwl2/DD1d9KlqffXnSSVxsvH0QsWMDIyQb02v70gDdBtFh0+b2BefNkCYcXX+u1vCs8slsoWLDKMKaJYKreCRuoLGnlrGoULY3de59EiJwnyPpPopBjtSmQR24lnlM5EltrUz1s1Q83S4cmgb0HJgPNsgmdRpXEwsNdAspSucj1q3LVFjCzqt2Hp7+C2p6RzW7t/3Fh1Vx70tyT4WyKe7inn01vbbEfKBjbBjXFTr81vAnqewmN8eUNK+6/FjIHOtjQNbji5TeB5xdLsFSbRaViULXPI8FMslR9cqM3NCLIAPN97Ypp342o4N9EbNFJATqnX5q4vlmb/y6Q6acZennSDRtun2q3dmvE2xeqjy4Grh3oJQ12Duj2vN41k3PR8bGpYnY4sNdC37T7eEOV44LOmjM3ejNDflwDXJdffru/u8Xfws7vqOyHZ9i6n/r5tLEtId+4Dvjck/e2Ko2wN7ALsBLq0+3ocp1B6z/G2aUvfHDVK0VvAyBgrC7W5pcDZAk8JlqQlUJ8oGCxafFTb29Ass2g66FfRG3lnpjT7YL02PwPUgWP85yh6z1wUz99+S6QVaPrPem3++mKp/D8m1Uky5nU6dEHfx/ROjP7+glYLn7TxPQmOcYZb1CxIfXy6jqnDERRWYwGjKbQ3owZN6D2nabXwZZNlCrpIYumrW7RaOHYM+mZjYH/QQ4FjQA4DXRJ72CTjH6XSOEqrhe+Oqn22Jc0Ys1qQDwnyfFcM1n80tr/QtWeLyZ0CBQsWGZPnOBnDoLk9TY8X+LH7BGX16h/8IaP2drUlwDn12twTTaI25bNnTMd5zDrTIMFYyaXsjwK2iW6mRDc92ZQ6WCqNvWxs2XwyHTbkpaDrFnQZ61qo1cJ9Wi1cqNXCf2i1cDiwO3AqsC66TRLehqaxldCpo2yfBYyMsVGvzc8Cb/FOC1eh2sW8Iv+ZaUAz7fCoYmn2YpOmLdj5daKMpBRLs/cCxwAXNUdC4Ey0QBBaPdlH2l6vdXOF79Rr89ubRLM2tz2WlUS9J6+G+yRuOZIB+thId8iMu8bSSFnVvXldtn0mL6i/ygbaNK1FeV9nxqywJELu3aaiaqb6Q6srr9dqoUIzcPQJRB6JVs6uAx16tuXJUmkcOar2WMDIGAv12tzhoJ/xz5BwxZHo6S8PCVIslsoXmDRtcXHr1kk5RcgYBs2gkfyjopf7axX5w84S2PDfOYERBNkd+Hq9Nr+RSXRMcztxQU6vPpjm+S8Z+l7tYv+q+V3Dlv8UTgOpNLamedNgMLui5+BsC3eVVBpmcOTdzow1JozhyT2DS16vFlQLa7VaeDPoYcBfU/74t42qHRYwMkZOvTb/aOBcYFnn3r56ahOpp86IeJy8xSOw9RFFV1t9EVs/ei8WtqhPM8VS+e/ASpBrXDXQJOLEkcCoeYaiVp8iQ/5vLMUgeZz/SSziMbVdtfvlT92J7llysOJs2cjNnDkeZMMRyvvRwDNt/Fnswhj32pfR4VMt/Ax4Csjl/Y03pwyeI5U1e4zi+i1gZIyUem1uE+CbINtql4kQ3DLSeZUAvHmmNHu2SdPWjXgvME9kmpkpzf4VdKWity3qEK9+wRE8ksAmWYFX1GtzrzVpmnFvjUqqn8VfkyGx/jbSHT86LU1d3VdbBxOPbUuzmIUxFMHnQ29ptXAT6LOBP8YbbxJDOelLR3HtFjAyRs08sP/iNOhkEPmnhIS2i7QNnf8olmY/ZWI04lt8dlto2imWZv8kyNGg9xHKMAqemeZ1qrynMfLJhdrcoSbNLFnsXTImJG/tnGB9HL8mg+lrY/DZU2k8DuFp/b15oLn3ktZJScbUr0u5WYwyYM7rgP2RsSZVC7cCxwL3JFsPI9tlASMjX9Rr829UeNniJOiU+lKf0yb4M4s6FY04S9G3mSSn2hDc2K23ui4QG5rkjGKp/AttblN4pBMU0rZDKz6tFC6ULcgyYGGhNrezSXOs1qP/b9XpaOckGcyJu8QcKiNVVvU/Fl1zT+KO0y2AF5r4c2uB9qmvLQieusjTXYBGv0RWC78H3pFSu/aVyppHD/uaN7DRaIyCem3uEJCPereD+OuHBBflThZA8xn9CcjJM6Wyad5pWScqja1RnoHwDOBAYG9g1+YtwEQL8hqpNP4KchXo70AuAv2JVgt/MSlPFzOl2W/Xa/OvB/msNzwk6s9sXAxcB/WTIDsA59Rr84cXS+WHTaKTalDmHR1vh4iGl3Vfh5lDZQzNbhBgVXucxT1FsesZGUE7tet4XQ1YyQTTq8ZQFnt1/z2ZZ9x8FpgFnpTC2DwMGKpPYxlGxtBZqM1tD/I1YINFR8x7DlFHFauvvsji3X9BrgF5UbFUftCkmXtjb3upNP5ZKo2fALchfAv4N+B5wG74C2Ik+eSdgCOA14N+FbhWKo0rpNL4gFQajzfJTw/FUvk/QU/TWHEHCZ2iBjwD+KBJMovGZO8endz2DOs9Q3Sq7CACY/QcSvMY6y7j06H9Je4Q7Xli2pFSaexg3TAta45kWBfnTbaacK3JNlotrAc+kKLeGyoWMDKGSr02vwSoATsvul/BIJHXMesElJqPKaxT9OhiqXy7STPHS0OlsYdUGv8PuAE4raX8JB3HSCKMRB5PMyX0Cqk0vieVxmHWE1PDmwX5n45Ool0GuzNiXHvH23e03lKvzb/AxJgp8ytngQlNpvd0ktpszpT1x9BY7Z4/EneuKcKnE8lOfZ+zFOQEG1PTuObkaf3JgGx1KmRYB27tPmRi6eeDh32hFjAyhjzl9e0Cz9Oexq96jrtuh4weEZiZKc1eaZLMqZlaaSyVSuM9wBU06w4sG3yh7uu1zwP5P6k0zpJKYyvrmXxTLM2uV/SlgvwOXw21jm4K1lIjcGKjol+p1+Z3N2kao3Pku5xJP1E+vzlT4xk/cWqwTG7wSE5pLAeOc7chdhv/F/hkorEc/rjVNvbyPpeidJnkYi5lQtZTID6tFh4CFrq3N5bu2nPY12oBI2NoLNTmDgHepxETwO98+Z9p/faWYmn2BybJnC4JlcamwPeAdwPLxrI6aOiPl6L8SiqNPa2H8s1MafZO4AXA34N11bR9Zlon81F9Q0YRZEvQM+q1OasFmEmDMw/WZsBQ1Ki2WgDG6DJ+vBkw6nU6egVWJm7avwDYomsb2pl4kcG0s7RauBr4Vf9BBT1AKo19bfzlcC4lep3p5f7EPHVy+9FA47D50GZSaWw3zIu0gJExFBZqc1sBZwFLO46Yf2GV0AY175KrtWJp9hMmyZy6c5XGUpRvgDw7ttOjUcZZvw5l5Ec8FjhfKo2drKfyTbFUvkbhpYI84t0e6x8a6qtktJiJ1AoiHaLw7ybJ4XuCya3OvBmdOtk1gVLV30by6eNd81yHjeSioSf1HGMSNSAVkM7dfk1auDpkw1iW0bSsQRYXyqgdMDFckJIfM9Qb3RYwMoY1rf9TmkWKW/o0mEPUcc68d/Jbj10M8iqTYq55G8JzCeRtxF4r+rkLoY4/ok/Q3Rn4onVT/pkpzX4P5/GmwcL83jprvv/eVa/NWf2roRqISeqRTLOhLJPRhOm8izxmNNfebrPQtB45WNt0jVYLdzQ/UM4Nf4wk0FGcKJU1S23c5Xj+aFy1a8HxdJY6zaUstVq4Cbi7uwC6ZIN2huaKYV6nBYyM1KnX5lYpHL/oYnn/DW796EyDxSCS/h10plgq32eSzOl6UGlsArxtJP6T98US43P8f6+USuMQ67FpMAX1ozSLD3ofw3/X2LUxTQFdAnJGvTa/pUlyXE6u5NEHTlFek+QUGDaE+uJlwKDbg8/oOHErrwN+5h+v2ltgnT93Ap5jA2pagxvGcBVU7oT/l3g2T7esSTYZ5gVawMhIlXpt/tEgnxZ8tT7aVUHCm9C8p6SBQqlYmr3WJJlrngek5FxLjOcGsoDttJMpYKY0q4K8HPhT56TGzulp6gkfucsQ666KnmaSHJeVrjm3JYO1Z8zjMqxLAqwasKH3AN8KPJZ8W5rvY3WVDSibFJZNmabsJa8yvcvfPkkwltqv3WKYF2gBIyM16rV5UfTLzUHrP4ZafBVB/PUlPCcTvX+mNPtdk2Tu2T+9dbWb8tQBP18ADrLumg6KpfJdQFGQ+xVvNqS7BpvLYanX5l5kkhw2XU4MyXP8QbopMMlBX05DJ06Kgzthra00nggcOODY+6ZWC/cGzdpkVkPopS+WSmMzG495WHNkKufW+HWYBuqI5zb49oBfh6R+EvTAWMDISJM3CHJ4Z7pL+758J7tIQ5vRmsNd/5fmaVlG/tl6eHZuj+LZkkTHKsAO1l3TQ7FU/i3w+kX95R1TEjAYFzOR/ENJ/qtem9/eJDlMAzIwiXUstlPG/Jm81HiyE9/Sc3D7EeXEOsOrUxDXmaGHq4W/Aj8e4JM3AYo2HnM0p/KbxppReQdEnV+xpxFYfniYF2gBIyMV6rX5xwEf6BxJrb5C1/6jqcUXTBLkdkFOLJbK602SRmqLTFLbWE1HGlAslb8gcFZQh3X+8mdH+uu06baKft6kOAqDfXEeS/e/pwEZQA9Oqv42eg8Eyb94pdJYApyYbHhJMFHxduB7Ee86N+HkC2Lb0nI5x0xXGamyRbLx59Rvdw/zAs0ZMgamXptfAnwRdGM8zpN4FKu3LsjiljTPNo+XF0vlG02SxviMa7EbRoZ3PLxGkD/7R4j4zMTFekYa2HILHFuvzb3EZDiquWspRoYRPfYllq8xwXPnOTRPNU2gNjQoiwWtFh6KMnFp37mXPmQmz5ZKYxcbmzmbY2pLjpGSNVNpLAV2j7ZxvI913UGxbpjXaQEjIw0F+k+gh3qDRf4i10T8XwE9vVgqf9tkmHuFKFJp7CyVxtOAW4HzgN8Ca/tzEoOP9xPtiVzxFeVm4FfARVJpHCuVxn5Wi2B6KJbKd4KeoLBePSeiSSA7Mhy4aAfKT6/X5rcxSY7KMZac+cApxwyysQqkrL+NCR8QaVFKYWyeESm9auFW4Ie9xRlV40YF5EQbh3kzamOsPUbKKiu3st4TWNZbCD11+XXDvMgNbGQag1Cvze+i8EHx1fWQzplnrUmu7dpF6nG4uEKQt5kUc7aOVhpb0ywWfRDKkxCeADwe2Ni9AKjjd9fzGvDN20HHLu/v0xQQ2RF0R+ApwHGett0M/B64DPgdcDHwW60WHraezxfF0uyF9dr8u0FPjR5b/rHpqWu0A/AJBq2tYbhFnmQL1sTamOJprMaUQ9baOxb9bUyPrbEZg9cIuh70gh6vORdY6chMilwLAmP/JODD1mMTPdrwZRdFZ6vF099GF1H3sre6yFsncc2Xw3q3L64uGx4WMDIGtd4/A2zeCRQRqF2EI9NIAR5u1S2632Q48UbbCuB5NFPDjwD2djovPRV5ggVCEi7CiReRyM/esfkjz/a85n6pNC6hWRzzB8DPtFp4wEZGHmIT+iFBjlH0aRIw/LyF/H25RZ3Btqpem68VS+XvmSRTtttjz/VJNtY1oRyy2NaU9LcxxLVuonkRsOmAn3G2VguP9HhNHfgsyobxZesb30+QSuMgrRYutgE6yROr2xokzcMHJKb+Nvpf+5xrncazD7LZ3qNT0Ol/0mrhwWFepW1JM/pmoTZXBF4A3tpEi3NWInRr+5DqdxdL5UtMihPqs1UaG0mlUZJK49vALTTvwL0G2DvZ3u5+F9WEdx9SX0R837UceDrKO4EfAbdLpXG2VBrPl0rDgvITzExpdj2wWpD7/EX7F0eB/xENGzGfXajNLTdJjlI55cR71sAvQ9OlWXEIzMFKf/xLAhFP5DxJI4PzzJ6jtVpYC3xvMBGJZZvmerJpRGk902sjWT8mVMxSaWwFHJVkmEUw9GC0BYyMvliozW0OfIqA4+Q9AS1QCLZd7Br0IhBLz51E5XZKYwupNCo098p+FTgG2DBSuUmSgptxNaYkeO2A36V9vW1T4HjgW8A1Umn8q1Qam9jomUyKpfIfFX2rv5C/OCqvLG639Q4c2UPgHSbFrAUnJs3xZ8JrZoxSfxsdOfqPAouV4Tsh00UqjZ1RntO83r7HzJVaLVwa87XnDDZm9WVSaSyzcZnHtUVMjQ1jrejP/p40Xh/yofpr56+GfaEWMDL6ndL/LrCz9zy0zvYM9Yzp5h1ez2MPACcXS+X1JsUJ6u9KYzOpNGYQrgLeB2yf3FnrtRBIzM/pcRJMt+IesYrpabxLirVCya7AfwBXSKVxlFQaG9tomkR9J5+lmT3WGiGdotcSGDuL2nCx8D/I2+u1+b1MiqMMOvRhcE6ckzKp19yv/jYGGycxA0KTI/oTO+pX+23MmQm+7xvA/cnnZPsatgNW2rjM81wzvZWq3hrY/s68X7UN8MaU2vL9YV+vbZcwElOvzT8R5I1e18k7fcVX5LrjVrWyjt5XLJWvNClmWok9Cjig9fPk1r97Dq6hey0Ems5nB43jnsUJ+/3uGAX4Oq/ZjebJcI9IpXElyqUIlwC/Bn6h1cLdNvKyS7FU1nptvqzo7wTZ2D8KtF2hLVjcv/X8hoJ8GjjSJDnMoEOebMpehwFMSXDDSH9cSW5ke1L0nIk7jiR2wEirhbul0vgu8OLQV0gsGwCaW+i+Y+Mwz3pMAmPP6rWNZs2YyIX/48DWKYyPG7Va+M2wL9YCRkY/fAZ0g8WJ2aneoc5p6nn8YkU/YuLLkPlYaSwBDgQOBQ5BeQbCTrF1dezipSNYNEOGW1zjeBjXFvl5S4B9EPYBTmg99ohUGr8BLgC5APSnWi3cYKMzWxRL5T/Xa/PvVPQT/hpt4tluG65j1Mq8fF69Nn9ssVT+hklymHM+j8awToc8LLEozZWd6DpRvU4jnQi75cnAPtFzpld7BNCLtLry6oRffTbtgFHrOxLdhJIXSKWxQquFdTZG8zSvgs/1qb+NYdvfWdJhJ5PeKbpfH8U1W8DISMRCbe4lgjzLqyC7JZh7zkZbD1qeKc3a8ePjV1SPBo6mmfHwTGCrUMf1/BDn3TPHh2hCBT7AUaRJjtoe6uIiST93Cc1MrieDvr7VR78H1rR+/k+rhfts5GaC0wV5qaIHd3pbfP/i0Iqtjbkfr9fmG3YyZNpTTRI6i3lzVLrpwIxfbyavPe9jxbW+Ttx8OWmwNV0Bzurje78D3ANsGvskJ6+4RTeiWd/wv2yc5i0Q0c3WNeU2YqMg6z7YC7rrgLiByTZfGMV1Ww0jIzb12vxy4CMaMM79lTw6B0tr+767AnxypjR7qUlxbArqSVJpVKXSuAy4FvgM8EK8waJECrjXwqndX6P9LLppLgoyxPcpyW+Xh167D8ibgAZwh1TWfF0qjZdKpbGZjebx0aq9NivI+mCWEW2dp4Hf23WNHgP6ZpNiGjZ6t2NDdFqEMMHXaw7UcGUvORtPPltmA+BlA67bjwBfSyzZ5o2b7ySaAxK6hFU2Rm0RM4Ztf2dWf50ALADLnMND4/hXPn45iu1oYAEjIxlvFmT3qEkcDCN5HKrrgHeb+EaumLaXSuMtUmn8DvgtyCnAvukr6Ji6TdP0F/otMpg4+2eAhX/Q17YfWw76Ipp3RG+VSqMulcYxre2ExogplsqXAR/vnIrmD3J6/QN/zpEC8q56bf5RJsVBVZBOoS2epyCLFYk1B7VvjgTZfjB5yI+1Wripz+8/s7/52v77UKk0Hmtj1DCmR6+1Dg76NHAG3mBRUFVI4jXxA6Nqg21JM2JRr83vCLzT7XhHZ6C0so5eVyyV7zEpjkwxPRV4C8299huElK2zywJFVnVxb/4AtQ6C3xN1EM5AtSuSbkWJShceV4HCpDWgZDnoi1t9e51UGp8HvqDVwt9s5I+U94IcD+zmLXItjgG+WMOt9ewmoFWgbCJMawpJr3n9Pqk07kisViTB3E2//s7Wkborkf6eJAfA14/PkkqjDx2aCf29YDXohspJyfs4tAXvzAG+fw1wJ7BF9+/SiL+BZpbRe60rDSP3/tgGQInm6dK7JlsTe9okvwW+Oaq2WMDIiMu7Fd0UCBwj3anXIYEIQMuJ+m6xVLZTIUajmA5rKaXDuxrPzvie9nGaWA/jXLoovT5OyPYrzDgnosR1JFKo5RB3F4BE1Y5w1W5yFVH0Xd9uwPuBSitw9OEB7poaCSiWyvfUa/P/AvoNb2gomFO0mGnpPxBATq7X5j9ZLJUvN0mmHXRwPv78hA5/TJ2kCV+fSjBiQP095m6Kr7+PBTl2QvX3pcAEBYwmp+aXVNasAF4woI54EKj3PYyrhQek0vgGvoK1Xts31hbZklQa79NqwfYq5dci9/b9JlJpbDmQ/klj3vZ3Y+MurRbWZ94EyNiaJ5XG3jS3zr68Zaunv+7DW0apQyxgZPSkXpvfm2bdDo8r5C72ujiyW87SA4r+i0lw6IrpcTSPZzzGrzwT6BEJGj2DOGpRAZAeSr2X0pe4353UkRh0m1rMxUp6OT0JCpH6ZbUceAPwaqk0TgNO1WrhLpsZw6VYKn+zXptfI7DSfZxuJ2jk/12XgnyoPV+NZEZUqsZhn5kpPYMfaRi/w9bfY+jCqdLfk8IkXbO+pLXeReiCWH1wXgqnlJ2FL2CUWIZ7Ak8Hfma6PWe49fdnWj+TaH8/Gbg08+aBnyXhAJ3ElFmi9X9TmtvLtgF2AfZoykueATzG/b5gBnA3uz9QON//WefoqYXvj1LMFjAy4vBBYKl6tpmJTyF5naPO7FX0YzOl2atNfEPSkZXGUpB/Bd4DbOy0n+Nu+2qe4DEEI9SxaPmv6yFE/g66DuFOYB20/70LWA+spVmk8k7gIZqnlHhZ33rtYutXOC5oS2AJyBagy1qKfiNgc1S3QFjRet/iz1axFpJEzmvS7XJdjj92G8nLgbcBJ0ql8WqtFs6zWTJ06/CNwGUKG4gnfU78ASKPvmxnXx5dr80fXiyVzzcZxpw7ruzEVCzNPopkSj/fEfM480zo7yx7BoF29tx+Ny79PSmynKhA1ypfn4Vq38fKrjsrhev4IfB3lK360kfNNqyygNGkz5Os6u/Y9ncnEC5Zl38i/b0r8PcR29+Oz3IF7NQzpOKcaIkruHQzwsiTMSxgZHSlXpt/GvCi4KTxBo+8Wy88w/qvIO83CQ4tWLQ1cDbo8yIVp0QpuEEdoC5KvH0dcivoDcBfW//eCNwM3IRwO3AbcIueOvCdvmHJdwmwbfNHtwV2QNkOYVdgp9bPLojsSmurZnf5JDHKu91pivXYzsB3pNL4FPBWrRYeshkzHIql2SsXanOnCfLm4Ol4Euhz9WjP1ja1DwFPMynGnBNDCYj0qmk2aCDBta3U8d6R6++MGPyxX+sPuCbbDthNxhJzDPSjv7Mu97gnkmZmTX4M8MxI8cbL+LuT2KecdZFctfCQVBrnIryqt+wjgwovlUrjjVotPGD6PctkUX/3tL+jrztUDiLrJ1qOS3/3bX/Hey5pFnHn8xRYpdXCLRYwMrJGNTwN1VnHSPzK5Z3FUvleE99QDKc9aR63vodTx0Wm/g96JzG0CF0PXAVcAVwDXIPwZ+Aara6c6CLnWi08AtzS+unVH9sCj/X87An6eGAf2tlOwzpdLdA//rvtbwD2lsqaolZX2lwcnlv2PkVXCWzn2Y7rmY6LWUadd7QC7gcv1OaOninNWiZY33MiqU6LMiR7BXb61ZUa/+VD199Z67skr+22PS2mXKTf7xuV/h6n3CeCUrSDHLvd39Bq4b6UrudrEBUwirWdckua25LrGBNvBIzB/u6i42IEUWJnV2q2ZJxZ/R112MQAW+HcffQWrRZ+MI4usICREUm9Nnc4yHODxVt7axz9NfBVk+AQdGalsTPwI7zV9rulaEfujU4Ucb8T9DetYp6XApcBV1qdnJZUq4XbaGZM/cLRXzsCjwcO8Pw8cTi613knqwBal0rj+VotPGy9lT7F0uy6em3+faCnq2/7Ga4gkWeqCqCnLtTmvjtTmrXip3EMqq4GOTGMrihDMi1Dvg+jc+j6O+djItFzScZKnhapqHZFbbvIJKuincjYfX5WitdzPnArsN0An7EaCxjlZ24Nx/6mr23TvQIhEvwlK+vJpOpvjRfUSmLDhD/vNK0WPj6uFlrAyOg2/KsSMX61s63C6/wsvu/NM6XZR0yCKavRSmMZ8A1iHc1IJ12za42H0B13Bb2M5t76i4Cfg/7BTvPocw5VCzfT3Ip3vqcfN6IZOHq652fXuJOyjwWxQLMO2VutR4bG50D+RdDHuVb6iOLXKBwgyAxwrokwhqErTp1F760BwzRoh1QHpj/9nQHDf9DionHa1GsbQNytCnHHyoQH6CSJHLPXTqk0ng48LpaOiK4NciuQWpFYrRbWS6VxDsjrB5DZUVJpbNu66WTkymBPS38nqJ806PqaCV2XYf2dRkCq//f/J8gbxzmkLWBkOKnX5p4rcGhzfEtIEUq7Ftei49N2iM6bKc3+r0lwKPwb8JTYCmhxoeoa9VaAP4J8D/QHoP+n1cIdJuohLofNmgUXtX4+2TKI9wQOB54NrAS2jrfYxF4I/1VOaXxdTy383HogfYql8sP12vzbgbr6tp8F9STtQLun6lulXptbKFqWUZ/BCFc9m0EDKXGPcXc9lvC7BtffpHcXelQOQdznXUWuibhD690SoDELzRJR9yP4dx6mpnZ3gLKdXbUq9hyNrg3ytSEcD/410Nf3Ne+b8t4AeCnwadPtE7wkDV1/R6w5ec2IzKr+7t/+7tGenp9T1Wrh38fdKxYwMqIG8CnhWblolAVHf9sdUoF3meyG0BuVxlbA2xMpGumqui4Avg58R6uFP5qEx7w8Vgt/Av4EzDdPv+NpwPOBl6A8NrovYy+EgnAq8ByT9nAolspfr9fmfyboIZ3aRa4pGcpOeZLCC2lmDxoDBRuiXqcpfU+vrVBJv6sv/Z08yDJxHphGOw7S5bXezJJe2wN820hiZN/0d4T7+KaJJHmNZPaUvVZG7vHJdIGzb84YwuVdAHIj6M6JdUanf1ZjAaMc6Kox6G9JOOcnTbRZ0N9d5ZrCjaHun3Mf8AqtFs7OQpcssQlvBKnX5g8HntU76qBBj/TMYmn2NybBoVCieRT8II7QH2geu767VguHabXwCQsWZdDWrxbWa7VwgVYLb9dqYQ+Eg4HTQP7uWCmT8OxWJpMxND9N34Wv3puymIHZrGPU0pRhPfrvJr1ULMrA8xLzcyR2Dyd/Xgb4vH6jBeOOVgxyWZrQ0Bb3e7XXm6WP4SYZknMX0UmMNgrZbkuHo3Bm3Cbqv2uBC4ewVj8Cek736+mpE54qlTV7mz6fxHVmlCd3Jr1MSdi+jNUyGrf+jtSlfdvfSbkYODArwSKwgJHhninvoO3mqM+oVsckaz32kKLvNtkNTXkePcDas4ZmZsnjtVr4qFYL15lAJ6jrq4VfaLXwBtBdgDLoH/tf2KVgEh0eM6XZ84EfdMyJpt7sbEjrGB/evwV5cr02b30zmHfseD7OkcH9bOUSx1u6bCfQAZsYNJInZfdZpH0vgzsAkUJqBQB7HlusMcdS0iCRZETGSdeIzKYnrI6et7EnztlDrMN4bvg7exVSC2VDnGT6PMPrzNj1t/Yxh+MG7rO27TYj+rtbJmv/9necF90NvBN4ulYLV2ZpJljAyPBRr80/BTiSyJPROpU4Fn9vveaLM6XZq02CQ9OhT+xDAf0C4elaLRS0WviRFa6ecLOlWrhXq4Uv0Dx1bTVwS+yx0L5bo/uaJIdOxRVYF0/VIm8g3pNvZNt5+7KhtX8feRAjOckNWenTgIwKAPiSoiT7Tr+mKPdYX5bm/gxNKF/NoLyTvCk7Y0gqjW2Ao6MDLrHv9p8xxMu8CPjzgEGHE6XSMH8su/Z3BvW39Dfxk5bnG4vyyoD+1qSCiWV/+1/v/9iHgDlgb60WPqjVwkNZmwZWw8gI8jbv4PcfE+1zbrwnoz0EfMBEN1S26W3k+TyodwEfbqZMT9C63KzVtCWwAmQF6BbAFiDLQLdsNXRF69XLQDft8nFrW/8+DNwN8hDoPcC9wJ2tn7tar7tdq4V7J8JPbvbpV6XS+DbwVeAY98IY3O+tMNgRwEYMiqXyhQu1uW+BvCA4V9WnO/HoWFA4dKE2d/BMafYik2IMa1di2m2xCvt6q2fGMQ69c0ui9HBCJ73f2keaNYvf0VdxTvnRBG2OKdtufofSR0aOTs406bu/MtXG44Fl0dkS2iMTQQC9XKuFy4e4HqtUGl+jeShJ9LzuWj9FdkP1mXhOUx2hzbUl8MaR64QkKjJaf39Sq4W14w1ujEt/a38yjL12ZuC0tHHq78QFqmPZ3/7XN7/j7y07/mNZ3/1hASOjTb0291iQon9qeMu0qmceiWfO6hdnSrO2zWm4bBxPuQqgZ2u18MGMBYK2BR7T+tmp9bML8Chge2BbmkGxpW4FnPD4X+fN0u5FMqXSuB+4HfgbcGurmOVNwA2tn2uBa7ISWNJqYa1UGse2rm3H3rIRQJfaVBoJH1T0BR0d2jQgghlG4rtDrgi8FZgx8aXozIYK+7qCQ73SzOPelu3jKOCw/k7XWRi7MzUa/e0MSEnSI5jF8eWao/kTZxxnKkvtpP4LC7ffd8YIrjMQMIp56pV6nEnhJMYQMKJ5g+7dqU57GZn+/jKdG4NDnjtj0t99J9vEuLmS6TUma/o7yRjuaQfcD3yvpTfqWi3cPwmriAWMDO+A/lfQJYvBod67xBVB1itq2UVZsQmbPfbgmIJCS2lul3oisE/r9ye0gkSbx7QK0lHwEneh933ncpCdmyeeRF+HVBq3AH8ErkL5HXAVwm+0Wrhh5C5ZtbBeKo0HJsMAmB5mSrMXLtTm1giy0jXGxWN8SDsEL4C+uF6bf1yxVLZi9MkMsG78AbgvnI3Q5Zhx7RasSHp8tsavvd1xJDcG9op1rHA+17K/gtya/FS8hEcph2Ikce/2d82Yunsy5g+DzKlR2BN7Af8w4NwHGHrRWK0Wfi2VxlXA3onk7Z+/Rak0Xjcpmc7RbYpxYtVAenTENXf609+9AzVx9bf0Oy/7rV+WFTtxbPo74jHtr//c13OYVgu/mrSpbQEjA4B6bX5r0JPdU6tjQWtglih6pmUXjYRP+RVY1+j5L0Zk0O0GHAYcAhwE7EfPTKg46ZyDeRrJDYrE79m+9fMM74IhlcZtNE82+BXwU5Cfa3XluhF0xRdxniLj5DKbSiPj/Yqu7NgzYaMsmLnZPBhc3wi8zsRHWkfaHq/VwqUT5XNVGgeAXNK1jRKlUzN83Ht8XfxRra78pE2AIUyoXnMqM0NHVg9WbEUBfq7VwrUjuuBzgVP6t1fYHDgWOHNydHCPvknrSHIYX3DcuU2rR/ZKnCBPIv2tffbFqO3vcfZNl7Z2vQE0jvEob6W53XaisICR0ZoqWhbYJLh1YvF0H0+9onbNjdZrPmTSG0H/VAtvzIATswXwXJCjQJ8H7Ja+wTqoYRPzrsRAWx0i2RZY2foB9BGpNH4LNID/AS7QamH9EMbG+2yGZI+Z0uxP6rX5nyh6mONUNI9exadXFU5aqM29c6Y0u27qhShJ53/OnPu+XqeT21yxLMixz6kMzCE5pSEIpRQCHGeM8LLPInHAKDTeVzGWgFG/2/5GqL9j1aIbp27uWpPtC8BP+9Lf3rb2nW00kP09xoSAvtt6F+gXY41DTSTXFwK7pzB+jpNK40NaLVwySUuHBYwMFmpzGwCv62xFk1CNDW2fmuY7HvpbxVL59ybBHNuWlcaGLSV5AnAUsOHADsmwnMDYr0uyt1ljXFNkKusS4IDWz9uBW1vFMb+q1YIVNp4OPkwzC88XdF/8WwNbf1tHC2wK+grgEya+BDpCplUAGc4oGob+NrLRX8Md0s8EHh1vnLsKzAKwnvaR9yMQXbXwe6k0LgcGOYn0SKk0HqXVwk3jD4CMSA/F1d+ZOAxS+5XhT7Va+LIpmBTkHc/+vkOrK984BH/oQpqB4YTzwTk3qrQPrJkM7BhHg1ZAYDfxhO8lQiMvOjitGfthE11OXZBKYwupNN5Fs9Dz10COBTZM18kZkhPRc3dZP8UXJfCrRB/rHW15b0dzq9GFUlnzS6k0jpNKw9ykXJs7+l1Bfu862lXbwfnF8yfFE6yX19Zr87Y+x7EhxQSSqt+XruM/Ht/VcHdE5E4M8a9t42d1OEIQtV0ucsD8QKuFW0Z83V8bcBIsoXlzbsIVs8Sf3zLgmDamR38lsr+HNr+vSDQfNPJ6jpZK42mT1AtmkBoAr+/MxWao37sNzb9st28FXFQslX9mosuhaq40TgCuAk6leYoZ/RfQi9LhadYsEvfXp2pPRB6J6Ta8e7ZRnwKcA/xMKmv2t1GXT2ZKswr6Me+WtGD2pmu7L7CnogWTYFI/QaYr+KCBdsskdqaYHzj0ydK6gSES4bBrZiaNVBobAzPOa0o2NsZRC+is3raD9OqvVTlSTEPQ32M6vVBNSWVnPMWxv4dwFdXCI0CyEhDS9YmJKuliAaMpp16b31vgcAlsjPBvPpOAG6woatsl8mheVhqfpLnvf8f+ix1EpI0PRZcrqebRx7JBpMvDiY2Yp4FeKJXGMTb6cksNuFm8ld88urQzilvBImkHkv7JRJfUeNfpCj5ID507ER2pmAOW9qBwOdXqdrQSrX0j4YXAFgN6ZPcD3xj5aK4W/gTy6/6NDAXYXyqN/cc/hobokA+kvzUDIrE0yEyNzf7t735IkGXU7doV4FlSaTxnUiRvASOzvF8TVoGu0G0noCTIdYLUTXY5U8OVxkuBN8RfFJM4KTrkdTalD5Y0v0viXvpy4CypNHawUZg/iqXZBxX9nPY4a1dCU0WPWqjN7WoSdMhMTBYj04mjsUNsiE/KsBo+q5MVJXOOnW9rtXDnmMby11L4kFXjHQQa0yHvs0CZxYeNCV0r+soy6n7t758UyVvAaIqp1+aXAyf57m63h/ViZY2mdlffGT98tlgqP2wSzJ3F+OLBV/UuTnEmbiRLTINHRrc+Nb9qM+B5Ngbz6ovJ5wR5yPG451/x5BuBIEsEeblJL2oSjmlrQmYN5ri6zcj9+NBujn12x4VU1uwIHJlC5tlZY2zGWSlU4T9RKo2lmXPGtccDavrbSNlOz+bwcGQZSbz2hNt0sFQaL5yEXrGA0VSbFTqjsFV4DHuDR8Hjn/UBmkdEGvkbERsmMh6SGh6S3kel92GBzCdXIb2+C4Emlp+dWplTiqXy37R151k9Rdc1sGVEQinL+sqF2pyt0+nMrxw10+WQajblk6r+NmI5WtKtEzS+YzP6wfIyYGn0tca6vjuB746tBdXCdaAXDSjnHYHnZk4PSbd2tGpk5TEDUoM6V+L3qcXDBls0slOI3zvHHwE+0ndHh5fu90qlkXk7zwzRqTYt5GRBXCf0ED7Jp+3MnFMslW8z6RkjMzBdX6Ga7uLcs1B2gg/WDMvSGKe+/bT3ZLTWY4H+18DWYNlNkOdNu+Smeu5E1vHQyXBGRqG/jQgBSsK5MvYOWJ3C4rqg1cIDY27HWckmhrNPTsrUpO1ZT0jxnUCrOdLfgr9tzhPh1My6kem1TKiwGnB19DVI/IsS9gc5Luu9YAGjKaVem98d9Nmd4dwpb62hE3t8d77/06Q3zTpZ+nnT6HxISetDJOVrk7Q6wJhQiqXyhYL8xnuogD+vM3wLt6WLT5puycU4rlnzPHck3lOagyaZczWGhT4bQpdK40nAASl81JkZaM65IAn2dzlfeqxUGpuPZ3Lq4ONDpkV/a1xBGLEHTtr29xB6vVp4mOZJ0hHXoL0XO//QeZ9UGpneZWBbIKbWZNDVgoi7dpFr8VBAflMszV5o0psivyTkw6rDoOjHCMnyQq+Oax70+i0YZAAwhy/TSEMhIvFtCBYUfVG9Nr9FsVS+c2qlpi4jTPNtkwfbHFnSpSUL80uMWGuZw1nPxthZlYLdcCewViqNA9KzTVwBlFjXdAWwT9d+6V6maWOgCHx5vHZREvlHZNsMRX9nzKYM9mWozUb/OkuyKscacAqwR/IxGtS7+riWDvxSVnvGAkZTyEJtTqR113rxTndg21ng97bjYrWLpgKPkhvoWFOvstSUrin47ygNpyEbMmZXTANnAB8VZONgh4vP2O7oY0GWA8cB81OtkqbNCHfWsI7jvGbRuB6H/p7ytTuuc5uBYJFU1ixFOTG69pKnXd2DLFsAv4onm9bfPQNmSQIoCW2e3rI/ieEHjO5G+Ur8cdDDCe5mR6amv9ufffdY5pbS+4wBC+BPlv3dzxVWCw9LpXEqviBPP35P+z3vlcqaM7S68sEs9ogFjKbSpJCDQR/bCQqFg0biM+xAm8WuzzDpmcHpNDp7KfyBT0jTiH9J6Vodr/W9RxPISvsXvZFriqXy2oXa3LkCq73nULqGn/gH7iqmOWA01XOkmwE6CcGiFPS3MaCTpRmfR/ochJ1itUv6tVki5o70OxfTcHKll530LKk0dmsW0h6a03sbcLLNnQEDGL0yQI1s29/9E8gy0kHG1q6grwZOz2LXWA2j6eREcBVcdTkw7QDSf8+UZu8w0U35oujT191uqYj/42Qclqr0ZyDHvvOqg1+XMY3u/5e8Y0hDmUad3zzPHFavze809ZLzTbuAvsmtTd6l5kyvY66N6Z4rk8Oq9OdHN30RoTN6xjM15b7x3x5wdJsAJRvPWZ1ecWxM08l9yXZo9nfKq3O7lpHEP4yy+6B5p1QaG2exayxgNGXUa/NLgePxFLf2uy7eI5+bQYHW675k0psyNOkLHNoyVJRV07s2dRmFMR2t1A1x6U+wmua1GRNiEf2vwrVed2FR/7q36yigos0jp00hObdmTVMNn5i1PzTjTeipv41srPND1oaVxmbAi/tfe6MaFLRBgnevNHobkbMUjwxJ4NqlE9rZpYZNHiO7pyXUQK/uffBhLB9lR+ANWZS+BYymj+cB2xFwVPxb0SRoh98M/NBEN2UKORTsEYeuk74+OpXLFI/LncrpaIMYCP2cKiI9Um6NPFIslVWQr4pzQ1rX22svMSOx13wJr1/5M4770N9ZbFrf+ttI1ZEdv+yLwCbDdc4leq3uGa/xvm/UmYwK8HiprPkHG9MZ19WavYk1PXpNxyp354lpmkDpauiXt0ilsWXWpG8Boyn0VxYHpjqXUsW/TUIBziqWyutNdFOskF2FCmW4X5n+Bwyjfkaso+UMIzhG/p83n1MDp6MtPiP+MXZwvTa/h+mkXq/1zD+ZlnanpkwnpJ1Gf2tTJh3aVeldj8TMNvY87jzFW7q/flh9pL1kZGRWh4nptWzouLHZ3zXg6ni2R9CXCr14G+CNWZO2BYymiHptfqmiL/QPV/WeghbOMGr+/VWT3rT7aNL9hWnd/Et0fZJi+9L+oDi3LM2gmFaKpdk/CVwkLd0rgXEhThNIUPTFJr04c19z1sYeue46Yc0fVH8bKSxy4x8kUmnsAjy7fT0DZWn0GSR21h0Z9k2l4Pf0unZ9qVTWLLMxPUl6W/ocx8bw7O8hXkk7yyi1Gz1vlkpj2yxJ205Jmy4OF8SzHW0xSBR0Unx3u68qlsqXmOim3R/T7oF7Cf6R+DhJgIeAdcA9rZ+HgLWtf+9pveYuYL0n4+n+1k+QFYGr2hRYRjNIvgXCcmA5sHnr8RU0j+TtrdclZnuUBHed7CSNKZxk5yp6cLPn1XkIgQb2SwjyIuCjJjvtMUcFnDm0k9rGHtU0J+1I51SO1jZ6r0PBeZC19UdKoBKs/dy5HqX/U9D6sHVkGPLoIv/IY+ZD/bYt6FHAN21sj3tOxe1vHXxsGv3b3+OhhnIKwh4ptG9z4G2tn0xgAaPpohicWOKcfb4zDc81sRk+Y6qnH9YO5PwVuBX4W+vnVpSbEW4B7gDWga5r/ss6rRbuG3sTm/uGVwBbgqwAXUGz5tf2wPYIO7b+3rH12Ha0i3AEiiEkOmLVDIoptH7OFviooiIea6FjMzj189PqtflHFUvlm6beaHQajwKiMZ1kI/vOlzFYkCLKaZWMOLS6OrxWuq4trfGS1OmP8fq+dsC0PjfWyVrt30tYwCgDc8oY2xohvV473j7SauFhqTROBb7Ul84Kt++fpdL4hFYLmbD3LGA0JdRr86LoC5pjcvGetr/wdfAOd6uO0ddMeobDyFGQP4NeTfPEpz+3fq4F/qzVwt8m0iSoFtbSzGr6SyyJVBobAY8G3R14LOD9dy+awSczOowQxdLsjfXa/AUCh4K3bpEERoy2twwDIsgLgc9NvdEocYz6HMy37N9VHdD5cl2/beHIu/MrlcZBwBPSGcspZCElygjuNVSFWKfIJmvDC6TS2Eqrhb/b+M2qLk7pPeZnkLx2YWaoAaeA7pHC+ry8+Vm8LgsNs4DR9HCAwM74gkWdcJF4Jp3n3spVxdLsZSa6qede4BLQXwCXApcDV2p15b1Tbz9UCw8Af2j9uIzinYF9gScBTwEOAvbMh9NnpMCCooeKCKKB+lYioJ0AUuf/+gKmJmCkKTiJE244S6+2ag772HThFLA62rsOpjFHBRgDW9c0ZlFqlxMvKczVyHak4vRuCBwHfN6GzhhVcuyxENTfxsDzoGvwLRvb0P1ZRoOsZe32zEql8RGtFv4y7p6xgNHUTMFmsWv/EuY9KU08w7T9irpJbiq5Bzjf83OJVgt2Sl5/i8eNwI3Amvb8qjS2AQ4DDgeOAPYzB2lqR8h/A59E1aN9m7+Les1O9ZoQRyzU5jaZKc1OScA26Agu/p33OZOTGhghI9+C48P1aLO/HbNVwPll8ce9ty1dantJAjENZa56dZUO0HeRnIQFjDIwt+L0mdUwSl3+Xdd87VITbOQkrGXUNSNxGfBe4ORxN8oCRtPD8/1BIf+Bzd5tD57X2X7p6eJbwBzwg1bmjDEM/6lauB34RusHqTQeA7yI5pY+Y4oolmavW6jN/RrkwKYWVp9edulsYLkgzwa+MyUzJlyMdupu2E5qkMVl5JvzNNS5MrCcRzK5VgLb9R7Xge0psbf3CIPf2Y/5Gb5r0gEKZ3fLqmrzdKk09tRq4U821scxt+LU/tJxzan8ijyuPsuImMNZRkn0trNhJak0PqTVwpXjbJcFjKaAem1uB0EObA5LbdcwWpxh6jkhzbNN7SaQX5r0piqQ8UWTwljk/mfg4yaJ6USagcMDO9o36BWp55m2/i4wNQGjaQ02BLIqJrIWhvbviBsjcMIC40wZUeZeq9h1z3Gg6emJ2PPHkcnU1wmxQ6vFVALeYwN5nJNHE/al6bu+l8DJpVXLSPaIERCiR12/pa05/9JxNsgCRtMx61YuOht+5SWOYtft93y7WCqbljPGM2Irjc2ATVo/W7YeXt768SrRzSPW9Idobq3zPrqu9fsDNOsyrQPu0WrhIZO4McbR/i1F3ye+as7eOnOdYJFHfx8DvN5kl8jRmkDnxNM+SeqwZLU9wzh1yogtT4lyZmUkwSKpNFYAL0jBgfwlcGZ0WwPzRIK/aL/fO4jOeTOwa/yAhPM7Vkul8V6tFsw+H7teTqC/jekaJe0sI/1S8jEVzKhUgOOl0viwVguXjKtNFjCajqF7ZEdlRe+VDNQz+rbJzRjYODylsTWwa+s4+m1aP9sD23b+lm1At6ATINp8YN8xmQH7EM0A0trWv3cBtwO3Abe0/r0duLX1cxNwg1YLD1oPG4NSLJV/U6/N3wjs3NTD2goT+R2bgP5+dL02/7hiqfzHnGsQBj79aCKN9W5bHzT/XW6kN18k7nwZ2bg6HtgoXmCw6/w/XauFr05U71Qa2wPviK/LnG1/DMohwAU23sftWhEzmGixvWzYCSOnlWXUZy2j8Nh6H/D8cTXGAkY5p16bXwJyZEdtLTof3q1o3tPSBNAHQX5k0jNiGECb0Tw+/vGtf3dt/ewGsisimwwv7TyoYBOckuJnGbCi9RN7MZJK42bgOuD61s+1NE9LuwK4TquFR2yEGDH5H6DsHW3SHnZChP5+DpDzgJEmOBllGPplnJ7ItBn6fetvo+u46TZHxuJorQo7Q1FZP64iwwB6P9qsAThhnEXXgFHM/hBOwgJG2VBf3QsWG6muEZO1XkbXMopqk0Y3r6n6jpFK42laLVw4jvZYwCj/7AdstzjqOiUEO7WMgoVWFX4yUyrfa6Iz2uqt0lgCPIHmsfAH0Twqfi9gl/6VeBrGatJTUlI9RWbH5o/8g+Nz7pdK4w/AlcBvaKbPX6zVwh02mgzHOD5Podw5jEBQDW4XDunv5wKfmw6jfJw6ZtKN6UkJcFiwaPgyDjogox07Umk8Fjg0npPtqnnVfs139dTCXRPXE9XCZVJpXAXs3b2vetb7Ok4qjX+2w0myoGctOGRrYFccWUaavIkdPkjzdOWRYwGj3JsKerj47lB3sou8Wx8WK2a0gkf/Y5KbchVcaWwIPB14DvAs4EBgM7fR2WUdjeXs9XMaCX0c1xw0wjQlg8D5/HKawdr9gOPa/lClcTXwC+AHNE+ju85GmwHyQ0HXA0sXNwg7Tq0M6u8j6rW5JcXSrGWy9a+EJtxI1sntisT620h1+ETKe6jzZVV0sCiq+LZzTJwzwdI/k+Yx2TFsisj5sAJ4IfA1G8xG/tfwQZ4f89UnPjEtaq1vc7hUGs/WamHku4AsYJR/DvcOtsWsos4QFM/jbb5nYptCG7LSWI7yfIQTaB57u3Fvo7Of5yWuUdT98yTuPvGgczWm+g3N69+j9fOylsz/ANRBvqrVlVfYKJxOiqXyXfXa/IXAM8Rd5Nqlv7cG2Q+41CQYFYTIvkGZqhGd5fhY3/rbGP4YGv6JTlJpCEgpOpPIEzTqXhfmHia7xubX6Bkw6uowLrIKCxhlJGhhGF1xZBlJzHXc+ZoPAE8bdSOWWD/ml4Xa3FKBZ9LKI1LfSBSCjknr39uAy016U8kZCF8DjqVXsMjpASRZfKNOkJCEnxPzdYOs9zosOQDNbX3vAP29VBrH2xCcaqP0h9reIhwsdB2pv585HbKRVF+WW9lMVPvNCcvOnBpFpFGeDrpn93GgccbLd7RauG9itXy1sLhNPfk8UV/fFaTS2M7G8ZjWH536hScjy4RMwpx/GDjV3yYdpEkHS6XxglG3wzKM8s3+Clt1DmuWrrOxFe/80Uxp1iy56WRptPZyBXjibP+K+tvxuC8NfVT+ZoxtED2Vt/b3ueHXbWxDcKqN0h8K/Lv3TrvXjYvQ34cBp5nVmPPtTC5/fkx1aEbEP0ilcXJC/ZnygqEDvK7r+380vK3ISeQx6kK9uiql/jsjB+P7bGD//u0YXfTfTgA+ZWvnGNYfEWIHWs2jGoLt3sv+zhydLCOJ0aTePst7pdL4zigP17GAUb7n2SH+CRVUcAqe0tetV/zYJGe4tVeSlPW4xqg6FuBBDOSexSJHtJJryq8zpoALgfsUNhYIVC6K1N+HmdimYB65fBPJU8NCDX0Z6MsmV39rt7XoRTRP1xzydUvCtgwv6CqVxkbAS1PovzvJR8mEc2kWr03gMTtlVcICRmNec7R33MgSkKbeHmjWMlpzKuiXIpeLWL5Q+/EDaNZHPXtUbbAtafnmGYvDy+Xqq+e3zliV801sRljn6oB6WWI8rn2ssNp9ER94BZfkX23WgdEHxVL5QeBCVyJJF/29Q702t6dJbwrmXdLm6SRcbI71tya5cTGsBVwTyGWo13kMsGUK4/breTgZTKuFq4GLUpjMT5FKYx/T/eOMRYiniLwxsnVkIu1vrQFX925m7DIa75FKY2SJPxYwyrdee0awqLW7btFifQxuLZbKV5rkTEnH1rsS14jX5KN3qAuQxmxUl1tHziKu/V67GRsGKPoTbell16EEEfr7EJNcYN5NdeJeAv09Oq9q+vR3prcLasRDQxs0q+KLUrpd8jk5mqjnpjSXVmGMVq/6YrHDLRY/tXIeqf4ekdYN1jLqyyUQz7+yN80sw5FgAaOcUq/N7yzIrh5HxPOvIj7Ta9E1kQtMckZbSaeid2Ns1g0ZqtJrZejzq/u926sx7behVtY2poOfCp3/Yurvg01s/amIiVLJ2qWROiz9nYbwTX9PxAQZUoBLKo1tgaMHk6WAyO3AD3M0q89xNlYTd8MqqawxX27oOlj9c0VyrB4yt/gNW3+PlGaWkaYhj3Ytow1HceGmZPLLwYv3qb3noUk7m0gcppj+zMRmtBWR9DLwJYbCjipIJ10MVQ28NXiXod9MgpTqCiU2FCx7yIjNz4H1i4Mnpv5+qtmR3eypHOB0UDx6Ubrp7zF1jOnvPr90nJNnKNf5Utr1UiNuDGmc69UFrRYeyo36qhZuAC6IN9e7duPOoEfY0jlsHSz5mf4TubDnQ5btLCMZtJFtOe0GzI7i2i1glNspp0/xlrRe3Ha26IB4B6V0jmn+qUlu6lfFLoopToAozmfHvIUmMb5LhtnutD5W+/d9jKlipjR7t6KXaXuzcCz9vX+9Nr+RqSq6+qT5aFzwOc2uNW36O0MKX2KOqaFc52q3HDRpR5xL/jhnoPHcCWLYtrRxBzJ8/WYRIqMrNZCrU1wvTpFKY+inLFvAKL88tXNfetHR8A5H9TgfiqIPg15qYrNFMb5zkvQjkyy4Y2q3jki8Zk8Y0TPgF81/Y+vvDRXdzySXp4mlMZ+TUTj8kyOvcetvzbJ8tPuFD+HapdLYm1AGpGfMxl4P9SbyeYLv14BH+h9I7dfNSKWxqen/rOhtuyNodBkl1cLDoKcmf2ekotwR5Z+Hfd0WMMqv2XyQ/29/0dTFoee5k31ZsTR7n0nO8Gs27T3Sell7kmDUJjkCWNN0GEdUKFYGFpKRf5Pzl+GqLz3194EmuaChnoc5JTHbO4E1dPKov4WMjz/t0bbUr/mkrmM2/tfVtVp4JIeO4y3A+SnYBJsCx5r+H5ceNrvOSDw2WiemJak32FV/v00qjS2GecUWMMoh9dr8Y0C28job6imb6h16neKq+iuTnJF8vYuxvUzjfrgm+IwoY7Nfh1FTeUn/9rvdkTLa+voifIGhWPp7f5NcHtF8OCFTqb+zuhW512mm6YwvqTSWACcmvwbnntKzcjzJz4o3YHvUfFJXcM4Ynh4e5vuMvItSqytbJ6alVm9wG+DNw7xmCxjlcl4tbk9Q36k6Hfe+fSqady7+0iRnDEVxR9651ISf0eNJHXK74jRBE36AxGqgMV36+/fAfQn19wH5lEa3QkUy4ISeVFlofrpx2vR3JtS8jmrePJNmQdaE3xGqc3Q9zcMA8srXgYcTzXtxvuw5UmnsZCuoMTWmQCL9nUlaWUapLR5vap1KORQsYJTLeSX7tX/z7Bf3bmuQ0ClpcolJzuiuoOKm/cfR7GlazlF3pQN3S/txKPoUUSIjWfPo3Br9MlOaXQ9cnlB/P6lem8/het7tKLQs10Qbh6M/qW3Po/6e5HGX2rWfFO/zen7f17RayO0CqdXCHcAPUvLnTrQV1Jh2F2WC5n4ryyi1RmwBvHVY12sBo3wuQfv5DWoJFEkNGd2PgP7O5GaELeHAeIm1vUxjfnbw/ZLAR3KcRhE80SZoyKeymAyyQkn+fVojrbl3aQL9DehmwO4mt0A9AJ3mQKxm+BLyrr91zF0hfT6XzsW2Tuwpxvu8nt931hRM1jOjRZOoP1bbGjDq+WSMrx9y0S+BLKOobejdtgv7Hv8XqTQeNYwL3cAGYC4n1ZM6g6tzPLP6CmSKZxDqH6zgtRHLmJOgAiMwpoLvab2uZ2kEBXgIuBe4H+R+0HsQHgK5E/QRz3feDfpw4LvWtf7YrK3XOt+3ZeB6NgeWth5fCmwObAhsnFgennnmfGmUvNIrFWHkk98k0N+Lv+8LXDO9hqT6dZTNsfH3hwSN3WCR7l5FmLv0cxrrWer6W9zr38jHofaeJ8PlRa11tYtMY3GNVgsXT8GE+RbwYMsOSeAPh/pzX6k0DtBq4VLTQaOYT8Z4+0FHqdOG06Jq4WGpNN4PfLF3uzWOXJYD7wJen/a1WsAoZ9Rr88sU3VM8k8m7qWHxLnXnmGYB+K1Jzoitr4N3gn2OKwC3dn70VpDbEL0d+BtwG3AXcGfrZ13r37u0Wnhw7G5OpbElzbTOLVoG7+LvWwPbAtuBbA+6TfN3tgfdwalLpctCJ2Mx4o3J4TcJ9PfixNx7agMTLoNK8tjOSTTso4zdGG1Slx713IToq58l4vrS0N/jLqrRS6baQ76pjbNVvWXa5fI6r5uG7CK0WlgnlcZ5wIs6Nb00Ru0vdfXbScCltoRmad7ZnYvhyToXtvMZwHuBXeOtgz2ff5VUGh/RauG6NC/SAkb5W3oeJ7B0cfR4tzH4nQ3vocxcbnIzYi1+zaF0I/AHkGtArwe9DuS65u9cp9XC/RNsuK0F1iaSVvM0mEfRLPD56Na/iz+PA/Z069pQoM0wFsfG7xPo78XRtM/0LHN0Ate5zyRK6sRPSnBJ4zUl6n0Sx0nT/r43kZx1smTadXyksh3tUcCRfYvUzzlTpPS/BrwolCkZdxx39ODLpNJ4i1YL620dHZYOThK0sBuC6a57+ZOlVgsPSqXxAeA/46+DrufbMlsGvA84Oc3rtIBR/ibZ3kFHI+xsdAZX6/crpkY6lcYeLSPkoOEb7n1xMfBKrRZ+kwGj836UixEuAX5D867VlVot3G3zzKfsH6EZRLsRx2kuUmlsADy2tVX0AJonWv0D6Pbxt+z1Pd7PB56VcGz/RauF3a1nx0exVL6jXpu/Bdg+hv5e1PFPyKEoHu2cGZLAmGpmNE4alwFb9RcE0DFb1nIi6DLnsiLd1lFJ2NaYtXFSy6KJ2oadWH/fM0Thn9cZNz3X9ygGDTTcCmzTn5z972ndwJkWzgUaXbtNuswFyblXPT6OCfvKScSr0Cy1YMTjp00dNpD+fmQC2/1fwNkp+W5DkYEFjPLnvj4+HAfvGJLeO9OdygJy1TRIRiqNE4DP06xzM+BkTP2u7wM0I8IfaVXOHwcPAD9qGS3/B1yip45/m9jEz8hmf/6h9VP3jMc9QZ8BPA+hMOartI7KHlcIbB9Dfy/23145nDvrplRnrCdhpmN2rn3lPTZ1xzZuHhr3uGmtd2utN6Znzue8X+wGqemPUbT7kay32wJG+WMvCextlpZb4b073TmgmUdAcx0wkkpjU+B04OUJ34m/qJpHrr795RLD6e7qkF8IvFyrhSvHHDN4mZ5aeMSm0MgWiD8BfwK+Iqc0liBsMqQZQKyAkBUJzhpXgDyrh/729u1W9dr8VsVS+e8mOsMwDMMwDCMNLGCUO+Qx/m0LXrfR72607lxfO1OazW0WiVQa+9PcgtZHQdhAir96Tn2ROPuXezrq9wHvBE5rRZfHigWLxi77IdzJSpAJZ8GirPGHGPo7eED5Y2luazUMwzAMwzCMgbGAUf5cz8eGHUXxOBfBChh6dV4lIZXG64CPARv5PeI4BeocjnZbdNrDGY/lpJ9Ps1bRNTZmI/tvS5rHzC5m3mwMslFAths1H/e98yHQ4LaIh+jUjniYZnDmnlYKf571QZIxaWSr766Job8DOssCRoZhGIZhGEZ6WMAoR9Rr8xuC7CKBGhcEjmD2F8SW3AUspNLYGvgCcKzbeY7jYCd5baLPuAt4CzCn1UJuPfhWoeftgJ2AHYBtQbaiWcyu+a+yFSJbgm4OrKAZHNqUZoBomVu06jgRoP9jNqXSAFhHs37TfcCdrX//3uXn5tbPTVot3DcZsQe1DKLJ4+oY+hvvXkJF9zCxGYZhGIZhGGlhAaMcoeijBRE8pVGlfXe6cxyz+Eth5ypgJJXGocCZwK6BZ0g/w8KfxRX5+R1/7rvAP2m1cN3Ey/mUxtYIjwUeE/jZkeYR89u1Bp0jM8sjsn5ETvDzdNB+XjHAeFsHchPoX4GbWvPJ+3NjJgKD0mv8GtnT51wTQ3/7Mo2keaqYYRiGYRiGYaSCBYxyhCC7eiMUi46EeJyNzt3pxefyETCSSmMpyDuA9wBLw05xwq05aRYAFu4A3qzVwlcmUK6bAgcBTwL2af27L9Lr6N6WrEV7HKesKQcxRh4AWQG6Anh8xPMPSqVxJcplCJeDXAZ6qVYLN44rCtEWswWLMs1Mafbeem3uZkF27KK/A+pKdjHJGYZhGIZhGGlhAaN8sbPHGwTfccyLz/hP2wG5ftIbLZXGTkANOKJ3AEF7ByViB4tiBaG+DrxOq4WbJ0SWK4AjW7J8GrAfvgBcH9GJqAwjp+ySBjHGkSWT6Ds3BPZD2M/bPqk0rgcuAH4KrGmdmDaaSx+7/IwE3AC6Yxf93X68ObrUAkaGYRiGYRhGaljAKFfoLt5gkfocDO+2Be9jTHTASCqNo4CvANuCxgz2aOcfiXKqkzjSzs+7BXi9VgvnTpAsPwK8Kb5eiCGjnv0xaLCi76Lj9C6CHvU5OvglC7uivBThpS3ZXw68RquFC4bUu8NpizHsWXmDok/por+DWMDIMAzDMAzDSI0lJoL8oG1nIbwlzesge7Y3rAf920S6UZXGhlJpfAw4D9i2d6xACEUuegUykia+SPs7zgT2maRgUYu9iBss0h5C8W19kr4H9HDfqD1em+QCJPlL/W/ZF3jcULXD0ORtDLHfbuiiv1t/qWdoybb12txyk5thGIZhGIaRBpZhlCOkWWwY/8k5XifDUxq1+cxNxdLs+olrZ6WxB3AOzdo6CXz3HplFvg8InCoVb4vaX4FXabVwXm5HWGibWUSEzpel1bMYOF37Mep1zseHtMUqVqZUlrd3Se9rtFPUsthvN3TR385uU9geuM5kZxiGYRiGYQyKZRjly7nYweu8ahfntfXcXyeuhZXGCcCltINFvbxcCWfDSMDPdzr/Dk+6eyxgnmZWUX6CRdrzAQKpRNGvj9o5FqvTkzyuju+SAb4kybXqBHSmpRFNGH/tor9xZU5Kex0wDMMwDMMwjMGwDKN8sW3Yu1XPXemQs3jbpDSsdVrX6cDLfT6wBApP+zJBHJlCgwQCxPVGvRYoa7Xww3wNJfHINiDPbjIaSM4DXGtUQDA2Fkgxsoje2kV/exWh94HtTG6GYRiGYRhGGliGUb7YzrsFaPH45c4JOt7tDALIRNQvkkpjf+BivMGiUGBAox8bjiOnoKeBPCl/waIo2Q0qTxnytUqCtqR5rdLjPTICGYywG41Rar9bu+jvwJhq1zPa3uRmGIZhGIZhpIFlGOWEem1+GbBVx7FQn38oHmfDk3V0S+bdpUrjdSAfA90olnOchj/uylLycxXIrFZX/iRnzmkzDja0mEacE82yUgco7ilr3hpN2uN5Rt82iflY5uRvtMbLzV30d/uvzs0BRVHLMDIMwzAMwzBSwQJGeXEr0C3FEyYK51x0SqZ2XqOZ3ZImlcbWwBeAY2M7sJKSEywSFQRYD3wMeLdWV96fx1GULFgUIdeoYtTOYJT2+Dvh9TvG+/ACINqj3VkMhEVNGqtxlFFu66K/W8+I73eBLU1shmEYhmEYRhrYlrSc4HUSxLMNrbMlrXMIc2ejmqzNZFsqaw6lWdj62HR8+qQVl51O8+XA07Ra+DetFu7P7SiKJc9ucpKI+tdxglEDF5vC71xH9uUYxBdRSN1RtHi0KBYkyi7F0uwDgtwfob/bwSLxj6EVJjnDMAzDMAwjDSzDKD+soOVMLDqC4nNUJfA3KLo2Sw2QSmMp8A6U9yAs9Tv+STM0ehW8jlPQWQB9GHg/8H6tFh4acvt3AvbTaqExvuBBDLH28xndt/h1k3/8a+vZt93GUK/x1ef4i/Vc1gI2gpEldB3Icof+jhj9uqXJzDAMwzAMw0gDCxjlBtmysy1BA05yx8EQ/xaUtZm5+mawpAYc0bnkQZxqTfZScVYHvhg4WauFy4fc9o2ANwPvpLkNr5HfcZrklDVN+Tu1v/ESOT76HX9ZDBaNKSvLiNM3a4EdHPo7EFJfLIhtW9IMwzAMwzCMdLAtablxw3WzzlY0CTmB4W0L2dmSJpXGUcBvgCPiObZxHeB+XyoPAP9GcwvasINFLwKuAD4AbJaBgTTZnz/IOIj1EZJbDZL/Nk4s6yL0N94tx4t6PhN6xDAMwzAMw8gFlmGUEwRZ0SmK2imASrvGhctF1PvGes2VxobAB2lm18Tw2hfrrURsVfMmVCU67cu3ReinQFmrhauG3PYnAZ8iVpBspAMpSi5xZBf4AO3y+V1OR0vrtLtk/R7zeU3hc0fZxhjyNjKNovdF6G/fRmNp/62bm9QMwzAMwzCMNLCAUX6cig28BVC99S3E6fAKAveM63ql0tgDOAc4qKsT3X5MuzjwjnpFsQos+7bg3ENzS9intbrykSG2exvgVJBZ0KXOQMLY6Ke2ToKAiq9/u7wvjZPaYrVBB5RR1HfHqI8lo9cQGRpoRrIRtzZCf/uKYHteYeu6YRiGYRiGkQpmWObGqZDNvX6ohGoYuYIBMpaAkVQaJwCfx7d1QmLUidEUnV/1/vpDRGa1uvLPQ2zzBsBrgfcCW/YuDj0OemXbQNfi0XGyZiJfI4P3Y1z3O3b2T69gkA7pGocYeuhZ/DtL12u0eChCf/sOMugEj+yUNMMwDMMwDCMdLGCUH5Z3tigsOoUScPabv3te9+BI3dVKY1PgdODlsZ3UxAGURIGHdcBbEea1ulKH2O6VwCeAJ0zu8NLkfaVEZ335tg/iDRbe23SQuQ94AHgYuNvxbfcCD/bo+2XApo52bNbSfRu0fl+KN3g51q1iQ+g2iTnXRr5Nzog5Ru6J0N94jzjwPL+hycwwDMMwDMNIAwsY5Qb9pCCf6/h+3i1p4nM2Fl9RLM2uG5nLU2nsT3ML2t7Dc6YlpjMsgJ4HvFqrhRuH2ObHAR8HjsmpIxuU913AX4HbgL8j3A7cDvwduKP17z3AnQh3tX6/p/X73VotPDzW1lQaS4HNaQaZFn9WeB5bAbI16NbA1sA2rZ+tUXZA2KaPeTv8Lmp/lYJ0mSMWLMoq97n0t0vftYJJm5jIDMMwDMMwjDSwgFFOKJZm7wfuz2RYodJ4HfAxYKPhOtMax3G+A/RftFo4Y4jt3QKoAG+gmeUyIXQN0ClwPfCH1s+fQW8EbgRuBm7QauHeSZ5DWi2sp1kvZm2f/b4RsDOwU+vfnYFdgccBjwfZ3Vm3aqTdqxYYmrRxiT7g3WqsnsMNpPVIR8VZ5xqGYRiGYRjpYQEjY3j+aaWxNfAF4NgReFVxfKUF4HVaLdwylPae0lgCvALh/cD2Ca8tE65pi5uBXwKXtH7+CPxJq4UHbFR3kV5TPte0flzzYRmwB80su32AA4GnALuPblIyhDpSxqhmpngyjIIVjMQ/hw3DMAzDMAxjYCxgZAzHL600DgXOpJlh0cVrTXJMuQTcp8BLot//N+C1Wl359aG2VzgNeHL3a8u0U/5R4C1aLfzJRvAQnP5q4SHgytbPNztjZ80uoIeDXDGayem6OGIUnTfGokvxl7h2RfzE/2pLMzIMwzAMwzBSwQJGRrrOTbMOzDuA99AsJuxwTrXLKVREeLNJXu/jK6D/qtXC7UNq727AR4Djk7Ule2i1cIGN4HHIfeUNQG0Ms7UzHi3EkG29GggJRfQirUyjLUxihmEYhmEYRhpYwMhIz6mpNHZqOb5HON2Z4OFtES5P6LmkdVea33M98BqtFr47pLZuArwN+DdgecxritFewxgRVs9osrqrvQ1NHI8FT8g0DMMwDMMwjMGxgJGRClJpHAV8Bdg26Ob0eGeP1/Th1Ar/BbxVq4U7U2/nKQ1BeCnwYZBdYwV+Qj6cBYsSjKtN6RQO3wjY2PGyxdPNoHny2kOO13gfX6/Vwl0mXEcw18hiR3k05WKBa3H+2+rGdSYzwzAMwzAMIw0sYGQM6tBvCHwQeHPYyVGH3xN8PI3gSfszrwHKWi38eEhtPQjhUyDPaH6fxrmmXvWVUpRDZsbEVjQDh9vSPHZ+O2BLmkfUb0EzuLP47+LPYmBoU5BloJv2r58cNbICJbCk0gBYD9xNM5B0D/AgcC/NY8zvDPysa/3cCdwO3ArcBtw2rO2OqWOBywlFnd2nkaejWb8ahmEYhmEY6WABI2OQwMAewDnAQWGPRrs6Pyk7VAqcBrxzGEe7S6WxA82g2MnNFsZpQ1RR72EEzEbW30uAXWie9PUYkJ1Ad2HxKHllZ4RtQZaOt12OmleC6/elICtar9t2ALmsB7kd9BbgBuA64MbWz/XA1cBftFp4eAy9hjNwqZEyMbI5+0K6Qhxb00QEVQsYGYZhGIZhGOlgASOjXyf5BODzwGZtZ2ZkTqfPeboKOFmrhQuH0MYNQd4InEJny5PDeYvKEnI5bjoJfbsUeDywH/AkYF+QvYDHABuGow7BgIR2dXSj+3Lx94jXD2XbVK/T+mI9txR0e2D7pqycPCyVxrUgfwD9A3AJyKWgV7ROTxsSGn3prgetrlHmUNhcQnOkM3YXg0WKIuoPJBmGYRiGYRjGIFjAyEgaTNgUOB14eU+nNL1vxZGVsx74MFDVauH+IbTzBcDHQfcIX4cjMBT057plc2S3b0sgq1pb7jaNDjwEndYe7m6s52MUApdhjSnt8/oTjfsNgD1B9wSOar5dQXhQKo2LgB+BfFmrK68d7VwKPG6xhiyytNlDHeWiviLX3ukhKHq3icwwDMMwDMNIAwsYGUkCCvvT3IK2dzpOalxC7/0N8AqtFn49hDY+EfgE8Lzw9Wv3Jrp+d/3tal42HPUZ0CN7X6smuPa4fa+M9vS4fr9n0GsMZWRtCBwGchjotcCXx9Nu28aUWb0LW3hnh0QGb9sT8aG8tH2hNvdZgU3cJ8Phz65yqiQB+PdiqXzdJLW7XpvfDXjfYruabZLIuet93iOfe4ul8msz1JfvE2S34JVLMEvOM5aDRd6DbQ0HUIP6LCQTgjcpOuNFukgXz3X4Z2Nw7fJ/c/D7Xd+nEf3ra9tpxVL513nVcfXa/LMVXS2Bvgz3f2iG/6RYKn/BVgljiGOzDBwavkkjzjqC4fWpb/0del4Dp6F69aXre+nyOTj0aHSlRBzzsH2t88VS+acpyntb0P+YIP2tCusEuR+4H7gDuKFpz8u1xVL5DgsYGdMWLHod8DGaJ1UldKJdwYC+HO8HgVOBD6W9jUcqja2B9wCvpXVHf2TOdFazOjRG8EvifMiwgzjDCOwkucaY3xUMto09YCNYoGgitO+GEugxb/hEfMZbvk5JE+QEYIU7UNAxAL1GsF9SCvBJmnXFJgjdGuQknM5GUBaLrW/VseoYueta61lW+vIFoPsT6iu/Q9JxdtTpZEnE+/xBFnwGvvsTgpJ1BZkIjC1XgEoCS6b43IrwkirOqw86g/hPQPwG8Ov86jh9q0Ah2OeuQJHfraNQr819uViaXW/rhDEkDgVO8uveaCNPAsbzAPq79QyBIJBfQ/h/j/oMDdkMGuGhSUDHiWP7RECrng/8NEV5b6ZwUl70d702fxtwEfBz0AtBfloslR+wgJGRw0DRmq1BvwAcm8iJ7nkikzomf1d+AbxSq4XLUw4UbQC8GngfsPXwneuoQtjjChp0uT7pVw5ZCESMaptk3HpWdA+ujSXLTMf43UYSAypsqEqX+SYP5saN9Bi64ruvF86ski5ZSJPXbnzGrv9OclA2QnCLbTantPqcfe/d+h7ZNU4l6XeC3GMFT0AxaHdowMlyORs4sp66jVPpMYajZeLNMPA6njKR4zcJ9dr8jgpHisPNds3nQBbFDiBHAv9jy4QxfHvSGxwIBhf8mUdp6W//OiYOXYFzi7p/zQxnYUrATg1+hoRCSdH6O33rOlf6e1vgaEGObj13Z7029z8gX1f0OzOl2XsnZRYsMUVgdAmmHAp6aTtYpPGmeucfida7Gtuxvw94G3DIEIJFzwEuAT7dPViUZgAiYMor9NzulqlAiw74GaNwYyTl13VroysQqsO75HGKyxjXnNyUwL2+zjgTz/1KWTTr7s1Ly6VtxgWDP+p7zPtfx2TLkl7tP7zSuWMsgceidK70NJAZs7pxGfheR0Tx3x0P39lWz9jA9z7/OAk7RsFC8UFnzL3lEd9r/Q6Mhn7zO4rSxfEQZ38H50DOVfQJgizBsenD77xG2herbI0wRmETa8/fZWj6OypA0/l8900SDc0hdQRexBfwUJ9OC+fuurJzhrH25U1/t37bQuF44ByBGxZqcx+p1+Z3n4SZYBlGhiuQshTkHTS3aC11OpbOW5jd7np30y+RRv1PaGYV/THl9j0W+DjwwvDFDSuLKKK9U+esa4pyHPQ9OtxmWiDGSEdjbem9Y9nNZGn9vS4/2sJfIyJcG0JDmUXRdyUnrNcdBrB0KZYnBLcxaGbbFK278fV3UA7h/vRvphDH92iEER/8LvUFrDTkrHScsuBoC96VF2egwx/88n+eBsZ8eBtJni0CXd2RT1gO/nU9nGOp6IvqtbktiqXZO22tMIahtTqhFXfwplt2zyD626XZ3PXaovRblxNVPaEit6YMB7VGFbrOs/4OtGUrQd6q6L/Wa/PnKlqZKc3+MaszwTKMjGAwZSfg+6BVNFjLxzNFIwM/3U6ekriBknuA1wPPSjNYJJXG5lJpfAjkCn+wKG3HImGGjY4mhpH2Ajr8mFE/mUqajbZasMhIjy0llLbuvqvZMjbzVMMocHc2XLuoIwv13ZtVZ3bCZLnSAcc6kEWloU0ChAzkzAcLfIa9hhZDjXSvtEfx0vD3+KWlXbZ9ubN6OhsFg3eTBRyOV+e1Gvhc/91xAvf3XQ5KPheUem3+SYLs71o6xdEvwc06LZaDzNgyYQxfF3c7AMcVpBlMf/cOlohPF4Yzi8IZMO4C0q6i170zdHVEdULzpb8Vwo8vAT1e4Pf12vzH67W5LSxgZGQ9WHQUzRPIjuhuaWsMz1j6fB/fB/bRauEzWi1oSu1aIpXGycAfgH8D3RDniSqjWngCdxlkwgINOqC8ZBhyTHoBkuB7+nlfBiNIVt96UtnK606Ht12FjMO1+TLV/Qa0fzj7jVqvgTbstPmhrsU+58RfzNRfhtR1pzurm5jEHxSS8B13cehaDeVLuep4RK8HEpKL+GTldzKCDqE4HDN/FoCGcp/89UjEcb/ccbKhw23RUPWQ/Lnh3uwijawI6NIJgdLBq22ZMIZrOnmD1FEnmgXDEIPp76A+Cmob7XIDRSIDTFGGoeK3M4LBmF76e3irRh70t1dnRW20VdhA0TeBXF6vzT3XAkZGFgNFG0ql8TGU84BtkzmeGvGc9nBUQw+uA14BrNRq4boU23YIcCHwJWDHcMBhHIa1phT4GL0L08OKG0IwReIOxOiHQ16mxgx6uQqxap9t0/EFckJrm1jwaEKo1+Y3U3Sp3yDy/hU+JUyQHAWMNKI4svrqG/lrPoTNtEkNlGnIDIXgdrtJyj/xXWuEDo7TX+FsM4lYTzW0XcDtCkrgLrY4DHoNOSzBc3nC2j5cFFcdx1uHr0hzX7moXptbCpyoEVt5XGNCHAWFW9J/Zr0292hbMYxh6GG/7lDClbbU+fpB9bcGsmKC414cuZkayoYiFODyB74ktCErqjh2HP2dqq+RI/0tPQJ2/gCf7qrw/Xpt7oP12vxSCxgZGQkWrdkD+Bnw5r5rBfe6JdT7c79JM6voSylmFe0ilcYZwAXAU6PN136/Lqqh/Rh5OprAQWpBroj2S8KPiBUxSaGAtCuDS5IP0v5SwWK4c8P2C8RxTaPa0WcMOu+2c5/21TJbBEeB4DzVMArXrnGZ2P4cFK+ZPqlOd9CoDW5o8OdSJQ24jMvxkohtGxp6VJ3vlZhyi5KBRDgj3u0NrowB1ylE/iOsvY6XRlxDcEwqIhJxup/fKcxn6EieI8ijJMLBih5DTiNUgJKtF0b6mjg44sI3KaRnUGJQ/e0PAkngwAcJZCVFHQ0frqWkziBSZ55pLP09rCBdvvR3sHSAOrbSEciclLcr+p16bT4TW9QsYDTVwaLGCa1T0A4ayHuVOO/1eOqdOXIbcIJWC8dqtfDXlNq0sVQaFeAq4ITwiWSDBoW6fdiAp/JIVs1CVyAs6X1tiT45r5u8ddDr7jcg5nrMdeemyzjPRBRGhvpyY+gBk+2DrrAEdFrHfG0bRTfnyVjvnHLiL3btNb2DKesaSvOftH4PnwbmKpwqjto9WV5FNCKzN3iHN1ylI2j8u3V1uPCpdLlfHTxuOjqKLo6AVPiTuzkt/jHbrr2hGhqr/tf0s9ZOzCg/yb9FA0exdlfx28DWmM5rbVuaMRRd7N8gFrYDg0ncqepv8X+yX8+F679pqCKSPzvXX0OJqCxl/JlH0lV/D2Pdz5v+VkfGsziznULBvgLoj+u1+e0sYGSMI1C0qVQaXwTOADZL1b3pmbrQzm44h2ZW0Vkptus44ArgfcAmISdf+mnPSJcmBW7IlonfLRCmfchSk2UaSdJrHUX/abx29huXGtm1GhMQMNk+fKhtuIqB/1hZbstVyCxkwklk3oXraFud2FPS/NcfffqKOEMz2W2R6+h08fW0BpygsJOAzwj3O2fBLSJuPagRDkE4F4BQkCLsxEjIIfE6mxqqjiG+O9zRW+zyqcfrtbnNFI7133tXx/+DLqvruPK2w71XvTb3D7ZqGMNZhYIhDHXq3qiATT/6WxxBCVd9PnUGRwithf7vCLcjnLkUV3+nH6TLm/4OFsyOykyKCN4dCPqjem1u23HOgw1MFUxdsGh/kHNA93YrER14qjfnX+CzOo/dDPyTVgvfSLFNBwCnAYdFx6w0cTOigxUOOfleL83Yj8SW7V0gXwL9dJqnwg0v2CAxnuvymsSBuzjjUvvoS+mzjan4TAPIY9hOnQWZMsSjgo6T9/wUde6Vl1vyZKi7D/31ZyYEjWOd8BowYYNRQ8f4SiCBPfu1bzTSKYjaRewvhhwMFITve3vrfATvGruvxV1rwuVCuSp7EJHJFg5ueJ2McHBLQgVZ1fFdubJEZ6R9U88rIfc46Mz2YEFhCerBk4Bf2LJhpK2PaY/BcLBEIub64PpbI/SSegJUUbPH/zp/W8I1mLqdK9ZLf6e9TuRRf6szg9Y1Flz9JIDsC3yzXpt/XrFUvncc88AyjKYrWPQ64CJ3sCioEKSvOEvnrerQOvoV4AlpBYuksmZ7qTQ+j/Jr4LDmgykZV5IwOCGB52Ndh1wJ8jpgZ62ufEO2gkV9BmdGdMxmos6TBJ+rUc/J8JuZ+b41xsD2/oR29ZkV/lNB2nfQ/pYnQ119GY7+qkauO3yak4LBwSKZ6jwPTDyBEhniPd9hBMLChrrfwfGfcBPeQKCBTRVBV8J/t1d9jkjQvcBXz8J7txefAxhV+NadWeraTqGBUew/2tn/bo2spzHxrAq2S53VXsTpwAUdMY+Uj6/X5pfZsmGkaxX5AzTeXBX/uZwS0GCD62/BfeB90GoL6wrBdZx7OHtHQvV9wmtrXP2dngWaN/0tgR6I2j7tPwk3VOHqEEXnxjUPLMNoOgJFWwNfAI4di+MoXA+UtVr4Xkrt2RB4PfBuYIuuu+Ak7uMJMyt6lhXQbpGI7wCfBv1+WkW+x+vWJNxn5cpAi/25vbK7Bhy7cYNLScsjST8yHGb/WCbRhLBrsGijRNx3b71GQW/Nn8HuGrFuhzJYQnQyg0fhM3i6pbKL73XqdACytmrgbFO4zWFnQQOulj+ryHU3Wnu6guq4FoWIk3DcRyv7X+9qU/A7ok4IC2ZQ5ansdb02twtwBKGRGz1fO+NcQw5k4ITEbUCPBr5hS4eRnq4Kz1dxFDGWlPW3/8YIgaCHRFxLOLgikbm64RPfiNw6F62/05V3nvW36zCHblnUwexZQeCEem3+gmKp/FkLGBlpB4sOBc5sOh5xnUrP34lqyDin9WeBt2u1cFdK7TkK+ASwV0/Hvpe2816zaoLgEv1kia8Fvgh8WquFP+cnOKQJ3tP6XeK8T+M/Lv22JW5wadjO1zg+24JFExI42E2dY1EchhIAtxRLsw/lKVTkPpI4aOJG1SZgosNFfkc5HECZrEBC8Fwhf+An3G/hlP+wwR79Or/Br87PDhrzUcddd98e5r9TLc5yp0SehRReiaIdzJxYpavwpLCH+zBsfHn7Mni8uIQMNVllASMjbb0VVWxfuuiOQfW3OA9wCJ/0FdSJBIJGOAttB8Mc6tNY7tPhovR3mmtfPvV3+KQ2CZ1869dpLh+lfSUfq9fmf1Qsla+0gJGRRmBlKfAO4D3A0mROZeB+bqxDOkJbeP4EWtZq4X9Tas/jW4GiwlCc6djBJVdtpq5fcjnwaaCm1cI9k+689RdgSlwraJ3nC9dFyPhh4O6u3hasiOidDVDdzPPMiqEGdDJp73cJEhtZ6qfdxFFJwF2nBUCvz6+xLqG7p/6gQfDo4UkNFxGod+EuouoyoP01fzLHVcE73r3u2EN0PSNxlEJ31TtqfcbewHJ8Wzh7BelCDtm1nrUJQnUnwo5BsD+CZ+EEAyD+k5J8zsa6vMxoRVdJaN3pbOpxL5xR48T52mPqtbmtiqXZv9v6YaQ1artlrrhr5/l00d8Ebk6qv93F3nGeVeYP8kirlKqGTmJTxzV7A0HRBZm9wRCfDO5I3zINb/cK64ue+vtyRddHB95T0d+i6AqBjQXZvov+DmSRidPGcRctD65DSmst+696be5ZxdLsyJZ6CxjlM1i0E1ADjkjFuU9mcz+C8glE/12rhXtTaMuWraDX60A26BmASGO7WdegQSzZPAJ8CzhNq4UfT6aTFlteD9E8lekWkFtoGraBH10HrAW9H7i/9fgDwL2gdwMPo9ynpxYeGPO82RjYCFgKsjnopq2/t6BZoHM5yhYIW4BsCboC2LL1s6KZDs8OoNtlX7cmzRQzxsQuBAyNcAFg313BG/LUeH9gIJwAHl0cOJh9MJlho+DdxmCwzHXH0nV8cxYolsrHj+u767X5S4H9XY6DP2DjKjbafs+biqXyN0wl9c9Cbe6pgjyhd/HYYHBIetoqnrmyIfBS4D9N4kZ6NrE/XAR0KcgsQf39uWKp/B6TYzzLNByAiz7Moov+PmymNLt2hLptuSCPBZ4MPF3RowQeE2yXBE5r89+g8K/7wbYFxuBhIC8FzhpVGy1glL9g0VHAV4AEx+9FlYz0PB+1ZcvP74Cynlq4cPB2rFkKOgtUw23R3k1Jq6ZNskDKHShzCJ/VauG6yVbZADwIXA38BfgLynWI/AX0OpqFdW/RamFtXuaOVgv3Afe1/rx9wHm4LbAdsD2wM8ruCLsDuwOPBXYDlllmj9HFyd0KdAuXUxS8G+gJnOQqYBQ8EYbIbUeJCtZNmB4OZp6EWxWuhZDHrUyDStO1fSnoBLprXqjp6LQouY4Xd22B0a79KCG7LDDeV1nAyEhPbwSzhtwFrXGOYLPxkq/5YZ07iP4eBTOl2fuB37d+zmjZcAcp+mpBViu6kV9fRY8Nceg5dWc8Veu1uXOLpdmHLWBkJHFQNwT5IPDmSNvTVbsn7pHl3W3Ph4EPA1WtDp4lIqc0Dkf4FLBf7ECRd6pJv0e79dqiE/m5vwE5HdUz9dTCfQP04TJgV60WrhnTMPop8Fua2+guB/6g1cLDNrv6MDKqhdtoZl5dEdHXS4G9QfcHDmj93Dmc5deMlQkdRXuGU9+9YZRwNomi1+bThNRQDYlgseRgZsIkb0nrtCJc70Aiwxjh+i5GUJr+G2Lhu9KugqYy4Zlq2aBem1sGnBCsR0Ugs0hCY99dP8ZV68OTFfb0em3+ccVS+Y8meSONoJFXT7iDHMFwfvDMNCOupvZn0vpzc5Lr7/FRLJUvBl61UJs7VaAKuprQVmoIFyKXiALqQYte9gBewoiyjCxglI9g0R7AOaAHdbW5XYGPduZQ4jozi1wKvFyrhUtTaMdjQD6KUOzf4dXYSilcTCzi49y6fj3wdZDTtbryJwO2e0+gDJwMcjbwxjEFOf7DZtPIZL2ezt2IISp7q1M0wZp9L8Bxl8nvAAfquFyTMxlAwEwMnwKmuKodeIuCT6qTIqGDeiX0V7c6QIZ7fe92Ek+wEKmGwhdGn3O5ILCt/6hpCdVmITKPQJwF0Il05rVE8yRdwxhgBRKHPnAXnPaOW8vyTEvmMoD+zgYzpdnrgJPqtfkzQb8Ksh0B6yW4/c6l93BUQALexogCRktsaE74xKo0TmgFbQ7qK5YicQItzuceBE4BeeqgwSKprNlUKo33A1eAFptfl+QUq14Oh+t3jfjowPeG9f2twPuB3bVaOK7fYJFUGhtJpXG8VBo/BP4I/BvN+jc2qI2hOd7GRAUMHus1h9R3UohC4Kjx1vNX59XVDwbONOdjWwItjeN8eMeGZRgFx5C/sKxfrv5Am3ge71VFx4itz1b5ZRzsDyLrGQVf650j3oLh/gK/snqhNmfdZgw6bgP6wqsl1LcCE9paaXp4ELn7N6X3o7+zRbFUXgPyVJo7OEJZ4v6x1vk9nEntHVd6QL02f8gort8yjCbVmKw0NgVOB3l5O/jRq5zDQPPHt43tItCTtVq4csA2CFACPgTs5L/OtPb/dskikl6v9/Fr4DTg7EG23UmlsTfwKuAkYBsbycao3W7nGJ/kUi951fHInviCJcFDXjVwbK8Aek0O5eAxnKLUd3ijlkz0bA1nknl/jyqI6b8LaY6Kf3RoxAlbQSvHfSKSZQv0T702v6XAC6O2n7nmPBDoB7+jHp77oayD3QU5FPiJ9YAx6Brk18v+o9O9YznqdEcj2drnr1XYr/7OHsVS+S8LtblnA/8nyOPV2a5gAJzAdrtQHubLgJ8N+9otYDSJyqvS2B/kHNC9nZkwg54S5nQeFZoFgd8JenprS80gbTgY+BRwcPyAj+sa47atry13DwELNE87u3CAti6nuc/0VcCh8WVuBOS4EbBxn+P6Tq0WHjG3Sbt5VEa2DKd9/E6ThO42BcyMvxVLs3fn1Xh0G4auI46DK4dO4EwVx5aHcIv82x+CS4lNav/y6nf6wsckh4uqk9ET5yaQ41qnl4UccEKno4VLuod1gqukgPM9qyxgZKRvRy2ORO/Y9Rdfj9qyZvRe+8J6ol/9nU1mSrO31mtzxyr6S4HNO7oQcG7TdZ9+6ln3j1uozb1xpjS7fpjXbQGjyXKYBXgt8DGax30ndBJjOtjueXY+MKvVwp8GbMNOwAeB1ano7Ng1Wrq9ToMvvRnhv4DPabVw0wBtfRLN2kSrgK36kPkkjc1lNDOmtqF9zDxbtP5d/H0zmspxo9bvmwIbtp7fkObR9bQeX9b65BXx+jTWNXr7fl3r4QfonIx2J/BI69/7gXtbvz8A3APc1fpZ1/pZ6/n978DtWi08mG23KWEgyRgL9dq8AE8IZjq4im56jKmr8m2gu5xFiQiwuA3QSQpxBOtk+B93Sci1LccAIpy4jnEeLlcLdspRqqwOB31cx2eD13nyjmQlfIKSv4qXhrI8QI+v1+b/pVgq329dYAyukyV0DLr79K4o/W3Es1O9oZJB9Xc2KZZmr6rX5v8F+FJUoBFHYX98WcRtnbm9IE8DLrCAkYFUGlsDXwRe2BwrmmDyJTXOfe+5i2ZRrc9rtaADXP9y4E3Au1oBgUGuacC2RmYtXYRwGsJCv45/a6vgYjbR0912e5wT2TIy7k5pbIbIY0B3BXYFHtX62ZnmsfHbtP7dYnCnUJP3aU+/KDI4uGIYspdTGusQbqV5QtptwF9bPzei3IBwI3CtVgt3jdbhTlKjzBzN8ZtM+mhg02Cmg6voq8cwvSKvjr73b3+autd9xBcwkdTq4I2n5YvmsEsO7qCh18Se1HYPbT75NJv4TpTzv8YfcJS+LSmjyUJt7rGCPIMux15LlxCvhBzwbutbKIC8BfAC4GvWE8ag+gPntqDgOqMx9LfR21713gbpV39nnq8AZZBnhO078AfENDCyQkGmwyxgZCCVxqE0q6Dv0pk1UU5g3CybWM5jA3i1VgvXDXj9L6aZFbV7rK+XPq47MnDQ02l4EDgb+LSeWvjlAG08oBUkKtFKMYz2vbWPfhnJODsIOAzYD3gCsAfCdn1dX+Ib3Npf8EYSjeeEz0fdy9dub1nMqNoz9FrxyfpvNIud/wm4BLgY+LVWC/cNw9wZ7uuNIQRKntgtrdp/17Jdr+bK/EpEnWoluiD05G8F0MhsIfVlVmig0Ko63e6pn09tczvqbr9fpv76OWryHET2qzS0pSJcdFMdJyH5A+Yacij9wePIEwVXW8DIGFx3uGwk/1j2Z8ZZtucgq71/M9og+ju7FEtlrdfmq0DDdXpk8NgFCdkGvrYfRrMesAWMpjRQtBR4J/AeQifaabLASKyaP+3n/g68WauFLw94/fsBnwSOiO2QS2xN0uV9wSOXnd/9V9DP0cycuqXP9m1Os9jYq3CeUjdxqewV4IWxIzWqIBFt7EtXa7I+H94q1XkgGMeSJEHarn2/Q+vnUODk1me8HPjyCDUMiQNixqjYL7z9IljUWIKnaPw+r6ajf0NeMNsgvK0lWCBy8oNF3voGOMJDWJiohzyDcyl4XLF/O4OMfPnJI/XmKWWr3DW5ojImQ+P6SkVFkL0DpwMF+kVDR1S3XrtyoTa3/Uxp9hbrEaMf7eENGrlryvlvXETrbyOeZerP4hpEf09A0GhNvTZ/lSB7uw676N2etm3w9GFfqwWMshss2gk4Azh8IGc7uQP/TeA1Wi3cPMC1bwtUgVlgaVeHPLYjm6QdXWXxU5DTQb+u1cLDfbbvH2jWJnoZzVo8Edcec9vZRFqkGjjNboBggxIdeBplMKNbIFIGzdzr8qWqY+p/dYw/M2wyMr+eTORJQX5D1sMVUyAXR3FLl4GFY+vaJBnMrgVCCdYo8geOwqepGQTmkHdsBPMCog0MCxr1LfmnK7qHuAM5zpps+JxBAM6UZo3DU6L60e0mtufKBi1b7VPWH8YgOlk9Y1a66Bgx7THQGh++QTSY/p4AzlD0feIo3O+u3Rb8W1B0q4Xa3DYzpdnbh3WRFjDKomKqNI4G+QroNqk5ye1RF/lZt4G+VquFcwe47g2A1wPvpln42G0FR+nP3tfYL/fT3NJ3ulYLl/TZthXAiTSzifbv6YT3KqzdK1AxUUvogMEGiSsfHXDspxBcGUbQRob5+fQOyJktk0We7Haugh3WDib8vViavT5/pmPTdQyeFOcetq4juyc1BCoOHSu+U6WCwfpw5oYRdkPwHdkMnVw9nLKz8+YGlPnqsMWgzi21GgqGtvvjTGmesHZK1MlT7i0avoDSaixgZAysO8SpoyUUzJAIG9mIs/aJw8foT39PDN8H3hccQ/6N5/4M8+DNodZzewAWMJqSQNGGNPcgvil+4cqkCqn1er8TfSbwL1ot3D7Ata+kuf3s8bFtYefjqSrY64HPAnP9tk0qjUNaQaLjSHSk+zScsNIjYyp2oGYMmUOpffCYs6JiXWbestvyzUJtbnNB9sRzSkawVo36TstSgN/k13TUwFG6Xe82hMz3yd6kpb60fP9Mdt2B0VEovomUYu9xEbxTbQVrB6Fem98ION6/ucQ7n8Uxr4OOn/xipjR7devzLgf2VccR0+IMH/vWvAMXanP7zJRmf289YwwSwog6xUu76BTTIP3o6pAu6Et/Twi/ErgPdOPA6Weh7eedTfr4bMHWq/cAfjGsi7SAUVYUUqWxJ3AOyIHJ6op0cwQ97wtmaTT//ivN7Wff7v+61+wFfBw4Or5DOsj2nliK4HzgNODb/Ww7a55IJ6tBXwns6/7+Ln000BafSV1aPA5LKFiU9JSucV3/MIpDZ6FtEXWXxrYVzuhhnD45fMc8fFcpoC0uza8B6TXbNcKAlIi6EZMasNfIFUYcRX/VfaS4TaYIg8RvdLszBYiou2PE5vnAlsFjsYOBHtex2J5ZcJbnz68Jsq/fEY8XPG7132rg7dYtRr+rkH/MSUB7EKqpY/Rl//gkLqE1Lb7+nhSKpfLDC7W5qwXZN3xCWujkR2frWs9tN8zrtIBRNoJFJwKfAzbrWTw3bri61zYX5QsIb9FqYW2f17yCZpHkfwGWRTrezuyGQU49i6x7dC/oGTS3nV3WR3sEeCZIGXgJ6Ebu64kR6BJiOiwup32cy0wv5ypGoM9fea71WFYDE3GKo8f9jElwTL3ZhRYsyjBPc+1R9xpPDsM0lxlGrvRyf90iHAGkqGOPJ9Vs9ldpcjnE3jpXVr+ol1Hhz2pxBd0IVNGwYFFfrArOPvHdcHMHjTyyf0TRczxvP3Oxzoe379zWifoc+NbvpXpt/p3FUvkR6xqjHxsvuKXSdXvCH1ay/KJBV8BB9PeE8RdF93VtrfXbPeFT+Twy2sQCRvkNFG0GnA6cHAqWdg0EDcS1wKv01ML3+7zmJcArgVOB7WMHEvrR0fHb82nQL2q18Pc+2rMtcBLNbWd7xa/zEtHmUGCpR2ZNpnSaDvg80YWjI/X3MAItcT8zbqAnzvhufVams3Y0LR1iDLefDnZPF/fh0S2H9uL8Go2uoIk4aqFoUCYTbLCrc6tDsJqROE6K8W1UNALjCAgFKHAELiyraBAWanPbAkdFbSlt/h0O6foL/MuPZ0qzNy1+ZrFUvnqhNvdr4MCI14cyMQO9uzPNE3t/aD1kJNPEHRc9XH8rZPxH6m8jrp3q18X96u8J4/ZggMhr5UnIwnEecGEBo5wGiw5AORth76E5cX5bWYHPAO/QauHuPq/5mcAnQZ7sz3pSR/2hcFHOkAnb3jaXxHlv8/1We76t1cIjCdshwLOBVwPH4suQ6natMYIn0u3BFE4Uy76eTyCXIbg1i9kzvTK7EmUWafwvlwnqEyOr0+jp4ixquGgI4QsfCNyraI5rc4TrRUB4W4vrKPTgfv9JU6V+Z8ObYRbOsHAFkIyg+R1VkFadp9FgwaM+Z6y8DGGDxYTWoHMtDnfPsc3yLMdHn6PogeGMAunqTHr6d7UFjIyEYxl8hYcV12lWLiff9EYach9Uf08Mj3jHlH8brwQeV9+49Lx2cwsY5StQJMDrgP9A2CgNI7rrS5r8EXilVgs/6fOadwM+SrPwc/h7nfV6ggEXhzMtPd4T5h7g/9HcdnZFH+3YEXg5zQypPRIFCCRGAMzpqEcF0XJozKdftLzPa3DJt5fs4173hDliZqtMFPXa/C7AozpdJ44TgIIdqxfPlGbX59nZ98+9cDpu+JSayTbWwxvN1Hecc1ACrm16Nvldy3ErC9T3uAQcPNd2J9vml5BVquop3+o6Ftu/oSdQs+RBYMHhRJ4NfFhDDpW7ALaE7slrsV6bf22xVL7HushIrpFdYzhY2yicfWS6I+lqr75Zy4D6e0JG2JJuhrs6A5X+U+QEWWcBo9wEi9ZsDXwReOFgzmjs1z0C+nGQilZX3t9HgGUT4N+AtwHLkytYDY//rhkPkQch/wn4NPAlrRbuTNiGJcCRwCzwgtCYD1dZTFo7KcFzUVlLWQ5CJL02Ted7eo6TtApURxUxT7t9acrYyLG5dGi4qKY46iZ4s4+4KL/Go7+2SdTpKUG302uuT6qxHjxG2KsWgxvU3JU0TKcEx4L/gNhwJpYrm8uytZJRr80/XtGnRjs8GprbGgr0yHnFUjnk/BRL5evqtfmLgIM79YnE4WriCxp5Pn9T4MXAV62njKTa2L3NOZgL0tmGGdTfRgJd3dbDHt8wof6eMLaOsgFcJ+SGixMIij5gAaNcBIsah6Kchcgu0du2utXESey0/g70ZK0WftXHtQrKSxE+Cuzcr4LtGhPq/R4F1tCs8dToY9vZTjQzicrAbpGylMAfkjRwoO5+kqBB75BJ3yepjXahjBXUGHjrk/boh2FlZ/XzWZKBazDyaZZyuDicf39wJLTl4pf5NR5dKkaCRpLTdJ/kLCN1tttVl0lDK4yd0dNtgXLXvXIHY8MjzYjlWq/266zwFr+oTA3Po2d1+YazBDk4eHISDufRv3mz/T2rLGBkJNce0sP+c5+PZlUB+l8Bw0G6ZPp7wqyd3dyn8XXbwhsagZZhNOGBoqXAO4H3ICzxh0hjFNuVxEbKw8D7QT6g1ZUP9nG9TwE+hXDImER2F/Al4NNaLfyxD1kfRbOA9VF4U/ziaO1BChbHD4T1+yEZcmGGfenahwxdCnQId4bbNZLMIjCGESCRZ3U7rUkDBkXLCbogzxLRQI0ICdU06ryuV0BpgsYB0UeHS0g+ru04RlhmndBCVFhNQ+PJ6pDEp16bXyLIiUGnr5uJ4AiC3gXynS59eS7oJ6RdANM7B7w9q6F7eK0ef85CbW7nmdLsjdZjRm+Tz3Wjxh9ADhdopov+NuLpa1d2TTL9PSks1OaWCjzO276IQHpgw21oa+4Nw7xOCxgNN1i0E3AGcLhzLkgvRzdxrZWLQV6h1ZW/7eNadwQ+AJwcXtuHlJLtd7SvpLnt7P9ptXBXwmt/NM1sopcDu/Qd0JA419rrdLTY7e0jKDLC2JAkGncZuehB5Cnx5pv0ObYMo7eztR3weHHU+/APNd/JQ38ulsq5dnwktP1MQ6em+B1PHLV/JtdoVl/donCWketkFTHFFOn4eR28TkBRA1ubXHWzTJ4xeBatjO6g86MBhy5cmr69vfQbM6XyfVFfUCyV/1qvzf9U0cMkMPf9DiXOvhVkiaInAh+x7jLirT+u7dDBzM/geuPX30YSPR1c2frV3xOz0j8ZZOPw8R2ugKXXzgltob7OAkaTGSw6GvgKsE334ERSR9cZXHoAeA/wH1pd+XDC69wIeCPwLmDzWEM76WTUSEdbgfNobjv7vlYLmuC6l4EcQ7M2UaF/ay5me3ptH5MY3zEpq0aiGk4pyji1oFSvz3E9HxUEjArmxjlJLztOpzERptLhOI3SboNKfpp/8zF6q5lELjWu9PVJazU+o1B6BkAkcGKczfuQ4yeAhgsm+wsuhyuUmNMXe9yudtVcCz5GIGsA37zmzBjfcyZwmKt4tjf4FCw67LmOVRYwMuIHMLw6IFjPyB/AiNLfRnw97dURvlplfejvCeHIzhgCV503940zrzOtKsjVFjCarEDRhsCHgDeNSJ1dAJS1Wriyj2t9IfAxQieGdautpP1ogCBrQb4I+hmtFq5JeM2PpVmX6BWgO0zKkpPTlTSmZo7rwOiI5B1ze5urbaqBE/M8v3cr0h253XHYjp05jRM0nY6UgMMTFUbwGKc/ybtc3Edxq6MQuNuomugAh9vZDR3kLIG7jhbgcK9BquqoDeFdn9Rx2pERh3ptfhNBijic6fA8VsdWSkWQW4Hvx5gbXwf9jNIq8+AslOvf0IvHqQTdt16bf3KxVL7Ees6IFzRyV40Jbo8Ontpn9eT6WPB12vS3nOgPdhPKJgrqNgkHyP9QLJXvGuZVWsAo3WDRnijnIByYfFYkyYoQQO8BTgFO66Mg9BOBTwLPdWtH7bElKaGT21nPf0dz29lXtbryngTXuyFwLPBq4AhSDSD3UxtnCK/LSlg8yXVImnLuNi9GEPzwtbvLOA/VHtN4Hy5R40Mz0vfmJGWA57pr0viLugZOBsl9wGjRJAofGC8hRzR4ctKk3t0VR6DI+7g49KI/mGhELVauYKI34BgcQ3ZSWmyOBTZ31ROS0NY+/0Y1zyj+2kxpdn2vLyqWyrfUa3M/FOR5UcHRcFHsYCaCrgYsYGTEtEgD+SvtJyRwamW0/jZimssRa30/+jvr1GvzRwD74NFNfqcgWBMrLIfWY78a9rVawCi9YNGJwOeAzfpzoHsFj3xO6o+BV2q18OdE13hKY2uE9wGvAZYmCwT0nWX0CMK3QE7T6sofJ5Ppmr1By8BJwHZpqv70Ax0Dvq4j87szYlePZAnuIZ91MeT6ABCsd7AiRkuWAxt13y6Y5taOLp8l4+po15w2x2hMRsPjBNk96O54jaVwfQRuLJbKV+ZZLlGp/zjK2QYNykm/txt2NDTyLnbQUbFZHA4eiKd4PI6TdPxOnzrUs4XherAqumaYBhy64Hbb9ng+M4FuOEfQ54UzChYD62G7IuCIvqxem3trsTT7sHWd0UsXh9YYlUBQyF+Q2QJFg2hrHFtW+9PfWWahNifAe8MZRa5/xVmb0fP/H1jAKPuBos2A00FOTq9OTaRzeRfwr8B8wno/GwCvRqgCW6UbYIl8zR3AHPA5rRauTXCty4EX0zzp7Fm+7/FlPg0z+JO0vQOZ538F+RHoD4EfabVwXcaH/EPAbcDfmwEdWQe6juY2w3Wg9zUf5/5WIOfO1u/3tt6/tiWrh1HubvXn/a0fgLu0Wlg/4jm8vBVAAtiC5ul6GwCbta51E2DD1vNbtn7fpBWY2rj1s6L5erZ0/GxFO3WeNMfOAGNWhzhHjD5MpJXhrBjX9jRfoecfTqv57g8EdCQVzmSYzKLXGmhlMITR2dQTbJ/4gkZG2OHrbFNyr+Pu+WdbS3o4Po8CjgxnFIWPIhfPOUb+HtJrgZ8n6NP/Bv2cohu4MprU0ZeBf3cAjgS+az1o9FpvOiuvOrSGhnI+xWyqgezVqK1ZyfR35telk0APw1O3KWzhAE6dFjIZGhYwynaw6ADgbGDvPrdoJQlufBd4lVYLNya8xucBnwCeGG1493IeY2eEgPJbhNOAM7VauC/Bde7TChKtdge1gsG4tLaS9WPK9+lkN/v978CPgR8BP+yn9tQQWQtcAnItTePtWpAbQW8GbkO5RU8t/D13znq14A1YrR2CnlhCM0Nue+BRzd9lJ9DdQfegWUNs9+G6n0bGOWpx6+LiPn1xnoLl+zv3AaNARlXoRLDw6SEQNL4mtd3hu4iE2k5EcVXLMHJLVQN3oDUk63BxddoGu9FlvJ4ALAk6NN5CwW6325fJdXaxVI49bIul8h312twa4GiXUR2u5RUOwCu6ygJGRhwbynEilW8EK0QGLE13JJG0OtfAfvR3lqnX5h8PnBZ1Y8tbf81fB04D29QF4KJiqXyzBYyyGSgS4HXAf+Dd1hJ/dU0S4LgDeINWC7WE17gHzYLWL0zmSCbJRmizHvg6cLqeWvhJgmvcBDiO5klnh/Rn6gqDH6ke97P7qlN0L806Iz9A+DFwSdKaUyMMnJxss3socn0E+Fvr57KIubAUWDbkldgsl0waDnObCPLsZpo7zpNY1B1ImKoMIw1lKHgDJeo8mUYDj09im13beFxGtH+bj+sOrBGujKGhmhj+YG1w9BkRrA47ae4tFOFT0tpj+8zk84NzBDnaP1/Cc8evN3ynqB27UJtbMVOaXWddaHTTHMFjzf1rsYbGuWsMGnGl7T64Ian+zrDNtwvwHZDNg0EwccjANdYCr/nSKK7bAkbJg0VbA1/sBGLiHK/dLdDg35MZYAH4Z60Wbk5wfZvTLIb9RjrbaBJ6lbGdy1tpbjv7T60WbkhwjQcArwRW0dzKM0CgR8PZxv0X5Y4nm+48BFxIM4PoByC/0OrKB23mGD2CSutpBl5H4S0Z2VpVngdsFM6miTKiBOB3xVL5ximYGYGgSLgAZPAIbe+WNJnYVrtSz13no3U3sA3/2u3PmVZfaWt3Zow4xpfhd37m9wf2C59iCK5ttuFtYgBy+UypfFkfjuW3gAdAN/JuHRKiTlcMhv5kuaAzwBesJ43e5pOEjSkBNFhtENMYfctZIv2u5Po7i/py7rEK3wP2CAeDvONHkXbGeTjb2mMn3ENzp9PQsYBRsmDRocBZwC5dgwiSJNDgrFf0N+D1Wi0sJLi2JTSLQ38Q2KG36utRh6f7bPs1cBpwtlYLD8S8vs2A40FeDTw1ftAmRvCnPY9cwbcE7w+9J1aASFvy+FHr5/+0uvJemy1Gdswc13ywTSsZcmaPgWCBZ9e9el9/nTdt4zcoG3+QRJ36Wye21cFjwv0ZRV5DMxw00liL+LSFi8SZ8aLOIId0kbMRku6qcFA3qlB9eAtpq1fO7Oebi6Xyunpt7jzgxTi2svgzjvylYz3XscoCRkZvHy2sbwXaW8j9GS5E6G8jjryDtlAwaB9Xf2cvWDR/LMgXBbbyb3f2Zwq39WOoLLJ/bW9J5L+KpfKdFjDKTqBoKfBO4D00C+L24aj1Ukhtvgq8SauF2+Nf35pDgE8BT4l3TX1t4XqIZsbT6Vot/DyB7A4CXg28DGSz6FPCWtcW8pU0kaJJ3C7f9wXkE515dCXN7SA/BP5Xq4U7bJYY2TV2XH9rjzlgjMiAWAryQgIne/kNI6/L2w6E/M+0OfvhU+KCWSP+O3Sex05cqM0dDji2qIReG3kCWZRp68qs8Jp0/voD4sxecSw2O6vjJBi/Q4wjC2ZyajiM1IZzBuBcgVkcxzK7+8GAem1uKciJLqc4HMgNZ1545sJZA/TuuaAv9vZz0GF0HXjumSvPWqjN7T5Tmr3WetRwW1DBrUH+tcldg8b0xmD62nXoRz/6OxN23j7A+4Fj/ZXx/HWuNGQjRDmr7ffdr+hHR9UOCxj1DnjsBJwBHD6Yo9bzm24AfY1WC+cluLZdUD6C8LIkpnfCjIO/AZ+nedrZTTGvawugBJSBJ8eTiXqsjBgZUGnVY+kWnOo8dx2tItU0C1XfZDPDyNHqPIDeMgYzRvUQaRZEdxhLUcEJvVOQC6bJXA+WFg2mo/vXh5Cp+BbxFMKOOlUMj2OAw/h310Pxh6y8+U8ETjHzFuL2Zjv0rlMUDkyFazl4HXLbDhFP4UkokKGBwC1EnchjtKTzXGBHBWfJ1m5rimdM/7xYKg8SrPk2cA+wqQZCQ516M4TOZAs4XiXgVOtPwx28GFx/GymYp33o7/EFieaWgjxP0VcKUqSVMqTOcRPcdCZBmy8giXbbPz5Tmh2ZP2oBo+6Bj6OBrwDbJB/eiYbrPOi/arVwZ8zr2hh4K/B2RDbuvQXLeyR9jIyDJhfR3Ha2oNXCgzGv6+nNIJG8FHST2PGrSCchVjBnGNwG/Ajlhwg/0mrhTzYbnP29eIz8iua/smXzX92I5vH0y4BNgY1QNkbYGNiI5vHzGzRfI0tAt2x95Kb4Cz+3jrj3OYObgC7rPQd9c+LO5gTw8QDgPcXvbuDh1u93Ao94HrsX5EHQxdPU1rb+vQ9Y1/r3/7P35nGynVW9/rNOZhLCAQlTCMikDKIBFYSg4lVIi8hULeNOQFINqD+uigOKOZrQuYBcryKTYrU4FRBCF7lBhAMCiYBoQCUoCCogXqaQCCSEEJKQrN8fVd2132Hv2jX0UFXfh08453RVV+397vdd+13fvYavD37v6sGfVwFX+/rKPtsp7H4EkR06fBRwMnAKcJfBn3cd/Ln1s/uPUwdtgTajTyQRHdIuK9HG4Z2ton3jsrr3VXM6vp2kG/jy/E83+Pn7d7kbTi7lhehnQEV3plEijkVSU24nER4zSdSVRW14Rd32w0dEb9l20XSNZeUYPt1KvXyGa2b4/6lwk+xBXz/NMbSK9rW9buetYE+yyusbxw/GwrCfKcFI1DkqU9rvX+h1N54R33NSQaCywUVyD4rvU3XHPsqGVQmtg389q1W037m7oz08kio3sYn93j1xaOPowR7328Ef4PADwCMMDobX15LIS6vd2eTr6g1+8hnfZZslwSjv4BwNvATsF8fvkjWWM/YZ4Jm+vnLxGMf2JOClAyeL0R3NBsdsFcceFoq+ATgf7FW+fvoHGx7PQfrFq58FfNdYYzCz9Tx1XZZrgPfSL1L9HvB/2S1H3w4dPgb4XuBhwGnAP/j6yvoezftjBo78XQb/3R64w+DPkwbi0MGSSHRE47lv46yXNDd5vPWVrIkTpxdWfNIx/Rr94vBfpt/x8MtgX8D9cowvAJ8H+wz453Znzs2+fpEdOnz7SPw5BewU8IEoZHdkKyE7z6eWUSzqdTsGPJ5gc5Tv9BUJGv93mSQ1r4j6yW0VyWwYw621J4V44+gcghosXrl5r7sLWQPjV/d5uRD8XPJc7nNsvBp8SyMOxVciFAvDa13jPImhk3RLwx4XzvpcOmc66qWf3AR2wQzsxJvAn5SPDAz/XuGg36vX7Ty4Vaxdqisrmmxex7Tft3L8VuPab0uS30JbVRae8iJD7n5E9uFG+f4XRdzeYndHO933TGi//6vX7XjykGhQSJrs+RKVBsg/wIt0gWOBY9LEV4LooZwE6RXFulMZMPFxHVhbLdauk2C0t2LRPYE3Ag9s1l5+IrHC6UfvvMDXV77R7Lje8QDw3wd+cHwHMTr2oDkFAF8A/0PgNb6+ckXDcfrBgUj0U2DH5OsP7bQR94wT3Og6XA98gK1OZs4/+Hkr39ql+XUS8JCBOPSwgVh0TOkt/7mH0/+N1HX/m/o6NV0zmbk0cm6Ne7yj3u+zOtcTB4LVPYLPNmKn9AY7dPhp4xS6n040ajxfTyCMCLpLKg4F83cSke/9S3q7eaj3n0pVxIhki+5+C3jr8m3Xc21zPTINlmw4Q2GoKk2M7OvhZjSWHnKFN6vSvamoWwRVtS8sqUvkQcTLUNaqaukscaPK8oXOmWcdw/JG36ujsJd9NFtgx+XqAqVrK14f2+97V6toXzGDg3nrIJL4xNgahPW+0v1i6eifTj+yXogRAstu2u84ejYVZq1ChEhr/lkiKqWRTs1r+O3cWIfdzzwSyBra7xNT8aufbVMXuZPfN1TVUazya8IE9dyeI97npfWw8tFjg5/+9mqx9q7dvjYSjMqX++zDT8P4Q/opM5MLMvVO6b/Rjyr6QEOH7Xb0i2WdNZw5oxzuutcNzMuO2iuAC3195cYGx3Jb+p3Y2sC9k3O0aZ34cX7fx7gO3Ax8iH4NovcAf+vrK9/cBXHIgO8ciENb/33H/GytJ7lWVcXLG1+reI5m5lZmXrjX1L8adX6zEsfGLLruQQuEo8ezOzvKHezQ4Y8MBKGDU3pnDd5jlyzpHedpqeidb0Vd+vd7WkX76uXaqscxPx50YrKsMENFLaJwk56rDxDWo0id3nLEQq7GQOoQlLe3nghYVWJUakVyLcmdMGqjWQrCUq62EXWpPInkqutbKByeHkfslddD1bqI5vvrZ3EsraJ9/Wa38xagoDIisfpKDo79Sb3uxi+0ivYNuroiZ0F23357RfoaQdonmdYLcaSOV+xHc9GAxt4V7baozUeVgDWJ/U7HJSdU5dP9vCIiLL76OaEoJ+Tl0ws9uK7lfUhpLN5pcGgvVoAEI7afor8C4xmTCxgjuQn438C5TcQKO/vw0RjPBX6Tfi2Xhs68jXJgvwmcD7zc11c+3Ej0cH4Eow20Bo7tiO8oK9XTjJlP9iv9Ifgow05m7/X1lat3YR4dS79T3Wk4p2E8lKT+1Tx3oWoi4Hkk+FSlQdaJmhOkfdqo3x1HfIw/1HduOKec7jvEMcB3z+78asa+/56lE4x63Y2jgJ+qFjbCzVppg3Hhsm3S025o+X9V1y0Ixbia2lCQPM2EuNNZupEebvLSmkhpJ5QqI+AVm+JwE+2ZDSfJxlZiUZVTlJsL4TyLHQrFF2Xt1ymG/XC6wki6AhI4y4EE+02bYXqtYec7XljW0crddBMB6Tbgj2KpUn7FaJdi7+x3WAUsjrIlEj5iIcuTKmK5GolhN8H0Nd+DEY9rRs3KfluFkBTvUeujkKvmRvq9uVTDqq565Z0eifi+/V0fMfynWsXat/ZiLSy9YGSHDp86EFC+s7ka0TT9anui/TNwlq+v/EPDY/oJjN8D7tXc26zwOofH+Vng1UDH11e+3OAYbgc8A3gWVkqnGXXezkAsKIlGjX5nitf7fAq4GNvuZHblLsyd24GdBv5QsK30sqNqL89+3naOHGcf44NGCQmTbMNtgkiiaUS6Xb5WZvv8+o8xxh6LeJXX4L98/fTPLOGt58eA2+Zy6MubofDpIjeDvXnZtutxkUhPXs8V3fWgHpFXRELk2vemIkGutk349DdXYSg8/qr7dviEORawqmoZ5eophA6IYmKqNvZxamNawyMca1PEVo4zHDfLpOxV117zkkMEwFtbRftrM7zK7zTsq8CtY6esuh5KkujzdAlGotpi7679zj148Kg+nWXrbVoiZw0fauTFoioxYy/tXlUDkEntd5KeFlw/q9wQ58UjsqJ03ec4ZGtHxfsSMql2hn8UeESrWPvaXl2PpRWMBulCPwf8DtkaHCOcSBvldG0XkX4R8KKGKV/3AX4POH18Z7ailoJxCf20s7f4en2dHjt0+MDAkXk28Jjs/KiMGtgqrp05PmtikUdGIcR8CXgX/RSz9/j6ymd2Yb7cm37doYfSTy+710I9f7RZfYjP8H3RnLdMQdeZCV0j5vauKDb7+Po3SjMsi1+N6hhdsqQO7BnlYog5pzRTc+eSGdX7mEOj5Mnmu67Og2Va7qabQ6+IBso/ja36rPL2niQ8Pl9kN1d218gX6I4LZ8ZPkMs/k6hRNYsskyYSpiDET7HD9MZ5jgzeEQt2Rt65zEX1eHZOM6N0tC1axdqNm93OhcAzLUhitdpuSlFEwKM2u53brBZrX9E1FuH+by/td1WUSy4qpipFOi2m3aT+0u7HGJXv+bO132HCnScd7dIjCN9jme6qlrFz8cOonIiVS0sziB5cbZ/z3xn26FbR3lO7tJSCkR06fBvgtWwX+G1mKMZzuvwfgJ/29ZWPNjieWwO/NRCwjpzMSQ3eex3QBV7h6yv/0uD774RzFsZPA3dr5jR6g3Ebxykfea5fZauTmfMeP2/lX3d2jrzjOPDvZ1ic+iHArZud3zJvLqeJQpqwC6FNebjJAwGPfrYI13JcIS8SoJMxaVI0fMR7+m9ZOsFos9s5CDx+dNRCGKnpM3aw5khcy7p86cYxt1aHm0MyQpCVUqerhaPcESXOb2UUU87ZICmd6dmNclWdhXw0U7hZFuG4jGorbRl5g4zDt+z0uhvf73BvopQar0mz2BrJktP7NfC3zf4uZ28AnunZNeTRYyDLOetHA0+mH40vxJ7ab4s+3Su7dsad13IPT1I5pLrWDuQeqOz2/b58hLO137Egkxe4y3dzsgWpc3aOms6uedEofMCUiGF/DjyrVbSv3+uVsHSCkR06/DDgDcCdKx3GxFH0cZyv6+kXpPpdX1+5acSxHEG/09gLgduGn+0TiA/2GfBXgr/W11e+2uC7V4A14NHYoEX6qGiNwNZUZfhP0vo84Tr6Rbm36hB9eNR4Tjkvbj+oO7RVnPqBbKWXjXXsi76pnEYMy6UtTdRlcHbCiO3WJaxL2dqNu7DXfF9uHUfr2cZevzRLTVzKCKMnA8dapvNXrhDi4O/fMvxClpw4tNwyMk5VBJEnhbHD6g351sbhCknrJpBxCIBscltVhaV8Sg+Bk+BBjaZctFX4BFnxMFVGPV9sFNLUhOqOeku+Bs+0rCAXrr06kRfYbBVrO+EAXez4lQYn5danZaIP4kM05wwJRiIn5OyV/bbsXM7V8MmnYcVykmVEpXwHMN8H4+0zs9+WTf+Pxbo0mZDsiMWCoCV7gPy+peqY4mvpXwf7xVbR3tgvq2BpBKOBQPIC4BzgQLVzOGGUQ5/30++A9h8NjufhwMuB+1d/dmPn910DoegvfX3l5hHfewr9jmtngd05TSVpOBY2c2NyI/BBtjuZ2d/5+uk37NBcOADcp193yE+jn2J2j+kc+JpUqcbiwH7Y5jdsNz+R4JETTEYVx57Fd+Q+a0bd+xofYySK2S5f75mm7M1sbv3XTqeS7lPX9Zlhty+Iu6FkLtrh1pKmSVgyTz2zWSSRcOLxjDfYXlEkk8xT3fwGMre99WBTXt2Eorroaa7td+61tB5CmBSheJi8c5euudgRSR1E1TDq0+tuHGXw5DDdxZOIunKchOWdvTfsxPG1ivZNve7Gmx1/NkmtojBKIE4tcRxzw+EHet2Ne7WK9n9oxYi8eLJb9jvfqSsWknLFl8M0rPCelHtoUtVFbK+F8thGz8J+57vVxQJQVdBGdSdSj2wL5B5Ujd7vGfZO4Dmtov2f+2klLIVgZIcO3wl4HfDwylbzWce16r3JRvVa4PnAHzQQbO5Gv27SE8ZyflOupR+q9gpfP/3jI77zSODR9KOZTh8KZj7N98/CDnwE7N3g7wbe5+srX9+h638LIE4vO1hTIHwCAacmVWrkPjMjNu2peZ5WgIjOKyeqWANBYdr9eVVzlHFTCivFpnI3uHGE5r14erMfxMjk+y9Ztq3nZrdzf8O+P26jW9VfpbR5+4tldfHjgtRxAexc63ogu0GsK05pFepyLE5Z5mljWBOBinpL6brPd3RKCwXHhswrPjkeM5HfoMcigkGmpk2+w9GS8yi2o+HzdVGoXGHb7/mi4xfv4DG+Dnh2uW9SzslPXfrgaM9kj1pXi/15D9oL+51/TJEWR84V3A53nGktnfw22TM1j3ZbnrMds98G2YdNsQwXj4Enoluchh5HieWFqrxoHYh+Hwd/fqtY+8v9uBIWXjCyQ4d/Avgzttubj5Nelot68Lib0V8Dzxr1pNwOHT6BfoTT88COmSIN55PAq4A/GdUq3g4dvjv9aKKfBu5Yf947YBxSoeDfGBSppl+o+is7c83fcUfwcnHqBzSa6xOl3dSe72xFmj0w3dMdm48p/PiMj6OiEPy4QqlVrRWf8Br6NCrchGMwaWTYtHOg9veXTjAyeHauQ0duu1TaaFxlcNFyu/qpiEYmPS3eSHtNp6R8kUzLii35J485CcEqnlDGhbDTVs1pWkC+yKdnWpTH3dwUEZO3uFWOVjxuubQFyUUAFFWWLS30Xrk9umC1WLtpB6/23xr2RcfvmEZRWGatxrVcwPGi1934zVbRXvjL3utu3MLxR+brrsWyw6jugbmxJOPeh3Y35/6Td6jjv7+zVbS/sfP74L233/kW7vl6eWlhZctIFnFErVdUVLJdt9a5dLlZ2e9890ayXdjyIxBHB+VqQcUiume336Xv+CDwv4E3t4q1m/errVhYwcjOPnw0xkuAX9yeGO7TiwLDNJqrgV8CXuvrK14j2hhwBvCSvmgzjuMa8A7g5TiH/bzqKCY7dPho4Cfpdzr7sWr30GcsWmS2VMbnCTuZfW4HBMEDwP0GwtDWf3fbmRoxI7aNNpZNnINyRw0Kl9fWxhnjPMfpwDWuSFL+jLHGvSrya0oBpXLMfAevYU3NprHOfaZz6L3L5Gn1uhvHO5wZbvbS/PxMh67zV3em3sdcSGxxUhm1Mo2Ta3Vc3px5o81qbhNtIzZ+dZvtXEFsT9aaZX/fK87VKkUyUERMfo54thh5fK1zToot+Xj2uhu3Bh4TplzmnGGyUX6lWf2GnTzOVrF282a3c4HBz4f1SDyz0gkcz+Ea9W8HfnBJ7lG3Ay6kpj4cSXpT4vAm9meX7PfdgM/sxl54r+x3nFpWVVDZMynb1Y808u9J06T25j4S3n99hvbbojmWk9+GbUasQmRKr1scYRQLm7mC2HwBvOfw2tWifdk8GIqFFIzs0OEjMJ4P3J3tJ7NeUa9oIkfty8Bv+vrK50ccxw8ALwMePNKB2p5jgYG5BvgT4JWj6iLZocP3pJ9y9gzgpLHFjux7xk7J+m/gbwYi0bub1HKa4NoePxjPrdpDDwFuRd2ltUnOJ3d9fJYWcYLrs3vmunFRYxv3PGcgto197HHtoFkJZhOuE9vxQRjjXKrqMZV/Nuu5aYB/3tdXPr1kPtfTgFumG5DypjSeDY5hf7asTmrqrMdCTi6SiKzIQ9LpJN5kVz8BLH+eJ31Y8k/YLYm68GwCYvpUOp8SYBVPgi2zWZ5wX7MEs6kqFXHonoUdajxqgL3UPNHxo9Mn8WlUhGXaeg9m5KdXi/alu3Cs54P9fF3dsbIwn0YUgvUf9L53GVaF1cjiqT1NR9IT+2m7bL93eoz2xn57Zhxy967052FUnY+IXqo6n715ph0/ZPGZ2W9LZnB9odk0GTFualG3d09Ft1Iq7M8Z/EGrWJurG8tCCkaDblrreyhYnQy8mP4Np0IYqvUVP0G/S8Of+vrKNTXfcwzQot/p7OH1g9IkuiByHEd3VrqWflrJxfSLVf/zqBpOE4zlnejXHdoSiB4Ag45uYwsRTVOestFSE4oHo7qA7ccwo522YZOIl5Me+24IcT4n454bjxE1o+Li9lNHxm1//yVL6K7+TJW4QMUGHPhYq2j/vXzVdLMdPtMLN+pRXYkHtObkCd4Wve7GqeAf9owDka99AGTeJ6pMm2fc3rQ2SJWLvKRy25nNaoCRHdsBr9+d622XOv5Zw05JnbY4wrMyZeWJvW7nua1i7ZuLvTZSscCC4v0W3Zcsk9Y0XEE7YL8DIcSSmna7Zz9sRDi9Z0SMaex3k/b2noh/sVAUFoO2Wru3L+xMclyWjfKf1H6nUUChcGfJmJEUpy7/vaobGhnha3tuP65VtOeuE+PSdEnbJaHoWOB59GsVHZ91lKojSxz4K/BXAH89Is3tvkCbfmG+b5twx1TtTFcXa74e5+8x3g3+HuBSX1/51gzH7wjguwiLU3/77MWIUY76qCiwST6rSsjw8OU9tdlVNX9mPeZNRJ3dEGEmPd9J5sZ+iSCbshaUzez7l0ow6nU3fsiwU9NNetw1JexwArbBEhM/2QvD6eOnuUS1A+Y3KsQrajSUQ/LzT9clFdXNJKvYEMV1SfaXzd4P9qtzT8MeGqcreY3oUFGH5XW7cbytou297sbrgefHEQd1jnx0rCcCjwXeuNhX17PiUd2/005csaiUS+mZxn77nm2Pc/XuIF9TaWihE/t9qWF/P779zv+76hpZRUe36kpG+ftOVFfqU3tjqT2TKjqW/X4b+I1k30lUbc0rO9BF6+MBwF2GP83V3yIrWYXiEY/odTsPbxVrc7UPlmA0O7GjRb/72beP5wD7VcBrwV7t66d/qubzjwNWwZ41EFNm4JyOfM/NwD+CvQf3d2F8wM9b+cYMx+wEsAcPWtufBvYQ8FtO5aSPjKTKjM0oZz/fymBCQali7PfFDt9LO8Bxokp8zLHIt6mcfHM+qqtZ1XsnLVpdFYFWF0U2z47HpCJT7e8ulWDk+C+k7dzL4xTmxQ822NfT74S51MSOZz7tIXRfw2oM87n2ck5Tpr5VZXqdaH5zrk7j00gORqWoio20ZFVaRYoNl60Wa5/YxcN+E/jz85YjVycmy5mLLxhZhUOd2mCvSAerKj4c1pyZ3H5b1AnLxt9wz2ys0uMZpjWWC01H9vtwq2ifI0vSfIzDe+BE9vtprWLtqlkeWa/bWXF4e9ptzbId5vKpm9sO5f/q+70SjJZJKPpu4OXAD4/pYP0r8ArgL3x95dqaz78//dpEZwC3Gk8ImshR/Rg+6GRmXDyqE9uYY3UKw9Sy04DvAT9iYsfUanxzGyGKjEo/bbJnjOu7zKJW0l5vHMybn/9ke/OKsZkm8mVKcaupKDTyM6qEs302F5Ix2on5WmuDPu/rK59clntEr7txN4PHVotFHs2e7Q32m1pF+yssOdX1Kjzbr8ySDjvzHGlEZbec+Ml3VfchUX0TSzsFpXNu2VPSNrsdMzgj10ErV5smt2YH8/UNu3ncraL9j71u51Ng9/Bs0eCqOnJB9Mzpve7G7VtF+0uLen09UyvGMmNSVesoFgirIjWmtd+57mK2K5bDskXdy4IYFSKW4j0nm5F1qa/j2O/Z25S1w71u59J+oAOk9ZUIUjlDgShZKw/tdTs/3irW3i7BaPGFopOAFw7EnAMNnc6bcd6C8XJfX7m45rOPB55MvzbRg8dzxsd1ju0z4O9m2Mns8hmNzxHAdw/Eoa0aRKeMdGKneWjQNBJorEihmqgR8wnEj/3swIwrNI5IaZxamJmR4DXVWNRNoAapddZUtNlL32lUxF1VYeyJx/GSJbtdPLd8j4g3muWfRSHuf6Ct43DzVVcAM3zSG94G5nG7bpmqFuFTS6+oGRNuTkW90c2nlJRdPY2hYQ8F7p4r/J5LFHGykTtuO9wdreKKv8Hg7DgyL2zdncoPpVo9Rxg8hX7zmkW9vpVFq4kKPedEm1hUCYtZz85+G7k7qO/aGFEZUUVUcNmz9luMu0GNncLx7fcO2ZRzDN4e3lUsibj0pHR8fFd2gBf1up3D81L8WoLRZGLIs8B+G/xgsw2KfwXYAP7Az1v5TM3nfi/92kTb3XSmc8bj27gBfAl8q0j1u3399P+c0Zjckn7NoYcy7F52QuNjy+7umxZHJvyMXOvySvtR5+TXFayetBDwPNiFpuc2Zq0nbyBWTCwqjXrPLIWpqvP2PegKt8uC0myOe2kEo15349aOPyvOxS9vstNtMBj2T62i/QHdbcsOXHlTXtfNrNrVmKfzjR2x1NnN19OY4Ka0JDMoV9g0ffIbPxneTwVh94gzy4JCeCuwRBzKpxvZ+1tF+7N7IIZcAJxNJlLFMvWMymJFad2duciCUVwjxoM6Qpaxs+nfR231ZmG/Y5u3FyvSMmJpHH1Eg65kotm9b3r7PXtWi7XDm93OpcCD41TJoS3JlhjIrZFTwVrApgSjxeVnt8Wi+n3ZP4O/HOf1ft7KdTVCy1OAZwMPnM7Lyy6Qrw0EooFI5B+rK6g9hkB0F4bFqR9KP5rowPhOel3NlynqMFnu3zkByBt8ts+v8z+tcmATiDA263FqINpNNM9mLC5N1H5+P0eczerYks9ZGsEI+DnDjmdkGlFscfzlus0SlZC07GYxbwtsRHHReTn3arelfL5pOoQclIp1VTnC8bocOs7pby4Lve7GMcCTLJuC5jXCkUeJa/76vTj+VtH+l81u518N7usVkkZOuCCIGLAH9Lqd+7WKtY8tupMer4M46oqSQ5yKTWn3slna77IQsNOpR7n9Zxj5ZJX3Kt/DAt2Lcc9PI7CZ2H7v2L35HIe358Ryr+hEF1ue0s9e2Ot23twq1m7e79dGgtHsd3U3AW8GXunrK++tEVweNBCJngzcYmwnLRGqtn/nOuADDCKIgH/09ZWbphSHjgS+h2HtodOAO48+vkkX7LSFg0cVUR6j6HX2tWXpnrKfUut8Bt9f9ztNRcS6zmpNU/qaftdeiz8Nz2G8ulFLU79os9s5zuDnc61XIW3ZOgzb50rHz9fNtdmNN9equa5T07xsmsPOQowooAlxgVmlQVRt2L3iya8Fts0yrcCXD38M2K3y6ygUAnKvDWbntwx70x5e+/OBF1oQTeSVtqF8RsOVZ2cCz19kB52kBhqQqVtUHqk0ZbbpfmMy+217El1kWd+inIoUFnkv22elBk9nsT0z68az3zvBVi0jH0QZhWvCMvdxq7gjO2D3GdiXP5VgtDxc2W+B7K/29ZXPVQgvB+kXr27Tj8hp5qTlHDIrCVTOpRgXA+8C/t7XV745pUB0Iv2Usi1x6MHA8WM5ojNfq2NufrPpQQ2jkUa+Nqs0qkUSk2ZxvuOKgpP+zjTzqyxGev17KlPUfA8yRmZYJwoPz61RCuf265cs0ZbnLOC2abhyXEHD4xbPr1kt1q7XLTXcBIabQ49+VleYdFEcuVisJhCG4s49clRyVjDsapS+ti0QVKRaLR1n5J7qxzVvckX8Sz95Z6tof3kPz+FN4C+suoZp23QgssgGxWa38+urcxAFMOmaiNdHlT3yUrpa/FqdgDSN/U47re2miBt37IrnR/pa3n6L8Wdmdbe+pvZ7B+/Q5xj+dpJqaLlGCaFUHdf4Ag71up3Xt4q1GyQYLTb/RL9L2vm+fvr1FQLMDwJnAU8Ejpt4z9yfbg78M/3ooYuBS/y8la9PKRDdbSAQbRWn/i4qC3nHa8CpbaE9c3vZMErEdkOwMeamM9Y490ab9Bd3TNS4Gbhm5O80PXbnWIxjdlZ88frC6ftmDzFGAe/yIFtdsffayL73L8NNodftHA32q1UOZ/7JtgNcb9grdVtNF3VVqgRUhYHP0jbtxXmTecofO1Chg1dXM0Hka7CkxXqHsQNekcy2JDbsJLAfJ+us58pd58QBA3jdXp5Hq2h/YrPb+SfDHhg6b2XHzYPEqozduZPBjwJ/vZhrIh8jlrfFnqyIdDYkc2AG9rsc1WO7OkLpMebq5+Q6u8X2WzSRicpJ1550Lmxuv3fYrhze7HYuNezBaRqijdjrJUd4d/BnAn8owWjxuAF4A/20sw9UiDC3Ac6k30XtPlN+3ycZpphd4usrV04hDh0JPIBhetnDgDtOJNBY3etbxax3MdKmHPUwTgHiiaNjJohYmur7dlE/CI/xOuDq8D+7Gvxq4OuD/74FXNX/074OXN//Pb8WuLH0nq3Pu760lr4x+PtNvr5yzZ6c9qHDR+KcULp2JzIUTY9hW+i148GPol+U/ojS+w4OBu1WYMeCnzh4zy0H9c4Gf+fEwXuP2f0L27Sj36j56dPM4UuWROZ4JvgpuY05WYd+eyz/YpFbOE8yb3MdmdIoGo9SABahnk9esjBIehFZUi5WDkrd6rQkDbRcpyTnIC7jiNqTwY+sFolyT2jKI2gA33D8LftgW/Mmxx+YT+60qKRu/t5o2BmLKBiRlP2ObW8oDFU1bvB0vBK7Nan9Dq+MZ6J6dkfEyH23Z96Ts9+i+V2PTFT2JPZ7F471HMff3mTvnAqscS0u+81ed+PPWkX7OglGi8WP5hxbO3TYgB8GnoXTwji6mRMWveZ8Huu3uQfe7esrE3eXsLMPH8T4AcL0sluMvL1uCy6jUn9G1Qma9aKtcVZtQtFm61wr24lvpeEwTcv4m4ArgS+Cf6n/J+U/vwBcAXx2D+f1PwD/CnwC/NM4X8D4oq+vXLfoC9rXV7YEry2u2mGB6jjgrsC3A3cDvhf46s5uCmewxrKf13jj9iVfX/nEos+lzW7naIMXhJudnB216Mk27vjv6PaabrLSnihpZxKPxbg5zgoO66hY4oBZtHH2TBi8XJWcvaqqL0GSMmNL3xTbz4xr/gCV6UIVf/41cGSvu3Ew3/0o55jnXCpqO1HlbUaQNPdO8BeHKSNkhY/Q3gT2+wm97sbPtor21xdtZcT1YurXBplxj5Otq8ZzMvudpof6rq7Lsphm0VlZpnh3zn6L8fef+f3TuPZ752gV7cO97saljj/YKgqe51PEw/cN3nNH4GeA35VgtFjO5TWR83c74Bn0086+Iy9Y1Jg296/2BSK7GPzdft7kTpUdOnz3oThkp2Hcr3801sBxLNVmsaqCvtOY3B1uaz7tZ1jV8Xr0enAuV5WEn8vD/3zwp10OfqWvr9y8z+f1eVrduzbW1wGfGPy3jx2sad67nN3RDHsmcEroWOWegiWb8L9cLdb+TasjN4MsG9ngmQ3i9v+7z/9MqnCoc0VhPdstTaTuRlXb67jQcdzPZnlko81u5z6GfZ9lBZjqv2dm72Nt8CAkrIFDIlGk7nkqKOTTltJCxOmmrlqsygtMsTBmgB8P9njgLxbsfnUD+EfK0Ypximt6XcpXxmosts/Efue6iQ6uyg27az8sPYLkuKpjY8Qkd3+bwn7vCucY9nay3fE8u2aIItRKM+UFve7GH+1XUVqC0eTCzAH6Oc1rwOOAo3ITvWLSXgu8j36K2Xswu8zXT795gmM4in562Wn0U8weBtwh78iN26Lex1jUTd7vUxiMnXFB8kIRANcPxZ7yf3Y5eBAhNG2BcSEW301bHsGo3xnNfivn3NfXPADwF2vOVN1hylFZaT2oVCyZKm1yn5xzVTpH3hWx2q5Vyz6HLNM6PHVl806tL01f1NL4nBm7v/lOWDlHOSfGQFg7KF9IPE01IYmmy13DuJ17rqhy3M0qLU5M0nMwY7/PXDTBqFW0vwCcKisxyh6nqeRx8Xe252pu/otxfDRvuPZH2e9dWD+He92NS8EeXI6TKwtDcUfc8nGHdsm+DXge8EIJRosjFv0c8Ev0U0kyQkSSjnUj8HfAxWDvAv+gr6/cMMH33pqwOPX3M6ytMoUwM0uncIKtVeXa9sk/M/9hV1SkgwXRQb6+cpVmuRBN13Xj9XnJEozScx2/gyXVT9L0osipf0erWPt7zbNq6YTKwpe5qJt575JmWUelqjBsPmVE5DcC+fS9OrGIJZKMNrudA4YVZZc3LxrlkowIBJz8fSKubZP2myLbRdIzdeDCn3uycvLVcPKt0om6DGbt94/2uhsnt4r257WSlm//M6q4t2XmkwT8SUfcprbfu8g5wNvT7oqWLYae+rcBz+t1O69oFWtf3W/XRILRZKz1xaKcSGSA3wx8mK0IInifr698YwKB6B4Maw89DOc+1Tvg3egINup7xnQq81Gd457bNVXCT/TfFb6+cpOmrlhyb6mUbjqOE9SwnlH1vXrh6xdtdjsHDfu1sBxx9dhFNUBepMlZOWGzm0Or2F5WR3DN63nnOp9ZJCxZo832Ms+jVFQsJ5rEcQPhWPsSdToy7OGO3xnChDxLovfq6rPlU9nqU8SqUp/ye9E4sjCNcvJsvFOYKBU7onE5+cR+G/A04KVaU8t0DyrPbyffBcszcbC5Okeimb/pmZ9MYr93nn6UUedS79cIjuxI2HEzLLJPxpZxK7DnA78mwWghDQkAH8d5D+bvAt7r6ytfGVMcOhp4YEkgOg24XVazye0rJ92PTnauUziVJUNQ/f030C8A/YXMn0Fk0DIUZBZipvfhHStIX7umL1kCR+tXHL+1VeTcWyZqYfD3v2kV7fdqclbdptI0qyrn0KKIB5vj8yZTWLiqXktug6xn2qm7kSsgTlJYPRXUl8zhO9Oywo1V1M6qTy2jUi4KfzsucB/P6zqxh6Q+UipWxXJXKkJb0tK7wn4/XYLR0m2aamy1J7L9ll3ZzY5diz/2k9jvXT3Wcwzenjt2z9qj/PwY/P3/63U3XtYq2pdLMFoM/guCTmZfHFMgug1petmxs7NlVnub3vG1lF+vV4JnhZ/yn76+8mVNLyF2znFqblhmttFZaMGo1904BXheGnac64xh0QbIz9G8rJqFYTpWLiWmOp1ovh39uuiKuCaLZdJ99FQ7dutCpyM/xmVHz/fQ+dgbNrudWxi0SGLZwifluVpDYWpYVaQRiQ3MCUPhDA/vQ/nubPm27eF1D9dR+TstU8+oxn7ft9fdeGCraP+T1tVyWZB8vaIw4sVr7bdoaqlzBe3Htd+7ybCWUT/KKBa2q446fZ8BHE8/wugXJBjNPyu+vjKW8meHDn8HYXHqe++4YrNt2SZqgT3C4dz+nG8An++LQaU/LYkMutLXV27U1BFib2/HlT+2WdmI5ROMwF8Edmw6brkeMV4q/ervbhVrl2hejhJO4ibX6dPGXO2A8oZsHsWi4blUdVuJ78nD39dT7di8pWuwyibmukMtyVp7PHBCuudLbhIVYxzWEarqQBbP5Xyr8nrJN5+mWe7clSZ+xM5kVURZA/t9JiDBaKnEorheXjojY3E0tt+i2b3Pa2udjWu/d3WenGPY29Pv9+x9mmRXEzS5+JnNbud3V4u1/yfBaJ6NxwixaJBe9r0DYeihYKcBJ40WYZr+fAxtp6nDGPItqlLCfBAhZH4F2Od9/fRvaEaMcUkOHT4RODj479aZPy/z9ZULNVJilrfgkeveRtiIsR6yJ993xSLXL+p1N76PQZHY+qeLYZ2NwXvO1vxsslEPnzfmiz2nNVRsjpPSPLNAq0SMqrQgQeLAVc2tXGyLLVn9IvAzybaqtmQObo+JAe6Z6KNcSiWk0Url0a+ODqj6jOobWexieqaodRiFP4b9fkqvu/HLraL9La2u5RExLNPdLy2+Xm2/xTj2Om10Ma793m1Wi7XDve7GZQy6DlZHRFvFFjuYWUcDh+jXTJZgtEAiwG37wtCg9pDzfZgd07xWSFUE0Dit7Ru998uRAJRGBvUjga7QVa281sdkhJ6DI35W/vuBEV/x+4AEIzFT53MmmlNTO+Me74/et8BikQG/l6ZnkHG6wq2kwVtaRVud0cYQjqxSQAk3XZ4tFD2fm+Z4g5lGV+WjIvRMe7TgEDsecf2bNN1xcel1N+4I/FiublBcgzJ4Xu5lITfuUZYTYCx+kr79bZZEzVF6rbqzmteKU+FqitpYR/alsf2+ncHpwF9pZS2D5Ug7ok1qv0UzOx2nkk5iv/fo+M8FLozrqVE5c9J035IN/One6zZ+u/W09iclGM2vaHBP4If6kUN+GvCd4RumiQwaO33sOvBsLaC+MGRXgH+B/lP+G3TtDlsDUSfzM7s1+EHq6kwtT6kDMa+60VSF82sij8r3xDQS95IF3tw81bCH5cKP475dBCHtOPghTcpRm+6cIxlv5auja+a1GXp5sxxHu6SLtn72iXrRos4YWsN0rAWxZYXBAQu6QaWrMXR9vGTfyjM3XrdVazsUhMJOU2lHNqs5puH22zKNzdKS+FVCUUP7TT8aS4LRMtkOywqZZVHRS7M0tN+i+T2/vu5Zc/u9R1xkcJkPoowI7uGh3ckfcdD97QicFwJPlWA0v2wC3zNZi/lGW9ib6BeILgk/+RQxX1+5ZglFn+PBDoI3jfAp/3ni+NeMZm5HIzs1ry6MWBDvO+dvTv+ZVSJ5//WFFIx63c4tDV6af9oV1+sIn8CD/1mrWPtnTcpmkyyNesi1pN36myevzrO4kaZCVHdaMUlFdYJIxgEZ5WAMV+6iO30GhUdzLOrmWBOxZ9luUeUxjCPjYhHUEjEqvnY5lzBTF8lzBbVz19oTl20M+w3YY3rdjVu1ivbVWl2Lv3GKow09c+/J2RlFGO2l/d59Vos173U75xJkisTH6lGx/iof0wF7cq/beVGrWPuoBKO5NyQ+jrhwFfjlQOk/uzwTIXSlr6/cvMCCz1EjhR4v/cyCSJ+DwFHNOz35WCYp7w17g+9pKCpNXR9GiBnYLfP8/Jt4LlbO/f8GPragA3k22J3ym0LLbhwHG51vGqboojE26wRObFy1yCukltxnzM/2ONwWB4XSKzfTnukmJcriQPz0Oi54bBVCyGILcZvdzqmGfbcFhVfDVvW5NE+r6f1DFBFnDQtep9eITDJqLOSU10y4SvLilGXEgMb2e+vnxwJPBDpaX8tgP+K6Oum8D4uoh6tINL/zpU0bJrXfe7ZvucjgMvBTk4cNNkzj9cgWhTNp24aawXnA4yQYzT/XlwSgkvBjX4qEoMt9feX6BRJ9TiQfwXNw5M+c40eua4v+sV0XZRoBaFxhyWf8PUgsEnt1B66e61bjWzedn05VlNHf+PrKwu2Wet2N+4E9r1xbp+4JWHkD5PjvrhZrn9PEnEQ2iutIlAO7PemlNqV13vOzjgv05hz2cq2EnHMswlmUjk3obORr4Cz8WJ6RjpRTXWY9F5GTW625ToWeFWzIti1P91i53mm5NMzcd4fXPlxfY9jv8muFBKNF3z5VFb/3rMPvSWSepPvxrHQqFk1uv/eGVtH2XnfjXLALk3ppnp8T8b4mGo/H9robD2oV7Q9KMJo/fpp+7aDLfX3lqjkVfI4lX6NntADkHKxJwGzw5RNE/jR2WsfZPO6DzeD+jKoUi+QkmWc33pOt1brUM8+955IFFIsMeM3W/XMYWpwKFZkn41cCv615Oc52PXXemm3obbI5vy/OmuycSkWi6t/RLSUemzA1Kq0jERe7tqW4Qfe6G0cY9tRQZqkaQa+tx5Evjp062WSKB4d1x6JrZIZ7vmV59VwPvz+10zCB/Y7vhT/U63bu1irW/lOrbHEFjHQtkNyXypGIVXNKNLPWoUC7dR0msd97unO5yLDLDDs1tEepqJje13O2k3X6hfYlGM3VdF5f+fA+EHwOMF6nrvhnx+SMYL0IY6l4M5P0lXEFpNp6KRMewxSiU6PfqTlH7ezFjrpKVc6zVYk8Netk7C5plyzgoJ7l/WYHlcUKq15zeMFqsfY1zctJbb1XJg7n6qHMq3G1ivNNi4CHMlLoSOvGQmZFWs3roaNX1b1m0e4Q/kiDO1ARkRMLK3FdsNJ7DgP/lktpq7seVAi+gUPonkl5I5M+F4tPecFv8M6DBk8f035HT0oNx4uBMycWc31EQlAa4VKVPqVktEl3rLkup5PY771jtVjzzUEto/DhA1kbF4tGlqZDP7LX3Xh4q2jv2Z5agtHeij4n0Lhbl906KvJ84mRiy4Q7163+qROLPOM4pROKPbNwSCYRnRrVf5l27ISYhXBU9TOfvc1YwPpFvW7ndg4vTbcumeKradrGPxm8VnNxvHlrScFcz1SSKG/UbUHOvFxMta7blGXqy+j+UmWUtp5GW2YfYFGlDMukJC3eyNgZ5ZHJr6G40HpZltneHJ7VKta+MD+2fOMA8KPAnRva7yoh+gwkGC2w5Yi77IX3nrLt9aBrWjP7LZrb7nHt9z6YOxeBX+b4qblaRbnacMO/Z1PMzwMetlfnI8FoOsHnKMaO8Cl397Ij077UVcJDVVSOz3BRZo6hXFUwOK5JOsT5jKO7y7WNJhVhfKfs2viHoXuK2JWb7wzn/Pa8jYsPAgtZv8he1bffFm1fiEKJc2bBntsq2jdrDo5vVMMaI5ZJh0krt+da886fm+IVtVgIoqnq3iuqHUDPtMUuS0SLfnPe7HZONOzxTTYlqZgW/P1vW0X7C/N07q2ifXOv27mgX4uukf0O9owl+3KvXnfjIa2i/XdaXYtHGrUa33uAjGiUq4slxnOjcpGH49vvPbUx3utunGtwYSwMefYcnVzNptK5n9brdlZaxdphCUbzIxS9EzgNuMX41sczoovXCw+NBKRpHciKY7DMW0faP6/+Lpug45hXCTLTikU75WyPet+06XRCTKPwTCsK5eZt1pZdskgj1+turDq+Gtc4qevSNdxs+utaxdoHNP8mnbP5CIcq1za34Z/fdZor5Z068aYiq7VOX64LVm6ELfOeXO2bBXHOWuDHluuxlKP3PBt1FUZWDByz18/pCFzg+PMa2O+SbUlTSOhHGUkwWmARIxSO8oXey3epEQ6cqL3bW61o1NR+7xMuAt+uZZSL4UxFMLLC0oAX97ob72gV7V3f2BzQ9JyI21EWi8YtvzPuG2wnJ7+Pd6A2zck1bTufcUpt3M+dutDSFM627/BxCDHr7VCTl8e+P71vUUao1934NsdfmatrkXcmg+iWq8F+SfNsuu16eVwdkq5F4QZyvtvLlxt4h+dK0qY5dPF1v2lq4cLIrHj8t7p22b6oh7GD8+zpHo1KLr2G7Ozafp5/M9Cbx/NvFe1LDT49wn5HsyUtrmvwpF534xittEW0HVb7d8uun7z9FuPYJp/afu8TG+Ng58aRiVVnGyYxWlA/a/CuU4En7MW5SDCahXYwVpHkSUWVSSe/Tah/+ARfP2sl3aa4NjtUn2Xs4x1VVFiI/WTMJpznnvz5VeBfFmjz8gozuz3Zp1xWkjDCcMjBZuYFraL9Jc2zyTaNnsg/Fv0N4kKjFjSjnz+7G0YOkZyxZVp9e7AhlViU2iyPHIm0p1y1o7F449nrdu5q8EPldZI6aWGyVlx+fvC772kV7SvmeG68aYT9jgTbsEbN4NXbAI/SOltc+2GZBgxQfngRNx2I7bcYZ3dpSZLoNPZ7z7kIuKx8J6q653u0lynvYUo7zfVBDbZdRYLRrmgZ5WDy3drMVbVztMnOoWlb+5kuVt+FazPLTaHP/lyE2JVlZGNMUa+7y2/9+V5fX1mIej297saTDJ6S1savKoIabBw/BPyhJuF0wklVO+yhA2eBi1tVd2K+Fq0HC8ozudlpGU0WukDzLHZFXjHGaY2s6qi1BRmNp20ZfgskVkpzjowTs2X7tsfn/DkfiNfX2O/IDsVVUoJoo6drhS3qFioW5MOIEEv2Rqn9FpONukX3u3Hs935hkD52biw553bUcfW8cP+zbanvQz8NdleRYLRjQk3dOvBd+K5pIpVsZr/W+E2+E+NgY/7OJCdZcUPQfl3sG5NkzezFbO+vlyzC0PW6nZOBVzvlaBcvOVMW/ZTS/9tNjj+7Vayp0PVU1t2SzXgcQVR+shinEc1rSloa82DJucYOfTmVSKJRfkxD9yOfiuSZny1gDaOnk7R7tmhXU+7SU56DW+uQbwEXzvMgtIr2Pzv+bxn7Hay/XPSChfF/j9rsdr5NK23xLEfYTqEsSoSuvtfYb9HcTufiZCe33/tmJ3ORD6KMcveT8r09jaGOo6Ud8EOb3c5Ru3kGEowm438BZwOvAi4A/gb4BPDf9e2rLeO3jaNAZxaHT6zcRL9r9WqHNf3sUSlw3uDXbMzvmUQc8xmNzRiFy4XYw1vwZJNw4idkl8z7qG12Owb8seO3KT+BD9qXWznLPLFbv7NarH1Y82+2s5io0LNF7bA9kVXmj/A56TAQPS7IbFFsSPp7orxBt+z9PH5m7VG7YxbO9et1Nx4EfEf1eTWJYgOww62i/ZUFmBvnZ+x3Zj3limJvj+FRhj1JK23xLEdaIy6fKVJth+UAjGOnycpx49vv/USraLth55bv35SO16L6V7GNIZKugXsYdtZunsPEXdLs0OHPjF5kDZxym+C1pp8/0Xun4lrgeuAk4OhmIkWVMxe1qXbyHcay9subD8vMFY2amj02zmfMooB2bpAavt+qaiBNOJea792faYcOP65ySOo6Vs1sru/Eehn1mXWv7/ENt3bMZ3BsTaf7ZP7fHaa7XjViU739fosdOnzzDtjvh/n6yud2aePy88DpaZpGqUuXp+1dB4Py746fo+3fLLeRYZvz8v+Xk4jIdlWZv/NNhYt8u2YPImAWOYVqVvehMH0hHEOS+bP/Ehxmwpleqq9SihjKrJ8w9SpyhC9YhMFw/HzDfiuf4uKkXeQ8IyA4YE8HXq11tlh4UkvGkjtRaGFS+y2aj7Ul/7aJ7fc+O7etWkanxmmuVrPzSR3AbTt0dq+78Weton3dvhaMgLvW3pTdM1EjYwgINrWj1EBcsBGCwG45zrmfRY6ajfgcs9kIGyN/t6lI4VMeg092zNn54jP8bh9z7MYeg1sO/stP1TpRMBYVRwqyVcfmOzDPR62pvar/1EB4qxViJ5ynZdtjDY5rLMGqwoY1tqUzsd+n7JD9PpJdYLPbeYBhv13ewMTtXsPtYflI3Q1rrxZr39T2bzbXPhx7I0wTSDuixULL/DoosWTmSUSVVfSIkZOSOh1l0Y1IXPQkEW0xHb1ed+Mo4MkWReqV02rjBAhLnuobwDfBLlqEMVkt1j7R6278i8P9qRRjicQCL9Wy23b6HtTrbnxHq2j/u1bd4mDRg6LQjlhGSNrPqVH7fayHI741hpPa731oZ3yz2zkXuLAsSFtmh1lVhzGaaycDzwZethvHf2Day1q5yRvXafdxv2YWk8FrhJppvmPc2kLe4PdGfY7PcHxmJbD4hGM0yfhuOfc25efZlEMZX8tZj4E1f8l2aPh3bE7Uvc1mP21zv+R1IkqT72saGTcqYcZn9DOvOLRFsN875lCdYNj5jh9Npn5HmroQV7/gD1pF+33a+s3KilgmxNyimIe4ptFiOCnxWVnlvd6DvykNos7hK88fAtEk5/wNR39hxvNRwLeFsyeMXgtj99IuaoM/39Yq2l9boGny+rjrYq4QeNkyxZVWBukjZ2rFLeJdiESg8JLtiKNgYvstxvVxwlLP09jvfXZ22x3T8vajfPbx7EsFJcfP3ux2TtjngtGkPkBFfZp5rPniI8SLsZ1eb7iQdlp8meY62CwnywS/W1qAPslxe4XwYjuwGHzKc59BVzefdg6MU/TbpphGPuHUa6CaZYfUG4gouc+bA8M1lZa3QPa7mlc5/h1Vjmd8ktGpftKwX9Wmbydc/nC089FDnu2oNu/OCqUaWZ6cu0WOi0hH0aOttleYK6+ooLFQS+nMclley+ydwlLPHs0tW6h0tBJvGtqVZvuVOPJosEaLQf07saB2JI4wqn4QOEkwgIgF2UWy361izQ3OzfmtaXfOsj0uN/YIast9m2G/sBvHfmDaCzq+Y92wFOVM1pc11xgqv3xURIdP6fSO+q4xijtPEpWR/K5ltZe9ETQmveY+5tf7DDvXzXISjxJhfPrlaw0+p3ZdNyz6vWMGfAa1rmwMYWSq9b1vfM/Fst8zZLPbOcszT4jLhYfjnmglB+tmsDNbRftabfhmKxOV12Q50iHtHBZ3fZrf8/Y4dTXjsIQ/i2/aclLCXUGYYGVR4fDQ7lvS9HgRpLhed+PWOI8OTWqc4himf4ZP7rffey3YWxZpjrSK9qfAPki2qXXZVQ3rpoVOrAPc1eCHtOoWR7rwJL41rScTWoq8/RaT7Ot9Svu9L+fURQaXWVBBblhCvzwGYUOV8PxKe6Ff7nU7B/exYNTQQfMGHkTjaIQpojysZmLWOn4zKcJRcRBN6iX55B9f9bu1fq1PONwN29T7LizFHdF2fPeOpWo+zHK/arNa1zs4BOPMsWnE0mmEkZHf51OOj+3yNZ83+z1TZ+pUg1dZ0A8nLqaX9soptXF/aato/502eztl2T1wYQkiH8pO7SJU8Mml33kUmu+lzir5WkaivHpjUS3tppNLO1uselD+JODo8jkFRfwjRyV02qzs1rx1twqt7vL4XOBZ2z9aRojEbaWlLYx0YZn7UP7BuAX3oNh+i0mvwDT2ez+yWqw52LmelOtOE9FjexM+MNuen7dyeP4cCEYjHIPG3eKbbHbGrAfjTRwXH/H7MLuomToBZ9J0tAmcUZvdQm40jjPwq0df0320v5/qMyZ5IjHr8ShtHKeaQ9b8fWNs+5t9hM9w7MYVn2yGl86nXJejPmYe7ffs2ew/nek5HONJeHlcwD/bjeoy4Bxt7nZj415OnSHYSFkmwmj+nX3PFt0dbXsUYRSPWfoYxioLo1tWOJn7kTiTTKwE2U5w6UOTktD0+gWdKRf0Wz7EUYvDdWbZ3a4F6TPA6ma3c5xW3iLZkNjilivMxNVmqu23GH2/i0W3aez3PuYiwy4rH2+aemZRPHV4T4rO+rmb3c7td/KAD8zi4k78M5+Vx12RupNLvfAxjs/qhJE6Z2fMOj426TgznrPns1/Yzca2wUeMJUDsROe6utOziT9i/MPwZtcqOLZRv2NjTqeSwzxVRO1OhCH5jAd+1rWmbIz0RpvudW9iS23ER82j/Z4tve7GAaALfvdhxEZ42/aoqkd0zN8Antoq1q7XZm9n7jHxkzXPpF6VN47D6zevz3bTIqpE1WbK5xcWwnQUXZRzQTzTbW/o0OW67Xjmqe680ut27gU8JOdk5dJsCeZY2VHxrwHvWMR50iranwX722HKS3kkYofNAusUzaoTDXusVt5i2I5wBoQPLsKOaKlzL+F+/Dt+3FhkUvu9z22Ng59bln4sSqcLC32Hc9IIU/INO96wX9/ngtEs/IQmHYhGdR5rmL7QuIGZjRBG6n7QVAWxiu/cgSimeLwnduhs8rFtWuLFJ3Xc4zzW8UxU9bGNKVL4FAtijKnTfPwzxz9ugegdiUqbnUO5ywar/nhsVsfuYy5Lq7ZdO1o+ap/Y78k3hOca9hN1NUssaeoebA9/sVW0P66t3m5JKJneRWaZa0amu9q8OSqhG1Iei/Kf8atq6pybO/luX+V0Pwif9FbPuLmkKM8ui/Y+ltRks4x8BMCFCy6OXxAKAUNhwCNJ2oJeaskMUVraAtmPdO1YrddWZ7/FqC1eGLk1qf2eg7O9COwyolqM5fNOGxHEW/+gHPhzet2Nu8yhYGSjxYI6J2viFJMpHD4bV3hp4BDWlknxiu/c6YnuzcYqm5I3YU2ncTQcm/a8fIIvGTfKZVJxZUTqo01a58VqBjlWFqZseb8fBR7fYdswtfiyGypIzfy3KY53Xuz3BGx2O08w7Ozyp8eru2qzN3iq01st1v5I27ydFU7qn9Z6cq+ykk20uT3nqli/UMzIvUPPtPP2JxbawkiSOBWgydybDza7HXM4w5MnUvHDBY+cNgvSIgbiyfkLbm/eCNwcO7Dl+iJh5KlHjuz2yn1kr7txe629xRCLwkLXuX2JBetl/lsv7LW1zpcTH8d+73e2ooy249KsLA5VdYEtV3Asd0p1DI4BP3sOBSOfTCxIfB6baInvnUNsNf+02Tlxu7Fkx0pjmcW4jVtYdxoFYcziPF7npEx5XHVCpY/zuZ6/obnv8hrYbc3IdqZAe9V7bdYnXRd6Z1OsJ9nvEU7UdwN/nv/2uGaMZ9woPgO+pu3dTm/X4613Xc2i3Dbd5vKsyz14LCmsGgsh5c2koTSIagckLChq0Twqb8zLEWrznZJm2MOAu1lttLhFZxoWxR6IJV8Bf/ciz5XVYu0Kxy/Jlb3ORS5UdWty/AjgqVp98247ypFCRM66j22/RbP9X9kuT2q/5+R8LzLsMsPwyFez5NFXWDcrLY5tAM/sdTfuOUeCkU1esHQmD3Nm0dlsJnltI16bomvQWG+dWYGdMV8f52KOCGOwGZyPT/GmWTR9mmY9THOitlem02Z4Tg2FBJ/xOhrZaXCn5mKTaDmreYtPt5bn3n7X0+tu3MGwvzTseM9sBkc58+A3gj2pVax9VRu8nd6ue7JxLzvznknYIujoNL/b5jAxyIONpEciZlyzSU+34zVL0OlrVFHrsBbJvPfc8zPCFeWJEOYlkaycyhlJsG9qFWs3LsF8Ob/qZubERXg9qiEWOLZKS1sgESNMFcptdLzGfotxRtsyItH49nv/048y4tz8bKoIAojShy2oS2dHgJ+7E8e6Q4KRT1ic2GZ42cfoWjS2wzVOdMqk4hJjtKuepVPe8GC8ycHuVIqdz6B5lLH7Vsb36CP3qs7PODWnmkziEYLrODqDz+o0fTI7YDO8+DbrSTNn9nt8seg44CLH7xK3KC8749XpKI7D81pF+4Pa2u2WPQmftZXD/9PqBr5zt8FddPHD4sT5It9xKdZyRIzclCqbYklNkrzVsUQ6mkd63Y1jDXtiOVXGou5o5fPzjKNbmodvWpLJ0nP8W3nHjDBBjzT+scSpve7G/bX25v0OlDZbyLd0t2gFzVM9nf1ipUOpOn1gMq79notzvsjxywhqFuUfFpHUmsvNQ57S627cb38LRj6JUziOk2CzOzAfU0io/NgKB9mnEYXqDsUnGBefcvxyX1kf2jzb67cTp1ITSTRuR/DxLuBs19mO2kSbYBgnid6ZtKaSTz7cNuVTYx/3RZ/RuO9gLaR5st8T0q/l4X8CPCh2ksg6UGF0y2BT+KbVYu2V2trtzuYxbl0dtrwOa7iF0tG8b9M9cuQ92hx7ptbDpI0fFn8e5Tba4V0orQ/h+CIUEH8McCsPivV6xRgRPK0uxyEZ9kWwS5ZhvrSK9lcMe1cczeBRt7Tcfc2i8uGUorvEvEpGuS5clhVV65pniKYjbhkJaXz7PS+sFmtu2LlpHbn4X3GkdfjArPToyID/NevjPHKK373beALHuBdvZl57A9/KKo5zRLRE3Aa93DXIfILjGEfBGHdcrOF7JmmF7qOPx2k+JjuiwYxxbkk3Od+BujV7MQbTXOO6Y7Hm7x832yj3/plkLPn44xI85J+ypGHtOfiE18R3YF7tO/v9uSl//6WGPakcWeS1FyUORefj4GdpS7drG8dHb+1T0loQntie8Pnv9vs+OYdS0SeBHwk7WYXxDBa1Fc4ITN/SDNqeR23HTyj3PPPo6XV5S275e8NH5/HcHf9Hw37EsqlVZEUkj7oUDV7/cqtYu2mJps1zwO5GUmR+q3YKSWemdF4B2NVagXPNSxz/UyvZhvgae1bcD2JFPqNhbGyrLwf/kfIaC1M/G9vvr8/ZqV8E9nDHbWskPGN3LNkPlF8J7Pbsq8W6K1ROCCHEYtPrdv4n8Pue2eDHm/4KrgYe1Cra/67RFEIIIYQQy8ABDYEQQohFZrPbaYH9Xvl5VdjdJg5hjgsmuzteSCwSQgghhBDLxJEaAiGEEItKr7vxP4DXAQfiVuyWFFWm9O9yYVP7rdWi/VaNphBCCCGEWCYUYSSEEGIh6XU3HuT4hYYdA2Hdl3JhxLSIcv/dAy5w/DyNphBCCCGEWDZUw0gIIcTC0etu3Bf4G+C2Wz/zoEBwvn5R2JbdPgT+w61i7TqNqBBCCCGEWDYkGAkhhFgoet2NewKXOH4yVLW2jbuilbtOOIZ9Fnhwq2h/USMqhBBCCCGWEaWkCSGEWBh63Y1vBy4BP9lKLVhjPPj/5PWvA4+VWCSEEEIIIZYZCUZCCCEWgl53487g7wJOLkcPxRFG/QgitusY2eBdA+HoWwarraL9YY2oEEIIIYRYZtQlTewbNrudHwPubBVpImkKCUndEcP+pVW0/1GjKcRy0et27gx2Cdg9vNQBrWwjtoShEZblWa1i7R0aUSGEEEIIsexIMBL7ic8a9gbHb1t27IbuXNkBLBP8+7pet/NTrWLtrzScQiwHve7GKWAXA/foW46hrSj/WVXomuHPzmkV7T/RiAohhBBCCKGi12KfsdntPAi42LBbDIWifHHaXMejgRN4I7C6Wqy9RSMqxGLTL3DtlzicvGUP+hahWaHroZRkf9Qq2s/WiAohhBBCCNFHNYzEvmK1WPsg8ATgxmE0gAWRAiUHb/tvZQw7CtjsdTdWNaJCLC6b3c69Hb8EODmwAKWooS08KG3tgaxk2AXAz2pEhRBCCCGEGCLBSOw7Vvv1Q55RFom2HEBLogOcUjpJ+e9HOf7GzW7nLI2oEItHr7vxvYa9z7CThyLRllVI652VrUYYf2TvAM5oFe2bNKpCCCGEEEIMkWAk9iWtov16w37Womokac2RYaejYURB/+8GBww2et2NX9aICrE4bHY7D3f8PeC3jdf+IGJo2w4M7cHwf0Op2f8O/Amton2DRlUIIYQQQogQ1TAS+90x/BXDXlrVIQ2IuiEBUcHbweu/Dfx6q2hrwgsxx/S6G48Df73DcTaittlWLFHZNpQ6qH0QeGSraF+tURVCCCGEECJFgpGYBwfx1x1/UbkqSVrQNqx1VHYSSwkof+b4s1aLNUUTCDGftuBngFc6fiBnA1JZOSyaXxKOPgL8sMQiIYQQQgghqpFgJObFUXwJ8Py8Y2iBy5jrq1b611+Dr7aKta9pVIWYm/VvwHnAC/LrPO6WCLmIxIGQ/FHD/keraF+pkRVCCCGEEKIaCUZijpzGzkvAnp9LPRk6h1XFboOffwR4VKtof0GjKsR+X/cbx4D/MfC0BlGEwZoPBSUAPgpILBJCCCGEEKIBEozEnDmPQ9Eo4wxSTlrzoKuab///4Gefd/wxq8XaP2lUhdiv633jJOBC4LTy2u6v5bQ7Yn3KKh9FkUVCCCGEEEI0Rl3SxFzRKtZ+Dfw3hsVst1zHcitt23YanbIgGriRJwPv73U7j9eoCrH/6HU37kO/MPVp/VUORB0St1Y/273RLBNf6IB9EOxhEouEEEIIIYRojiKMxLw6k78G/uJtdzDrJpYdyzAqofxzx3/DsBerg5oQ+2Z9P3rQCe2WFqWhlSWiOKKoVKeonLJ2KdjpKnAthBBCCCHEeEgwEnPLZrfzHMNexSBSbtupNAMPC+NuT/jS/zNwMQevXACc1SraX9fICrE39LodAzvb8XMNs2EB63AFb633UEwaiseldNS/Bn9cq1j7hkZXCCGEEEKI8ZBgJObcwdx4MvDn4EcRRR/kooqAoFB2VDj7YwPn8pMaWSF2ey13TgD7U6CVX7cM1nNY8JokAmn7t3vAU1eLtRs0ukIIIYQQQoyPahiJuaZVtM8Hf5zDdWy7jGkE0dZPhxEJ5dij7X/fD+xDvW7nURpZIXaPzW7nfg4fYiAWQbkqEdv/P1yx5SLXHtUzcsD+2OBJEouEEEIIIYSYHEUYiUVxOB9i2FvAb0vUGS2MPApTWobOqUXv58XAoVbRvkmjK8SOrt2nGfYax48PU0aHUYBba7QcVRS/p1TH6DzDflM1yYQQQgghhJgOCUZiYeh1N77D8cPA3cqpKnHEkWedzzjqCBzeSz9K4XKNrhCzZbPbOdawlwHP3lqZll2zBOs3XK/ln3Ez+HNaxVpHoyuEEEIIIcT0SDASC0Wv27mdw9sM+97QqYwdToL6RflOaw7YFcCZraL9Do2uELNapxv3BX8j8F1xzbE4MnC4amOhKOA68Ce2irW3anSFEEIIIYSYDRKMxCI6o8eDvw7ssWHKCiVHdEguoiH+meO/a9gLWkX7eo2wEJOz2e2sGfb74MdVi0RWGXEUpZ9h2BfBH9Mq1v5BoyuEEEIIIcTskGAkFpJet3MA7CWO/8qWG1quh9L/V9IlLXBK0/fwYcefulqsfUIjLMR4bHY7Jxn2GvDHl+86dXWLymtw6+/R+rwM+MlW0f6cRlgIIYQQQojZIsFILDS9bueZYH/o+FGx81l2SCm5oZakwpRTYrgO+DXgFSqqK0TTdbjxaGDD8dvXFZ7PRA9tvzMj6F4EPG21WLtWIyyEEEIIIcTskWAklsFZ/WHwC8BuN4xMIFO3KC6om3ZgKjmsFxs8o1Ws/T+NsBCVa+9E4P8A7Xy3s7IUVF2cHpLoohcbnN0q1m7WKAshhBBCCLEzSDASy+K4ngK8Gfi+0E1NC17HkQ1e6eTa18B/GWxD0UZCJGvukeAbYKdsrZ1wLcVrDIgEojACCRyuNewZraK9qREWQgghhBBiZ5FgJJbJgT3W8dcAZ1qmUxrkSu/W1VPZdnAvBtqrxdqnNcpC62zjIPjLgKeXRdnyGipTJdCGqxGATzn+uNVi7aMaZSGEEEIIIXYeCUZiGR3a/w/4P44fXR3tkI8+qk5T8+scfsOwV7SK9rc0ymJJ19aTgZcBtx+upsyNJ1unKKQs5jq81bAzW0X7qxplIYQQQgghdgcJRmJJHdvOg4ALgLuSRA2Frm1GHCKudVQSli4DntMq2pdqlMXyrKeNu4O/2uF0yKWdpQWuyz+x7OpzHG4y7DeAlyrtUwghhBBCiN1FgpFYWja7ndsAfw78RFzqOnR6Kbm1ccpM+c/tqAgHXuP4C1aLNUVEiIWl1904FvyXBtF1xzFYBVR0OkvXVlzUOqgZ9kXDntIq2n+jkRZCCCGEEGL3kWAkltzh7RjY84AXA0fFxXnTOirD9ZKmq4U4fiVwtsGGujmJxVs7G48G/32Hu+e6mRGtlPjfZcEo6oCGYYfBn94q1q7QSAshhBBCCLE3SDASAuh1O9/r8AbgXnXdmoapM56VksqpNcPoJPsw8NxW0f5bjbRYgLVyb4ffBX48uJkEqyEtKE8pYi+fiuY43AD8usHvtYo13ZyEEEIIIYTYQyQYCTF0hE9weKVhTy85sFH6WewMp2k3RKlspUikNwIvaBVtdVMT87g+bgucA/Ycx4+wRCoNU84orZZwTaTrafDvfwee0ira/6TRFkIIIYQQYu+RYCRExGa30zL4Q4fbNnN+qazDknGmbzTslcB5raL9FY222O/0up3jwJ7r+AsMu1X4ajlWKN9VMB95V44zArBXAb/aKtrf0IgLIYQQQgixP5BgJETeSb4DWAd4NElr8DhCIo2siOu5xAITcDXwEvBXtIq1azXiYr+x2e0cadgzgd8C7pQWs87X8UoLxZd/nkQlfR7sp1tF+6814kIIIYQQQuwvJBgJUUOv2zkL7HfBT8wVvg4d5VqBqCoq6XLgtw3+oFWsXa8RF3vNZrdzwLAnOr5u2D1DoSee8VvzOYgWqnxf9Fld8Oe2irWrNOpCCCGEEELsPyQYCTGCXnfjZOAPHX902T2uT71JozHION3D2CQ+C7zI4LWtYu0GjbrYg3l+AHgi8Jvg9yGZs2mh9/Bf1fW7ymvA8c8a/EyrWPsrjboQQgghhBD7FwlGQjR3qJ8G/vtg3xbWYYlbhEPcEcqS6Io0zW3w/i8CL3V4zWqxdp1GXezCvD4SeJLjvwHcJ1/MndK8TSKFysJnMue3fjb4vdcY/GqrWPuaRl4IIYQQQoj9jQQjIcZzrk8Cfgf8zFz0RNmpznWPGjrVsXCUiE9fAl4O/EGraH9VIy92YC4fBzwT/FfA7hqKOwTzsnquk5nzw9dLn/lxh+esFmvv1cgLIYQQQggxH0gwEmIyZ/tHHH+1YffOFcDOFwJOnexyGlvuPY5fa/3i2y9rFe3/0siLGczdk8CfA/Y/Hb9tKl1aZpbGqZipiJQr/G5wHdh54L+jVEshhBBCCCHmCwlGQkzseHeOdvgVw37D8eOocbhzaTrp+3Mtyrf+zU3Amwdd1d6n0Rfjz9eN+wM/DxTgx5BJKcsXt47fkxOXPJd6+Tbgua2i/WmNvhBCCCGEEPOHBCMhpnfETwF+B3hiXbQFqUOd1H7JtyGPC2jbZeAvB97QKta+qSsgqtjsdo4y7DGO/xzwI8M56YP5FM7T4RyrjzgKZ2X/XaWf/4dhv9Aq2m/TFRBCCCGEEGJ+kWAkxOyc8x827OXAd+eihSAUhUYLRx6kAIVpaw7YV4E/B/+jVrH2r7oCYoted+MUx9eANnDHqs5+1Aia5W5n+ZpFw3k6+Mk1wHnAy1aVfiaEEEIIIcTcI8FIiBmy2e0cYdhPAy90POOox43Jh0JQ6JqnqUFp6exATHo/8MeO91aLtWt0JZZy7h1j8FiHZxr2CMcPVPfky6WexXNzOD/Lc7AsaA7+vMlhw+C3WsXal3QlhBBCCCGEWAwkGAmxA/S6G8cDvwT8KnB86HBXRXEMnfX09bzTnna2sm84/mbD/gx4T6to36yrsdhsdjs/YFCAPQW4TfqOMDot3+ksTFHbejWsoxV3QgOHtxr8SqtY+4SuhBBCCCGEEIuFBCMhdpBet3MH4GywZ4EflXPH4+5o4b+95PIz4v3JWv4icD7YBY5fulqsabEvzLzauDfwNOCpwN2rhcXq+RJGtVW9LxWRBnP37xx+fbVY+xtdDSGEEEIIIRYTCUZC7IqD37kL2AsdLww7IufMx93Uys790IUfOu4OSfe1NPVte6n/J3AB8H/BL21JPJo7Nrud+xs8AWwV+K44hSwvEOXrFA3JfUYsEgWxRpc5/hurxZoKWgshhBBCCLHgSDASYned/u80OBfsp4ADsexTdvxTPClcnBOcqGmNPuCL4P8X7ELw97aKtet1ZfYfvW7nCLCHAj8JPAb4zqpC6dsGPRGK4sLp4btz864iIumjwAvBNyU2CiGEEEIIsRxIMBJiT8SAjXsCZ4cRR0NXPxQAQlEpFgosqGWU78CWE5UGP78WeBfwduCvWkX7c7o6e8dmt3OSwSOAHwd7FHCbqmi0cH6UrylQWdS6WhwqpzaWZthlhp0LXNQq2rpZCCGEEEIIsURIMBJiD+l1N+4B/Ar404Fjw6iQXIe1MGokrkOTigcW1Tiqa5fuOHzCsHcD73L8ktVi7SpdpR29/rcAfyjYjwGPBE6NLkqSJlYWhNJoNI/6mqWlqi1bPysUIw37gOMvMnibIoqEEEIIIYRYTiQYCbEP2Ox2bg8817CfdfzWcUoQJWc/rXWUa31en6aWtkdP/+74zQaXObzPsPcD728V7ct1taa6zica9lDwHwL7IccfBBxllWmEHgg9ddczMOyJGFTVAS0QidzxtwAvXS3WPqCrJYQQQgghxHIjwUiIfUSvu3ECxlk4/9Pxu1sSEdR37XMFsmPZoJx6lhcRUlHKauopDd7zSeBDwAcN+6DjH14t1q7TlUvZ7HaOBO4LPBh4sGE/4Ph9DbO0tlC+H9l44l/6WvgZg883wz1IgfyGYX/h+O+tFmv/pisnhBBCCCGEAAlGQuxLet2NA8BPgD/X4RG56JJccew0RS18dfj/uYgVrxQchp9Xfo8DdpPjHzfsI/Q7aH3EsH9ZtkikXnfjIHA/4P7gDwAeCNzf4ZjctYhFvOFVzaaHZa6jZdPRyKabDb8xuub/5firgY3VYu0rWnVCCCGEEEKIMhKMhNjn9Lob9wF+FvwMsFvlhIftBV3RVj0VJWKRIRQVtv5VVRg5H7UUfN7Vjv+rwSfAPg7+KeDTYJ9qFe1r5vQ6HA18u+P3Muyejt/TsHsD93X8TuF4QF70yRcwt2zNqfQaWza6qEpcClMNB/9yww4DfwT+l61i7SatMCGEEEIIIUQOCUZCzAm9bucWYE8EngX+ECrq3lSloHlWUMiJF2F9pFyx5PLv50SR+HciIeq/gc8Anzfs88Bngc8DVwBXOn65Yf/dKto37M64bpjjtzU4CbgD2O0cv4NhJzt+imF3BT8F7I7AgfD8iMZj+O980fHyyOVFpNz1zHXQI/tbVUXO7UvAa8E3WsXap7WahBBCCCGEEKOQYCTEHNLrbtzX8WcYdsZA3GiQXpYXJNLXq6KOvLZwcp1okaZE5cSsWEjhWuBq4Crwq8C+BlwPXAPcCHyt9BnfALthcMQHDDuxdLzHWr8D3YnA0cAJwEHHDwK37r83H61VHps0+qo8Cvlxr4oWshqBKD6WfDe88jWDNE3RGYzHXwF/Cry9VbRv1MoRQgghhBBCNEWCkRBzTK+7cQTwiIF49FjgWKCyLs7Wa+WUqbTwcijiRCZj8Gf6aipqVIkZJMdRfVxk3p/WYRp+J7VRVdV1f+IzqBN10vMqH0s4QunYh9el/0e/CHXu+6q/P4ziCq7Ch4A/N3hDq1j7slaJEEIIIYQQYhIkGAmxIPS6Gyc4/pOGPRV4JHB0VT0ji6SXoSxhFT+joohymr4W10mqqoGUl56swZmG5xELREC2zhJQkVSXLxSdppLla0HlOpml6X/h8edqReVez6eXkTvWjxq8AeyNraL9Ka0GIYQQQgghxLRIMBJiAel1N24NPA788cAjwI5NxYb+34d4UlunKkrGshEz5b95ZbpaXPsISGr8VEcyhaJUfee40bWZ0hS5+LNIvg/IpKPFr9eNa/5ncQFrkvOMo6b8MocLDeu1ivbHNOuFEEIIIYQQs0SCkRALTq/bOQHsdOAJwApwG8jV0xlSHyETvmvrs/LiUPl99TV7qlPK+p+VjySCXMpWk+PPCUVV6WxNIo+sIu0sJwDVnWduTAbc5PjfAhcBF64Wa/+p2S2EEEIIIYTYKSQYCbFEDGoePYS+cPRo4Hty7dyd1C5UtYzfei1HTkBKi0vnykZXtZmvE5/qUr0889tVrevLv1Gf3parY5QeUa6mk1d0SktG8EqwtwFvB97RKtpXaRYLIYQQQgghdgMJRkIsMb3uxh2AH3P8Rw1+1OGUwEDUpKPlCmNXRf7kxZ/8z3MFr9Nv6H9+deSPZYpRV30vpaOOKxwBlTWgqtP0mkVnheLY4Juuc3ivYe8C3g18pFW0b9ZMFUIIIYQQQuw2EoyEENtsdjv3MuzhwMOAH3T8blZZ8wiq0rL6r8S/k+/UNnx3rjNZdRpbFcFnDz4u170sX0MpJxZVi1ThsYevV0UtRdFT1xh8wOF9hr3X8UtXi7UbNBOFEEIIIYQQe40EIyFEJb1u52TgYQ7fb/ADYA8Av8XAfGRTsaqibXKd0XK1eyh9UlXUT66INNufk09bi4Ucq2lfX5UOV10bafiduXb3g3N3sH8Hv9Thg4Z9APjnVtG+STNNCCGEEEIIsd+QYCSEaEyvu3EkcD/g+4DvAU4d/HliXrTZIv/vuIB0nARWH9FjSRv7qnSwOPUsrS1UV7spPgPLCmFROt5NwMeBj4BfBnYZ+IdaxdrVmkVCCCGEEEKIeUCCkRBianrdzt2A+4Hd2/H7GnYf4N6OH6yr7VMV9VNZK8kM92pRqPwZ8c+Hr+WjgLbevfXKqOMdvHaj4/9h2L+BfwzsE45/HPjYarF2vWaGEEIIIYQQYl6RYCSE2DF63c5tHO5h2N2Be4LfBewuwJ0dv7NhB6vqI+WKWMfRSDkBaHQaWT6tLS9e+Q1gnwP/nMPnDPt/wKcc/5RhnwY+p5QyIYQQQgghxCIiwUgIsWf0up3jgTsBJ4HdDvz2Drc17DbAQfBbgR3s/51jgFsO/jwOOAE4Ik1RS7qaXQPcaHCNw/WGXef41wy7CrgK/Gr6f7/S8SsM+2/wL4L9d6tof0lXSQghhBBCCLGMSDASQgghhBBCCCGEEAEHNARCCCGEEEIIIYQQoowEIyGEEEIIIYQQQggRIMFICCGEEEIIIYQQQgRIMBJCCCGEEEIIIYQQARKMhBBCCCGEEEIIIUSABCMhhBBCCCGEEEIIESDBSAghhBBCCCGEEEIESDASQgghhBBCCCGEEAESjIQQQgghhBBCCCFEgAQjIYQQQgghhBBCCBEgwUgIIYQQQgghhBBCBEgwEkIIIYQQQgghhBABEoyEEEIIIYQQQgghRIAEIyGEEEIIIYQQQggR8P8PAHFwEQ7CsdaCAAAAAElFTkSuQmCC;" vertex="1" parent="1">
          <mxGeometry x="840" y="480" width="74" height="27.66" as="geometry" />
        </mxCell>
        <mxCell id="tKvyN9K_BntDlA_-QOsu-48" value="" style="strokeColor=#dddddd;shadow=1;strokeWidth=1;rounded=1;absoluteArcSize=1;arcSize=2;" vertex="1" parent="1">
          <mxGeometry x="820" y="525" width="100" height="60" as="geometry" />
        </mxCell>
        <mxCell id="tKvyN9K_BntDlA_-QOsu-49" value="GPU" style="editableCssRules=.*;html=1;fontColor=#999999;shape=image;verticalLabelPosition=middle;verticalAlign=middle;labelPosition=right;align=left;spacingLeft=20;part=1;points=[];imageAspect=0;image=data:image/svg+xml,PHN2ZyB4bWxucz0iaHR0cDovL3d3dy53My5vcmcvMjAwMC9zdmciIHhtbG5zOnY9Imh0dHBzOi8vdmVjdGEuaW8vbmFubyIgd2lkdGg9IjIwIiBoZWlnaHQ9IjIwIiB2aWV3Qm94PSIwIDAgMjAgMjAiPiYjeGE7CTxzdHlsZSB0eXBlPSJ0ZXh0L2NzcyI+JiN4YTsJLnN0MHtmaWxsOiM0Mjg1ZjQ7fSYjeGE7CS5zdDF7ZmlsbDojNjY5ZGY2O30mI3hhOwkuc3Qye2ZpbGw6I2FlY2JmYTt9JiN4YTsJPC9zdHlsZT4mI3hhOwk8cGF0aCBjbGFzcz0ic3QyIiBkPSJNNyA3aDZ2Nkg3eiIvPiYjeGE7CTxwYXRoIGNsYXNzPSJzdDEiIGQ9Ik05IDBoMnY0SDl6TTUgMGgydjRINXptOCAwaDJ2NGgtMnoiLz4mI3hhOwk8cGF0aCBjbGFzcz0ic3QwIiBkPSJNOSAxNmgydjRIOXptLTQgMGgydjRINXptOCAwaDJ2NGgtMnptMy01VjloNHYyem0wIDR2LTJoNHYyem0wLThWNWg0djJ6Ii8+JiN4YTsJPHBhdGggY2xhc3M9InN0MSIgZD0iTTAgMTFWOWg0djJ6bTAgNHYtMmg0djJ6bTAtOFY1aDR2MnoiLz4mI3hhOwk8cGF0aCBjbGFzcz0ic3QyIiBkPSJNMyAzdjE0aDE0VjN6bTEyIDEySDVWNWgxMHoiLz4mI3hhOwk8cGF0aCBjbGFzcz0ic3QxIiBkPSJNMTAgMTBsLTMgM2g2eiIvPiYjeGE7CTxwYXRoIGNsYXNzPSJzdDAiIGQ9Ik0xMyA3bC0zIDMgMyAzeiIvPiYjeGE7PC9zdmc+;" vertex="1" parent="tKvyN9K_BntDlA_-QOsu-48">
          <mxGeometry width="30" height="30" relative="1" as="geometry">
            <mxPoint x="15" y="15" as="offset" />
          </mxGeometry>
        </mxCell>
        <mxCell id="tKvyN9K_BntDlA_-QOsu-53" value="" style="endArrow=classic;html=1;rounded=0;exitX=1;exitY=0.5;exitDx=0;exitDy=0;entryX=0.503;entryY=1.117;entryDx=0;entryDy=0;entryPerimeter=0;" edge="1" parent="1" source="tKvyN9K_BntDlA_-QOsu-51" target="tKvyN9K_BntDlA_-QOsu-21">
          <mxGeometry width="50" height="50" relative="1" as="geometry">
            <mxPoint x="1070" y="560" as="sourcePoint" />
            <mxPoint x="1120" y="510" as="targetPoint" />
            <Array as="points">
              <mxPoint x="1063" y="540" />
            </Array>
          </mxGeometry>
        </mxCell>
        <mxCell id="tKvyN9K_BntDlA_-QOsu-59" value="/putModeLoRaTrained" style="edgeLabel;html=1;align=center;verticalAlign=middle;resizable=0;points=[];" vertex="1" connectable="0" parent="tKvyN9K_BntDlA_-QOsu-53">
          <mxGeometry x="-0.1699" y="-1" relative="1" as="geometry">
            <mxPoint as="offset" />
          </mxGeometry>
        </mxCell>
        <mxCell id="tKvyN9K_BntDlA_-QOsu-56" value="" style="endArrow=classic;html=1;rounded=0;exitX=1;exitY=0.5;exitDx=0;exitDy=0;" edge="1" parent="1" source="tKvyN9K_BntDlA_-QOsu-19">
          <mxGeometry width="50" height="50" relative="1" as="geometry">
            <mxPoint x="850" y="270" as="sourcePoint" />
            <mxPoint x="1010" y="250" as="targetPoint" />
            <Array as="points">
              <mxPoint x="840" y="250" />
            </Array>
          </mxGeometry>
        </mxCell>
        <mxCell id="tKvyN9K_BntDlA_-QOsu-57" value="/getModel" style="edgeLabel;html=1;align=center;verticalAlign=middle;resizable=0;points=[];" vertex="1" connectable="0" parent="tKvyN9K_BntDlA_-QOsu-56">
          <mxGeometry x="-0.5827" y="1" relative="1" as="geometry">
            <mxPoint y="1" as="offset" />
          </mxGeometry>
        </mxCell>
      </root>
    </mxGraphModel>
  </diagram>
</mxfile>
